<svg width="215" height="64" viewBox="0 0 215 64" fill="none" xmlns="http://www.w3.org/2000/svg">
<path d="M22 21.0229L8 28.5824V36.7235H12.0444V30.9084L22 25.5468L27.5 28.5824L17.9667 33.9613L21.8667 36.142L36 28.5824L22 21.0229Z" fill="#606062"/>
<path d="M12.0444 39.6507H8V47.3556L22 55.0852L36 47.368L32 44.8843L22 50.2952L12.0444 44.8843V39.6507Z" fill="#606062"/>
<path d="M4 36.7235H0V23.817L22.1333 11.7089L40 21.422V2.1289L44 0V36.7235H39.8667V25.9459L22.1333 16.2328L4 26.2121V36.7235Z" fill="#81CAA8"/>
<path d="M4 39.6507H0V52.0249L22.1333 64L44 52.0249V39.6507H40V49.763L21.8667 59.4761L4 49.6299V39.6507Z" fill="#81CAA8"/>
<path d="M61.92 27V10.368H73.152V13.512H65.664V16.776H72.312V19.848H65.664V23.856H73.704V27H61.92ZM80.5307 24.144C81.0587 24.144 81.4907 24.104 81.8267 24.024C82.1787 23.928 82.4587 23.808 82.6667 23.664C82.8747 23.504 83.0187 23.32 83.0987 23.112C83.1787 22.904 83.2187 22.672 83.2187 22.416C83.2187 21.872 82.9627 21.424 82.4507 21.072C81.9387 20.704 81.0587 20.312 79.8107 19.896C79.2667 19.704 78.7227 19.488 78.1787 19.248C77.6347 18.992 77.1467 18.68 76.7147 18.312C76.2827 17.928 75.9307 17.472 75.6587 16.944C75.3867 16.4 75.2507 15.744 75.2507 14.976C75.2507 14.208 75.3947 13.52 75.6827 12.912C75.9707 12.288 76.3787 11.76 76.9067 11.328C77.4347 10.896 78.0747 10.568 78.8267 10.344C79.5787 10.104 80.4267 9.984 81.3707 9.984C82.4907 9.984 83.4587 10.104 84.2747 10.344C85.0907 10.584 85.7627 10.848 86.2907 11.136L85.2107 14.088C84.7467 13.848 84.2267 13.64 83.6507 13.464C83.0907 13.272 82.4107 13.176 81.6107 13.176C80.7147 13.176 80.0667 13.304 79.6667 13.56C79.2827 13.8 79.0907 14.176 79.0907 14.688C79.0907 14.992 79.1627 15.248 79.3067 15.456C79.4507 15.664 79.6507 15.856 79.9067 16.032C80.1787 16.192 80.4827 16.344 80.8187 16.488C81.1707 16.616 81.5547 16.752 81.9707 16.896C82.8347 17.216 83.5867 17.536 84.2267 17.856C84.8667 18.16 85.3947 18.52 85.8107 18.936C86.2427 19.352 86.5627 19.84 86.7707 20.4C86.9787 20.96 87.0827 21.64 87.0827 22.44C87.0827 23.992 86.5387 25.2 85.4507 26.064C84.3627 26.912 82.7227 27.336 80.5307 27.336C79.7947 27.336 79.1307 27.288 78.5387 27.192C77.9467 27.112 77.4187 27.008 76.9547 26.88C76.5067 26.752 76.1147 26.616 75.7787 26.472C75.4587 26.328 75.1867 26.192 74.9627 26.064L76.0187 23.088C76.5147 23.36 77.1227 23.608 77.8427 23.832C78.5787 24.04 79.4747 24.144 80.5307 24.144ZM101.351 10.368V13.56H96.3347V27H92.5907V13.56H87.5747V10.368H101.351ZM112.444 27C112.268 26.424 112.068 25.832 111.844 25.224C111.636 24.616 111.428 24.008 111.22 23.4H104.74C104.532 24.008 104.316 24.616 104.092 25.224C103.884 25.832 103.692 26.424 103.516 27H99.6281C100.252 25.208 100.844 23.552 101.404 22.032C101.964 20.512 102.508 19.08 103.036 17.736C103.58 16.392 104.108 15.12 104.62 13.92C105.148 12.704 105.692 11.52 106.252 10.368H109.828C110.372 11.52 110.908 12.704 111.436 13.92C111.964 15.12 112.492 16.392 113.02 17.736C113.564 19.08 114.116 20.512 114.676 22.032C115.236 23.552 115.828 25.208 116.452 27H112.444ZM107.956 14.136C107.876 14.376 107.756 14.704 107.596 15.12C107.436 15.536 107.252 16.016 107.044 16.56C106.836 17.104 106.604 17.704 106.348 18.36C106.108 19.016 105.86 19.704 105.604 20.424H110.332C110.076 19.704 109.828 19.016 109.588 18.36C109.348 17.704 109.116 17.104 108.892 16.56C108.684 16.016 108.5 15.536 108.34 15.12C108.18 14.704 108.052 14.376 107.956 14.136ZM122.997 10.176C125.493 10.176 127.405 10.624 128.733 11.52C130.061 12.4 130.725 13.776 130.725 15.648C130.725 16.816 130.453 17.768 129.909 18.504C129.381 19.224 128.613 19.792 127.605 20.208C127.941 20.624 128.293 21.104 128.661 21.648C129.029 22.176 129.389 22.736 129.741 23.328C130.109 23.904 130.461 24.512 130.797 25.152C131.133 25.776 131.445 26.392 131.733 27H127.533C127.229 26.456 126.917 25.904 126.597 25.344C126.293 24.784 125.973 24.24 125.637 23.712C125.317 23.184 124.997 22.688 124.677 22.224C124.357 21.744 124.037 21.312 123.717 20.928H121.869V27H118.125V10.608C118.941 10.448 119.781 10.336 120.645 10.272C121.525 10.208 122.309 10.176 122.997 10.176ZM123.213 13.368C122.941 13.368 122.693 13.376 122.469 13.392C122.261 13.408 122.061 13.424 121.869 13.44V17.952H122.925C124.333 17.952 125.341 17.776 125.949 17.424C126.557 17.072 126.861 16.472 126.861 15.624C126.861 14.808 126.549 14.232 125.925 13.896C125.317 13.544 124.413 13.368 123.213 13.368ZM145.754 10.368V13.56H140.738V27H136.994V13.56H131.978V10.368H145.754ZM156.848 27C156.672 26.424 156.472 25.832 156.248 25.224C156.04 24.616 155.832 24.008 155.624 23.4H149.144C148.936 24.008 148.72 24.616 148.496 25.224C148.288 25.832 148.096 26.424 147.92 27H144.032C144.656 25.208 145.248 23.552 145.808 22.032C146.368 20.512 146.912 19.08 147.44 17.736C147.984 16.392 148.512 15.12 149.024 13.92C149.552 12.704 150.096 11.52 150.656 10.368H154.232C154.776 11.52 155.312 12.704 155.84 13.92C156.368 15.12 156.896 16.392 157.424 17.736C157.968 19.08 158.52 20.512 159.08 22.032C159.64 23.552 160.232 25.208 160.856 27H156.848ZM152.36 14.136C152.28 14.376 152.16 14.704 152 15.12C151.84 15.536 151.656 16.016 151.448 16.56C151.24 17.104 151.008 17.704 150.752 18.36C150.512 19.016 150.264 19.704 150.008 20.424H154.736C154.48 19.704 154.232 19.016 153.992 18.36C153.752 17.704 153.52 17.104 153.296 16.56C153.088 16.016 152.904 15.536 152.744 15.12C152.584 14.704 152.456 14.376 152.36 14.136ZM173.689 27C172.617 25.096 171.457 23.216 170.209 21.36C168.961 19.504 167.633 17.752 166.225 16.104V27H162.529V10.368H165.577C166.105 10.896 166.689 11.544 167.329 12.312C167.969 13.08 168.617 13.904 169.273 14.784C169.945 15.648 170.609 16.552 171.265 17.496C171.921 18.424 172.537 19.32 173.113 20.184V10.368H176.833V27H173.689ZM183.933 23.952C184.109 23.968 184.309 23.984 184.533 24C184.773 24 185.053 24 185.373 24C187.245 24 188.629 23.528 189.525 22.584C190.437 21.64 190.893 20.336 190.893 18.672C190.893 16.928 190.461 15.608 189.597 14.712C188.733 13.816 187.365 13.368 185.493 13.368C185.237 13.368 184.973 13.376 184.701 13.392C184.429 13.392 184.173 13.408 183.933 13.44V23.952ZM194.757 18.672C194.757 20.112 194.533 21.368 194.085 22.44C193.637 23.512 192.997 24.4 192.165 25.104C191.349 25.808 190.349 26.336 189.165 26.688C187.981 27.04 186.653 27.216 185.181 27.216C184.509 27.216 183.725 27.184 182.829 27.12C181.933 27.072 181.053 26.96 180.189 26.784V10.584C181.053 10.424 181.949 10.32 182.877 10.272C183.821 10.208 184.629 10.176 185.301 10.176C186.725 10.176 188.013 10.336 189.165 10.656C190.333 10.976 191.333 11.48 192.165 12.168C192.997 12.856 193.637 13.736 194.085 14.808C194.533 15.88 194.757 17.168 194.757 18.672ZM200.549 18.672C200.549 19.488 200.645 20.224 200.837 20.88C201.045 21.536 201.333 22.104 201.701 22.584C202.085 23.048 202.549 23.408 203.093 23.664C203.637 23.92 204.261 24.048 204.965 24.048C205.653 24.048 206.269 23.92 206.813 23.664C207.373 23.408 207.837 23.048 208.205 22.584C208.589 22.104 208.877 21.536 209.069 20.88C209.277 20.224 209.381 19.488 209.381 18.672C209.381 17.856 209.277 17.12 209.069 16.464C208.877 15.792 208.589 15.224 208.205 14.76C207.837 14.28 207.373 13.912 206.813 13.656C206.269 13.4 205.653 13.272 204.965 13.272C204.261 13.272 203.637 13.408 203.093 13.68C202.549 13.936 202.085 14.304 201.701 14.784C201.333 15.248 201.045 15.816 200.837 16.488C200.645 17.144 200.549 17.872 200.549 18.672ZM213.245 18.672C213.245 20.096 213.029 21.352 212.597 22.44C212.181 23.512 211.605 24.416 210.869 25.152C210.133 25.872 209.253 26.416 208.229 26.784C207.221 27.152 206.133 27.336 204.965 27.336C203.829 27.336 202.757 27.152 201.749 26.784C200.741 26.416 199.861 25.872 199.109 25.152C198.357 24.416 197.765 23.512 197.333 22.44C196.901 21.352 196.685 20.096 196.685 18.672C196.685 17.248 196.909 16 197.357 14.928C197.805 13.84 198.405 12.928 199.157 12.192C199.925 11.456 200.805 10.904 201.797 10.536C202.805 10.168 203.861 9.984 204.965 9.984C206.101 9.984 207.173 10.168 208.181 10.536C209.189 10.904 210.069 11.456 210.821 12.192C211.573 12.928 212.165 13.84 212.597 14.928C213.029 16 213.245 17.248 213.245 18.672ZM65.664 51.952C65.84 51.968 66.04 51.984 66.264 52C66.504 52 66.784 52 67.104 52C68.976 52 70.36 51.528 71.256 50.584C72.168 49.64 72.624 48.336 72.624 46.672C72.624 44.928 72.192 43.608 71.328 42.712C70.464 41.816 69.096 41.368 67.224 41.368C66.968 41.368 66.704 41.376 66.432 41.392C66.16 41.392 65.904 41.408 65.664 41.44V51.952ZM76.488 46.672C76.488 48.112 76.264 49.368 75.816 50.44C75.368 51.512 74.728 52.4 73.896 53.104C73.08 53.808 72.08 54.336 70.896 54.688C69.712 55.04 68.384 55.216 66.912 55.216C66.24 55.216 65.456 55.184 64.56 55.12C63.664 55.072 62.784 54.96 61.92 54.784V38.584C62.784 38.424 63.68 38.32 64.608 38.272C65.552 38.208 66.36 38.176 67.032 38.176C68.456 38.176 69.744 38.336 70.896 38.656C72.064 38.976 73.064 39.48 73.896 40.168C74.728 40.856 75.368 41.736 75.816 42.808C76.264 43.88 76.488 45.168 76.488 46.672ZM79.1353 55V38.368H90.3673V41.512H82.8793V44.776H89.5273V47.848H82.8793V51.856H90.9193V55H79.1353ZM98.4118 55C97.7558 53.608 97.1078 52.16 96.4678 50.656C95.8278 49.152 95.2198 47.664 94.6438 46.192C94.0678 44.72 93.5318 43.312 93.0358 41.968C92.5558 40.624 92.1398 39.424 91.7878 38.368H95.9158C96.2358 39.328 96.5798 40.368 96.9478 41.488C97.3318 42.592 97.7158 43.696 98.0998 44.8C98.4998 45.904 98.8838 46.96 99.2518 47.968C99.6198 48.976 99.9638 49.848 100.284 50.584C100.588 49.848 100.924 48.976 101.292 47.968C101.676 46.96 102.06 45.904 102.444 44.8C102.844 43.696 103.228 42.592 103.596 41.488C103.98 40.368 104.332 39.328 104.652 38.368H108.636C108.268 39.424 107.844 40.624 107.364 41.968C106.884 43.312 106.356 44.72 105.78 46.192C105.204 47.664 104.596 49.152 103.956 50.656C103.316 52.16 102.668 53.608 102.012 55H98.4118ZM114.844 52.144C115.372 52.144 115.804 52.104 116.14 52.024C116.492 51.928 116.772 51.808 116.98 51.664C117.188 51.504 117.332 51.32 117.412 51.112C117.492 50.904 117.532 50.672 117.532 50.416C117.532 49.872 117.276 49.424 116.764 49.072C116.252 48.704 115.372 48.312 114.124 47.896C113.58 47.704 113.036 47.488 112.492 47.248C111.948 46.992 111.46 46.68 111.028 46.312C110.596 45.928 110.244 45.472 109.972 44.944C109.7 44.4 109.564 43.744 109.564 42.976C109.564 42.208 109.708 41.52 109.996 40.912C110.284 40.288 110.692 39.76 111.22 39.328C111.748 38.896 112.388 38.568 113.14 38.344C113.892 38.104 114.74 37.984 115.684 37.984C116.804 37.984 117.772 38.104 118.588 38.344C119.404 38.584 120.076 38.848 120.604 39.136L119.524 42.088C119.06 41.848 118.54 41.64 117.964 41.464C117.404 41.272 116.724 41.176 115.924 41.176C115.028 41.176 114.38 41.304 113.98 41.56C113.596 41.8 113.404 42.176 113.404 42.688C113.404 42.992 113.476 43.248 113.62 43.456C113.764 43.664 113.964 43.856 114.22 44.032C114.492 44.192 114.796 44.344 115.132 44.488C115.484 44.616 115.868 44.752 116.284 44.896C117.148 45.216 117.9 45.536 118.54 45.856C119.18 46.16 119.708 46.52 120.124 46.936C120.556 47.352 120.876 47.84 121.084 48.4C121.292 48.96 121.396 49.64 121.396 50.44C121.396 51.992 120.852 53.2 119.764 54.064C118.676 54.912 117.036 55.336 114.844 55.336C114.108 55.336 113.444 55.288 112.852 55.192C112.26 55.112 111.732 55.008 111.268 54.88C110.82 54.752 110.428 54.616 110.092 54.472C109.772 54.328 109.5 54.192 109.276 54.064L110.332 51.088C110.828 51.36 111.436 51.608 112.156 51.832C112.892 52.04 113.788 52.144 114.844 52.144Z" fill="#81CAA8"/>
</svg>
