<svg width="16" height="21" viewBox="0 0 16 21" fill="none" xmlns="http://www.w3.org/2000/svg">
<path d="M7.99998 20.5754C6.55649 19.3441 5.21849 17.9943 3.99999 16.54C2.17142 14.356 1.00445e-06 11.1034 1.00445e-06 8.00399C-0.00079202 6.42109 0.468009 4.87354 1.34708 3.55717C2.22614 2.24081 3.47596 1.21482 4.93835 0.609035C6.40074 0.00325338 8.00998 -0.155085 9.5624 0.154059C11.1148 0.463202 12.5406 1.22593 13.6594 2.34572C14.4043 3.08727 14.9946 3.96919 15.3964 4.94042C15.7982 5.91166 16.0033 6.95294 16 8.00399C16 11.1034 13.8285 14.356 12 16.54C10.7815 17.9943 9.44347 19.3441 7.99998 20.5754ZM7.99998 4.57543C7.09067 4.57543 6.2186 4.93665 5.57562 5.57963C4.93264 6.22261 4.57142 7.09468 4.57142 8.00399C4.57142 8.9133 4.93264 9.78537 5.57562 10.4283C6.2186 11.0713 7.09067 11.4326 7.99998 11.4326C8.90929 11.4326 9.78136 11.0713 10.4243 10.4283C11.0673 9.78537 11.4285 8.9133 11.4285 8.00399C11.4285 7.09468 11.0673 6.22261 10.4243 5.57963C9.78136 4.93665 8.90929 4.57543 7.99998 4.57543Z" fill="#FBFBFB"/>
</svg>
