<svg width="24" height="22" viewBox="0 0 24 22" fill="none" xmlns="http://www.w3.org/2000/svg">
<path d="M22.5575 9.31546C22.4593 9.29953 22.3599 9.29218 22.2604 9.29346H5.32893L5.69812 9.12174C6.059 8.95094 6.38731 8.71847 6.66833 8.43487L11.4164 3.68685C12.0417 3.08991 12.1468 2.12963 11.6653 1.41157C11.1051 0.646405 10.0306 0.480267 9.26537 1.04055C9.20355 1.08584 9.14479 1.13521 9.08957 1.18834L0.503632 9.77428C-0.167358 10.4445 -0.167949 11.5318 0.502291 12.2028C0.50272 12.2032 0.503203 12.2037 0.503632 12.2041L9.08957 20.79C9.7611 21.4597 10.8483 21.4582 11.518 20.7867C11.5707 20.7338 11.62 20.6776 11.6653 20.6183C12.1468 19.9003 12.0417 18.94 11.4164 18.343L6.67692 13.5864C6.42498 13.3342 6.13531 13.1227 5.81833 12.9597L5.30317 12.7278H22.1659C23.0432 12.7604 23.8128 12.1476 23.9776 11.2854C24.1294 10.3493 23.4936 9.46733 22.5575 9.31546Z" fill="white"/>
</svg>
