<svg width="55" height="785" viewBox="0 0 55 785" fill="none" xmlns="http://www.w3.org/2000/svg">
<path d="M40.0001 0H55.0001V785H40.0001C40.0001 785 42 639 42 591.5C42 544 0 531 0 486C0 441 42 423 42 382.5C42 342 40.0001 0 40.0001 0Z" fill="#161616"/>
<path d="M24.9393 483.939C24.3536 484.525 24.3536 485.475 24.9393 486.061L34.4853 495.607C35.0711 496.192 36.0208 496.192 36.6066 495.607C37.1924 495.021 37.1924 494.071 36.6066 493.485L28.1213 485L36.6066 476.515C37.1924 475.929 37.1924 474.979 36.6066 474.393C36.0208 473.808 35.0711 473.808 34.4853 474.393L24.9393 483.939ZM27 483.5H26V486.5H27V483.5Z" fill="#D3D3D3"/>
</svg>
