<svg width="117" height="785" viewBox="0 0 117 785" fill="none" xmlns="http://www.w3.org/2000/svg">
<path d="M28.3249 0C-69.3679 4.84831e-05 117 0 117 0V785C117 785 103.974 639 103.974 591.5C103.974 544 61.8912 531 61.8912 486C61.8912 441 103.974 423 103.974 382.5C103.974 342 126.018 -4.84831e-05 28.3249 0Z" fill="#00BFA6"/>
<path d="M84.9393 483.939C84.3536 484.525 84.3536 485.475 84.9393 486.061L94.4853 495.607C95.0711 496.192 96.0208 496.192 96.6066 495.607C97.1924 495.021 97.1924 494.071 96.6066 493.485L88.1213 485L96.6066 476.515C97.1924 475.929 97.1924 474.979 96.6066 474.393C96.0208 473.808 95.0711 473.808 94.4853 474.393L84.9393 483.939ZM87 483.5H86V486.5H87V483.5Z" fill="white"/>
</svg>
