<svg width="376" height="189" viewBox="0 0 376 189" fill="none" xmlns="http://www.w3.org/2000/svg">
<path d="M0 9.94737C0 9.94737 16.5 14.4691 86.5 14.4689C156.5 14.4687 188 9.94737 188 9.94737C188 9.94737 246.661 0 291.661 0C336.661 0 376 9.94737 376 9.94737V189H0V9.94737Z" fill="white" fill-opacity="0.5"/>
<path d="M0 28.7382L48.5 32.7852C121 38.8873 123 24.6912 197.5 28.7382C272 32.7852 268 32.7852 313 32.7852C358 32.7852 376 28.7382 376 28.7382V189H0V28.7382Z" fill="white" fill-opacity="0.5"/>
<path d="M376 67.1275L349.5 62.1175C298.5 51.8019 263 51.2862 216 55.4124C169 59.5387 145.5 60.4223 91 55.4124C36.5 50.4026 0 67.1275 0 67.1275V189H376V67.1275Z" fill="white" fill-opacity="0.5"/>
</svg>
