<svg width="337" height="353" viewBox="0 0 337 353" fill="none" xmlns="http://www.w3.org/2000/svg">
<path d="M332.016 352.227C330.979 350.438 329.6 348.628 331.675 346.698C333.583 344.916 335.233 346.332 336.889 347.297V352.227H332.016Z" fill="white"/>
<path d="M336.889 4.95171C335.754 5.42367 334.606 6.29716 333.492 6.2408C332.58 6.20558 330.916 4.95875 330.986 4.43748C331.187 2.91593 332.085 1.48595 332.712 0.020752H336.889V4.95171Z" fill="white"/>
<path d="M181.641 352.227C181.369 351.734 180.854 351.234 180.875 350.748C180.931 349.381 180.75 347.48 181.523 346.803C182.295 346.127 184.586 346.134 185.359 346.803C186.131 347.472 185.929 349.389 185.964 350.755C185.964 351.234 185.421 351.72 185.122 352.206L181.641 352.227Z" fill="white"/>
<path d="M185.122 0.020752C185.484 0.605372 186.187 1.21817 186.138 1.76053C186.013 3.12699 185.943 5.04285 185.094 5.63452C184.245 6.22618 181.975 5.97261 181.265 5.20485C180.555 4.4371 180.986 2.57054 181.133 1.21112C181.174 0.774419 181.912 0.415195 182.337 0.020752H185.122Z" fill="white"/>
<path d="M336.889 257.836C336.401 258.103 335.886 258.639 335.434 258.589C334 258.441 332.28 258.456 331.298 257.638C330.721 257.159 330.853 254.659 331.528 254.074C332.391 253.32 334.111 253.489 335.469 253.454C335.935 253.454 336.415 254.011 336.861 254.314L336.889 257.836Z" fill="white"/>
<path d="M1.32969 352.227C1.06514 351.734 0.529085 351.213 0.577818 350.748C0.724015 349.297 0.710092 347.557 1.5107 346.557C1.9841 345.972 4.46249 346.113 5.04032 346.797C5.77827 347.663 5.61119 349.41 5.646 350.776C5.646 351.255 5.10298 351.741 4.81058 352.227H1.32969Z" fill="white"/>
<path d="M4.8106 0.020752C5.03337 0.41521 5.465 0.823756 5.43716 1.19708C5.33273 2.7397 5.43716 4.51476 4.74098 5.69109C4.40681 6.20529 1.22528 5.84606 1.03035 5.28254C0.570869 3.95125 1.093 2.26071 1.30186 0.725142C1.3297 0.464518 1.7683 0.253201 2.02588 0.020752H4.8106Z" fill="white"/>
<path d="M154.49 0.020752C154.977 0.513819 155.847 0.992798 155.882 1.49995C155.924 2.85941 156.035 4.61332 155.29 5.4797C154.699 6.18409 152.373 6.27566 151.726 5.66284C150.89 4.87394 150.828 3.12003 150.709 1.76057C150.661 1.21116 151.357 0.598344 151.719 0.020752H154.49Z" fill="white"/>
<path d="M151.705 352.227C151.343 351.65 150.64 351.044 150.688 350.502C150.807 349.135 150.911 347.494 151.705 346.564C152.213 345.965 154.49 345.951 154.991 346.564C155.798 347.472 155.924 349.107 156.07 350.459C156.133 351.016 155.499 351.65 155.186 352.249L151.705 352.227Z" fill="white"/>
<path d="M34.7464 0.0209601C35.0597 0.49996 35.6584 0.993049 35.6305 1.42978C35.5331 2.88087 35.5888 4.62077 34.816 5.65626C34.3704 6.24092 31.718 6.1423 31.3351 5.51538C30.6389 4.43762 30.8199 2.69773 30.8478 1.25368C30.8478 0.831034 31.5857 0.429519 31.9825 0.013916L34.7464 0.0209601Z" fill="white"/>
<path d="M124.554 0.020752C125.117 0.725144 126.099 1.42954 126.148 2.18324C126.224 3.31026 125.988 4.8881 125.243 5.51501C124.75 5.84039 124.187 6.03988 123.601 6.09632C123.015 6.15276 122.425 6.06447 121.88 5.83903C121.038 5.34595 120.488 3.81742 120.397 2.70448C120.376 1.83808 121.275 0.91533 121.769 0.020752H124.554Z" fill="white"/>
<path d="M212.273 352.227C211.702 351.523 210.707 350.819 210.665 350.079C210.595 348.952 210.853 347.374 211.598 346.74C212.09 346.415 212.654 346.215 213.239 346.159C213.825 346.102 214.416 346.191 214.96 346.416C215.796 346.902 216.352 348.438 216.422 349.551C216.471 350.417 215.552 351.333 215.03 352.227H212.273Z" fill="white"/>
<path d="M302.08 352.227C301.648 351.523 300.834 350.854 300.869 350.213C300.945 348.952 301.133 347.219 301.955 346.613C302.776 346.007 304.927 346.091 305.54 346.761C306.299 347.606 306.236 349.36 306.236 350.72C306.236 351.227 305.366 351.727 304.893 352.227H302.08Z" fill="white"/>
<path d="M336.89 128.224C336.333 128.619 335.755 129.373 335.226 129.33C333.875 129.239 332.156 129.19 331.348 128.365C330.735 127.731 330.812 125.378 331.466 124.779C332.309 124.012 334.035 124.075 335.379 124.075C335.887 124.075 336.388 124.934 336.89 125.399V128.224Z" fill="white"/>
<path d="M336.889 35.2417C336.423 35.5658 335.936 36.1787 335.497 36.1505C334.063 36.0448 332.343 36.1012 331.32 35.3051C330.735 34.8543 330.846 32.1703 331.459 31.7828C332.531 31.0784 334.244 31.2545 335.685 31.2756C336.096 31.2756 336.486 32.0364 336.889 32.445V35.2417Z" fill="white"/>
<path d="M336.889 97.9346C336.416 98.2446 335.921 98.8433 335.497 98.8081C334.056 98.6884 332.336 98.7236 331.32 97.9205C330.742 97.4555 330.874 94.7715 331.494 94.3982C332.573 93.6937 334.278 93.898 335.726 93.9332C336.123 93.9332 336.506 94.7222 336.896 95.1449L336.889 97.9346Z" fill="white"/>
<path d="M336.889 319.824C336.193 320.409 335.497 321.424 334.8 321.473C333.68 321.55 332.12 321.29 331.494 320.536C331.171 320.038 330.973 319.468 330.916 318.876C330.859 318.283 330.945 317.685 331.166 317.133C331.64 316.281 333.157 315.725 334.25 315.64C335.107 315.591 336.019 316.514 336.903 317.007L336.889 319.824Z" fill="white"/>
<path d="M31.9616 352.227C31.4395 351.622 30.5066 351.023 30.4857 350.403C30.4509 349.149 30.4857 347.409 31.2724 346.754C31.8101 346.424 32.422 346.238 33.0505 346.213C33.679 346.188 34.3034 346.326 34.8647 346.613C35.6792 347.219 35.8672 348.945 35.9368 350.206C35.9786 350.854 35.171 351.551 34.7464 352.227H31.9616Z" fill="white"/>
<path d="M121.769 352.227C121.379 351.664 120.641 351.072 120.676 350.53C120.773 349.17 120.829 347.416 121.651 346.606C122.284 345.986 124.609 346.07 125.201 346.74C125.967 347.592 125.897 349.339 125.897 350.699C125.897 351.213 125.048 351.72 124.582 352.227H121.769Z" fill="white"/>
<path d="M94.6176 0.020752C95.1119 0.654696 96.01 1.28864 96.01 1.92258C96.01 3.16934 95.8916 4.90916 95.1049 5.53606C94.5521 5.84959 93.9304 6.01775 93.2967 6.02513C92.663 6.03252 92.0376 5.87889 91.4778 5.57833C90.6842 4.96551 90.5241 3.22569 90.4893 1.97189C90.4893 1.3309 91.3456 0.668784 91.819 0.020752H94.6176Z" fill="white"/>
<path d="M215.058 0.020752C215.496 0.725155 216.325 1.38025 216.29 2.0283C216.22 3.28918 216.025 5.17698 215.239 5.60667C214.611 5.8629 213.931 5.96397 213.257 5.90149C212.583 5.83902 211.933 5.6148 211.361 5.24742C210.665 4.69799 210.853 2.82428 210.957 1.56339C210.999 1.01396 211.813 0.534966 212.273 0.020752H215.058Z" fill="white"/>
<path d="M304.865 0.020752C305.442 0.72512 306.452 1.42949 306.508 2.13386C306.584 3.26085 306.327 4.84567 305.589 5.47256C305.094 5.80206 304.528 6.00499 303.938 6.06388C303.349 6.12278 302.754 6.03588 302.205 5.81066C301.384 5.35986 300.778 3.82434 300.688 2.71144C300.688 1.84507 301.593 0.922343 302.08 0.020752H304.865Z" fill="white"/>
<path d="M336.889 65.5313C336.346 65.9469 335.782 66.743 335.26 66.7148C333.909 66.6373 332.176 66.6091 331.375 65.7849C330.756 65.1439 330.811 62.8122 331.459 62.1782C332.273 61.3892 334.007 61.4314 335.343 61.4174C335.859 61.4174 336.374 62.2556 336.889 62.7135V65.5313Z" fill="white"/>
<path d="M336.889 226.842C336.193 227.42 335.497 228.427 334.766 228.469C333.652 228.533 332.099 228.265 331.473 227.511C331.153 227.012 330.958 226.441 330.903 225.849C330.849 225.257 330.937 224.66 331.159 224.109C331.64 223.256 333.157 222.7 334.25 222.615C335.107 222.573 336.012 223.517 336.889 224.024V226.842Z" fill="white"/>
<path d="M336.889 158.514C336.353 158.937 335.796 159.733 335.274 159.704C333.93 159.648 332.197 159.634 331.389 158.817C330.763 158.183 330.791 155.844 331.438 155.217C332.253 154.421 333.986 154.457 335.323 154.428C335.838 154.428 336.367 155.253 336.889 155.696V158.514Z" fill="white"/>
<path d="M61.8972 352.227C61.396 351.6 60.5049 350.981 60.5049 350.347C60.5049 349.1 60.5954 347.36 61.3681 346.726C61.9138 346.405 62.5307 346.23 63.1614 346.217C63.792 346.203 64.4158 346.352 64.9744 346.648C65.775 347.261 65.9351 348.994 65.9769 350.255C65.9769 350.896 65.1484 351.565 64.6959 352.227H61.8972Z" fill="white"/>
<path d="M91.8333 352.227C91.4156 351.678 90.6289 351.121 90.6498 350.593C90.7055 349.234 90.7125 347.473 91.52 346.663C92.1536 346.022 94.4579 346.05 95.0914 346.705C95.8781 347.522 95.8503 349.283 95.8712 350.635C95.8712 351.164 95.0636 351.699 94.6181 352.227H91.8333Z" fill="white"/>
<path d="M64.682 0.020752C65.0928 0.577219 65.8655 1.14777 65.8377 1.67607C65.7681 3.04258 65.7472 4.79651 64.9326 5.60656C64.3061 6.24051 61.9948 6.18415 61.3752 5.52907C60.5954 4.70494 60.679 2.95101 60.6372 1.59858C60.6372 1.07734 61.4517 0.549044 61.8973 0.020752H64.682Z" fill="white"/>
<path d="M274.929 0.0211324C275.423 0.648062 276.321 1.27499 276.321 1.90897C276.321 3.16282 276.189 4.76889 275.43 5.55079C274.81 6.19181 272.805 6.34678 272.116 5.81143C271.253 5.10701 270.856 3.54321 270.766 2.28935C270.71 1.58493 271.643 0.767813 272.158 0L274.929 0.0211324Z" fill="white"/>
<path d="M272.144 352.228C271.657 351.46 270.717 350.664 270.752 349.938C270.842 348.705 271.246 347.12 272.103 346.416C272.799 345.873 274.79 346.035 275.409 346.676C276.175 347.458 276.307 349.072 276.307 350.326C276.307 350.952 275.402 351.579 274.915 352.206L272.144 352.228Z" fill="white"/>
<path d="M336.889 289.535C336.27 290.035 335.657 290.943 335.037 290.943C333.798 290.943 332.086 290.831 331.445 290.042C331.13 289.493 330.958 288.872 330.946 288.237C330.933 287.602 331.081 286.975 331.376 286.414C331.995 285.604 333.708 285.456 334.954 285.414C335.587 285.414 336.242 286.252 336.889 286.71V289.535Z" fill="white"/>
<path d="M244.993 0.020752C245.411 0.570165 246.19 1.12662 246.169 1.6549C246.114 3.02139 246.107 4.76824 245.299 5.60645C244.694 6.24039 242.368 6.20517 241.763 5.5501C240.976 4.71894 241.011 2.97209 240.983 1.61264C240.983 1.0914 241.777 0.549034 242.208 0.020752H244.993Z" fill="white"/>
<path d="M336.889 196.552C336.366 196.989 335.837 197.813 335.322 197.799C333.979 197.799 332.259 197.799 331.431 196.996C330.79 196.376 330.734 194.023 331.375 193.418C332.21 192.6 333.93 192.586 335.287 192.53C335.803 192.53 336.352 193.312 336.889 193.735V196.552Z" fill="white"/>
<path d="M242.208 352.227C241.721 351.593 240.816 350.959 240.816 350.333C240.816 349.072 240.941 347.346 241.728 346.698C242.273 346.384 242.887 346.214 243.514 346.206C244.141 346.197 244.76 346.349 245.313 346.648C246.107 347.282 246.246 349.015 246.281 350.276C246.281 350.917 245.439 351.579 244.979 352.227H242.208Z" fill="white"/>
<path d="M183.604 251.602C184.962 253.652 186.487 254.941 186.354 256.026C186.222 257.111 184.503 258.139 183.479 259.167C182.428 258.047 180.743 257.054 180.527 255.772C180.36 254.821 182.087 253.539 183.604 251.602Z" fill="white"/>
<path d="M93.3921 314.224C94.7845 316.246 96.4762 317.662 96.2395 318.557C95.9054 319.832 94.151 320.719 93.0162 321.769C92.0624 320.656 90.4194 319.585 90.3498 318.416C90.2802 317.247 91.8954 316.162 93.3921 314.224Z" fill="white"/>
<path d="M149.018 96.4412C150.939 94.9056 152.199 93.1516 153.132 93.3207C154.385 93.5461 155.388 95.2437 156.495 96.3144C155.464 97.3358 154.517 99.0545 153.383 99.1954C152.248 99.3363 151.009 97.8007 149.018 96.4412Z" fill="white"/>
<path d="M217.842 63.9958C215.885 65.461 214.688 67.06 213.623 66.9755C212.558 66.8909 211.451 65.2144 210.372 64.2283C211.43 63.1012 212.342 61.3472 213.602 61.0443C214.5 60.826 215.858 62.5377 217.842 63.9958Z" fill="white"/>
<path d="M7.47735 255.864C5.55589 257.385 4.28188 259.125 3.34899 258.956C2.09587 258.724 1.10729 257.019 0.00732422 255.948C1.03767 254.92 1.98448 253.194 3.12622 253.053C4.26795 252.912 5.45842 254.476 7.47735 255.864Z" fill="white"/>
<path d="M93.0372 229.998C91.7144 227.955 90.2037 226.644 90.3429 225.538C90.4822 224.433 92.2296 223.489 93.2739 222.467C94.3251 223.594 96.0586 224.63 96.2118 225.884C96.351 226.842 94.6175 228.103 93.0372 229.998Z" fill="white"/>
<path d="M157.811 126.731C155.722 128.14 154.434 129.697 153.355 129.549C152.276 129.401 150.459 127.604 150.501 126.59C150.542 125.576 152.311 123.772 153.439 123.674C154.566 123.575 155.764 125.216 157.811 126.731Z" fill="white"/>
<path d="M187.837 126.724C185.811 128.133 184.46 129.767 183.513 129.541C182.281 129.26 181.362 127.52 180.311 126.414C181.397 125.442 182.434 123.772 183.576 123.695C184.718 123.617 185.853 125.238 187.837 126.724Z" fill="white"/>
<path d="M32.9226 152.597C34.4402 154.52 36.0484 155.661 36.0275 156.781C36.0066 157.901 34.4054 159.056 33.4934 160.197C32.3447 159.176 30.5625 158.317 30.2492 157.084C30.0125 156.112 31.5998 154.682 32.9226 152.597Z" fill="white"/>
<path d="M7.49764 33.4316C5.58313 34.9601 4.44139 36.5801 3.36231 36.5379C2.28323 36.4956 1.12756 34.8826 0.0136719 33.9528C1.0301 32.7836 1.87944 31.0156 3.11168 30.6634C4.02368 30.4169 5.4439 32.051 7.49764 33.4316Z" fill="white"/>
<path d="M97.6742 157.006C95.7179 158.457 94.5135 160.042 93.4066 159.979C92.2996 159.915 91.2345 158.225 90.1484 157.246C91.2066 156.119 92.1326 154.344 93.3787 154.076C94.3325 153.865 95.6831 155.569 97.6742 157.006Z" fill="white"/>
<path d="M217.842 157.246C215.802 158.605 214.521 160.127 213.463 159.986C212.405 159.845 211.375 158.112 210.365 157.077C211.479 156.006 212.454 154.316 213.749 154.083C214.668 153.914 215.928 155.696 217.842 157.246Z" fill="white"/>
<path d="M97.702 33.7907C95.6552 35.1431 94.2768 36.7632 93.3021 36.5378C92.0769 36.249 91.2136 34.4739 90.1484 33.3399C91.2554 32.3819 92.3414 30.7196 93.4831 30.6773C94.6249 30.6351 95.7527 32.2622 97.702 33.7907Z" fill="white"/>
<path d="M308.032 157.26C305.999 158.598 304.718 160.078 303.632 159.979C302.546 159.88 301.585 158.098 300.576 157.056C301.683 155.999 302.664 154.28 303.931 154.09C304.864 153.942 306.131 155.696 308.032 157.26Z" fill="white"/>
<path d="M153.334 38.0594C151.942 36.0517 150.375 34.8119 150.48 33.7271C150.584 32.6423 152.248 31.5574 153.23 30.4867C154.316 31.5786 156.014 32.5366 156.286 33.8046C156.481 34.7133 154.789 36.0517 153.334 38.0594Z" fill="white"/>
<path d="M183.506 38.0593C182.031 36.094 180.332 34.7768 180.513 33.8329C180.77 32.572 182.469 31.6 183.548 30.5011C184.544 31.5647 186.235 32.5509 186.333 33.7061C186.43 34.8613 184.913 36.0095 183.506 38.0593Z" fill="white"/>
<path d="M183.423 230.019C181.995 228.033 180.325 226.68 180.519 225.715C180.763 224.475 182.511 223.546 183.611 222.475C184.585 223.546 186.27 224.588 186.347 225.708C186.423 226.828 184.85 228.04 183.423 230.019Z" fill="white"/>
<path d="M93.225 190.825C94.7079 192.784 96.4414 194.136 96.2326 195.052C95.9402 196.327 94.2276 197.257 93.1206 198.334C92.1251 197.271 90.4403 196.278 90.3359 195.122C90.2315 193.967 91.8327 192.798 93.225 190.825Z" fill="white"/>
<path d="M213.407 199.666C211.98 197.553 210.434 196.221 210.574 195.129C210.713 194.038 212.502 192.312 213.574 192.312C214.646 192.312 216.282 194.136 216.359 195.263C216.436 196.39 214.883 197.616 213.407 199.666Z" fill="white"/>
<path d="M308.164 195.326C305.999 196.735 304.683 198.256 303.59 198.101C302.497 197.947 301.571 196.15 300.576 195.08C301.641 194.087 302.664 192.382 303.792 192.262C304.92 192.143 306.103 193.812 308.164 195.326Z" fill="white"/>
<path d="M63.4428 230.012C61.8972 228.096 60.1498 226.842 60.2891 225.877C60.4701 224.623 62.1618 223.594 63.2061 222.467C64.2364 223.482 65.9908 224.411 66.0952 225.546C66.1996 226.68 64.7516 227.948 63.4428 230.012Z" fill="white"/>
<path d="M243.747 221.045C245.14 223.271 246.581 224.623 246.407 225.701C246.233 226.779 244.485 227.765 243.427 228.779C242.446 227.673 240.782 226.624 240.691 225.447C240.601 224.271 242.209 223.144 243.747 221.045Z" fill="white"/>
<path d="M273.467 221.136C274.977 223.144 276.669 224.447 276.495 225.363C276.251 226.638 274.58 227.631 273.515 228.744C272.534 227.687 270.884 226.708 270.731 225.546C270.577 224.383 272.144 223.221 273.467 221.136Z" fill="white"/>
<path d="M88.9028 64.0101C90.88 62.5591 92.2306 60.8403 93.1704 61.0446C94.4305 61.3263 95.3634 63.0944 96.4355 64.2215C95.3495 65.2076 94.3122 66.8982 93.1565 66.9827C92.0008 67.0673 90.8521 65.4612 88.9028 64.0101Z" fill="white"/>
<path d="M33.1386 260.456C31.7462 258.435 30.1519 257.202 30.2425 256.096C30.333 254.99 32.0108 253.934 33.0272 252.856C34.1063 253.941 35.8119 254.906 36.0556 256.16C36.2157 257.132 34.5657 258.456 33.1386 260.456Z" fill="white"/>
<path d="M127.7 256.019C125.744 257.463 124.408 259.168 123.461 258.97C122.235 258.717 121.316 256.941 120.258 255.828C121.323 254.835 122.347 253.13 123.454 253.06C124.561 252.989 125.758 254.582 127.7 256.019Z" fill="white"/>
<path d="M157.72 256.23C155.687 257.582 154.274 259.216 153.355 258.97C152.13 258.646 151.267 256.857 150.299 255.68C151.406 254.744 152.499 253.103 153.62 253.074C154.74 253.046 155.84 254.687 157.72 256.23Z" fill="white"/>
<path d="M213.456 251.581C214.898 253.567 216.45 254.772 216.373 255.864C216.297 256.956 214.668 258.062 213.714 259.153C212.593 258.097 210.853 257.181 210.567 255.927C210.351 255.019 212.022 253.61 213.456 251.581Z" fill="white"/>
<path d="M308.046 255.899C306.11 257.399 304.822 259.118 303.869 258.949C302.636 258.731 301.662 256.998 300.576 255.92C301.606 254.906 302.574 253.18 303.695 253.103C304.815 253.025 306.034 254.504 308.046 255.899Z" fill="white"/>
<path d="M97.7368 287.978C95.7736 289.528 94.5135 291.254 93.5597 291.106C92.3066 290.915 91.2762 289.218 90.1484 288.168C91.1788 287.154 92.1325 285.456 93.2673 285.315C94.4021 285.174 95.6413 286.654 97.7368 287.978Z" fill="white"/>
<path d="M217.982 288.006C215.893 289.577 214.703 291.205 213.637 291.113C212.572 291.021 211.444 289.324 210.358 288.33C211.361 287.26 212.252 285.513 213.401 285.315C214.549 285.118 215.796 286.633 217.982 288.006Z" fill="white"/>
<path d="M7.49823 96.3143C5.50019 97.7232 4.27491 99.287 3.19583 99.1884C2.11675 99.0898 1.06552 97.3991 0.00732422 96.4059C1.0864 95.307 2.03321 93.5882 3.27241 93.3134C4.21225 93.1232 5.50715 94.828 7.49823 96.3143Z" fill="white"/>
<path d="M37.5732 96.1382C35.5543 97.6527 34.336 99.2728 33.2638 99.1812C32.1917 99.0896 31.1126 97.3639 30.0405 96.3636C31.05 95.2789 31.9481 93.4826 33.0898 93.3065C34.2315 93.1305 35.4429 94.7153 37.5732 96.1382Z" fill="white"/>
<path d="M3.1254 323.037C1.69127 321.043 0.0134704 319.698 0.208401 318.733C0.452064 317.493 2.19948 316.563 3.29944 315.499C4.2741 316.563 5.95189 317.613 6.02151 318.718C6.09113 319.824 4.54561 321.05 3.1254 323.037Z" fill="white"/>
<path d="M157.734 318.613C155.757 320.078 154.413 321.79 153.48 321.578C152.248 321.311 151.343 319.536 150.292 318.408C151.357 317.436 152.381 315.76 153.501 315.682C154.622 315.605 155.785 317.176 157.734 318.613Z" fill="white"/>
<path d="M127.721 96.3565C125.723 97.7653 124.373 99.3926 123.426 99.1742C122.201 98.9065 121.337 97.1454 120.258 96.0254C121.337 95.0533 122.347 93.3556 123.489 93.2993C124.63 93.2429 125.772 94.8631 127.721 96.3565Z" fill="white"/>
<path d="M187.823 96.3142C185.818 97.7231 184.593 99.2799 183.507 99.1812C182.42 99.0826 181.369 97.399 180.311 96.4058C181.39 95.3069 182.344 93.5881 183.583 93.3204C184.53 93.1302 185.818 94.8349 187.823 96.3142Z" fill="white"/>
<path d="M217.877 96.3987C215.837 97.8076 214.577 99.3151 213.519 99.2164C212.461 99.1178 211.43 97.399 210.365 96.3987C211.465 95.321 212.454 93.6304 213.707 93.3768C214.626 93.1443 215.914 94.8701 217.877 96.3987Z" fill="white"/>
<path d="M187.809 318.796C185.72 320.205 184.328 321.825 183.409 321.572C182.177 321.24 181.32 319.458 180.325 318.275C181.439 317.352 182.532 315.746 183.673 315.704C184.815 315.661 185.894 317.275 187.809 318.796Z" fill="white"/>
<path d="M247.966 318.592C245.877 320.092 244.624 321.705 243.573 321.578C242.522 321.451 240.725 319.683 240.698 318.599C240.67 317.514 242.445 315.83 243.587 315.69C244.728 315.549 245.898 317.134 247.966 318.592Z" fill="white"/>
<path d="M308.06 96.258C306.089 97.6667 304.878 99.2585 303.785 99.1811C302.692 99.1036 301.641 97.4272 300.576 96.4552C301.634 95.3353 302.553 93.5745 303.778 93.3139C304.732 93.1167 306.069 94.8071 308.06 96.258Z" fill="white"/>
<path d="M3.2998 131.105C1.75428 129.076 0.118259 127.858 0.201801 126.787C0.285343 125.716 1.96314 123.779 2.98652 123.73C4.00991 123.68 5.81998 125.399 6.00098 126.547C6.18199 127.696 4.66432 128.964 3.2998 131.105Z" fill="white"/>
<path d="M278.041 318.416C276.015 319.987 274.818 321.628 273.725 321.557C272.632 321.487 270.843 319.768 270.78 318.69C270.717 317.612 272.423 315.872 273.53 315.682C274.637 315.492 275.925 317.056 278.041 318.416Z" fill="white"/>
<path d="M123.405 59.5792C124.797 61.608 126.468 62.9816 126.266 63.9537C126.002 65.2076 124.24 66.1304 123.126 67.2011C122.173 66.0951 120.516 65.0315 120.46 63.8832C120.404 62.735 121.964 61.5516 123.405 59.5792Z" fill="white"/>
<path d="M183.624 152.604C184.961 154.668 186.569 156.091 186.332 157.049C186.033 158.281 184.244 159.162 183.116 160.176C182.183 159.056 180.54 157.95 180.512 156.809C180.484 155.668 182.106 154.534 183.624 152.604Z" fill="white"/>
<path d="M308.019 64.0239C306.083 65.4329 304.879 67.0531 303.786 66.9827C302.693 66.9122 301.649 65.2004 300.59 64.2071C301.642 63.08 302.554 61.3047 303.786 61.037C304.719 60.8398 306.062 62.5587 308.019 64.0239Z" fill="white"/>
<path d="M153.487 59.5652C154.879 61.6221 156.494 63.0097 156.271 63.9889C156 65.2357 154.232 66.1443 153.111 67.1939C152.164 66.0809 150.528 64.9962 150.479 63.848C150.43 62.6998 152.018 61.5375 153.487 59.5652Z" fill="white"/>
<path d="M187.781 63.8762C185.88 65.3836 184.725 67.0108 183.646 66.9686C182.567 66.9263 181.425 65.2709 180.318 64.32C181.341 63.1577 182.205 61.3614 183.444 61.0374C184.356 60.7909 185.762 62.4744 187.781 63.8762Z" fill="white"/>
<path d="M93.4273 122.286C94.8196 124.286 96.4835 125.709 96.2468 126.618C95.9266 127.865 94.1583 128.731 92.9887 129.753C92.0349 128.647 90.378 127.569 90.3362 126.428C90.2945 125.287 91.9305 124.174 93.4273 122.286Z" fill="white"/>
<path d="M97.6948 96.0818C95.7733 97.5963 94.6107 99.2094 93.5177 99.1742C92.4247 99.139 91.276 97.5047 90.1621 96.5678C91.1855 95.4126 92.0557 93.6163 93.288 93.3204C94.2417 93.088 95.6411 94.7152 97.6948 96.0818Z" fill="white"/>
<path d="M308.06 33.6429C306.082 35.0517 304.864 36.6297 303.764 36.5522C302.664 36.4747 301.634 34.777 300.576 33.7908C301.634 32.6848 302.567 30.9167 303.799 30.6701C304.753 30.4799 306.082 32.1847 308.06 33.6429Z" fill="white"/>
<path d="M7.46281 63.848C5.57616 65.3837 4.43442 67.0321 3.35534 66.9898C2.27626 66.9475 1.1206 65.2991 0.0136719 64.3552C1.0301 63.1788 1.87944 61.3824 3.11864 61.0302C4.01672 60.7836 5.44389 62.4602 7.46281 63.848Z" fill="white"/>
<path d="M33.2777 68.5041C31.7879 66.5176 30.1867 65.3201 30.2493 64.2212C30.312 63.1223 31.948 61.96 32.8948 60.84C34.0087 61.9036 35.7422 62.8194 36.0276 64.0803C36.2504 65.0454 34.6422 66.4331 33.2777 68.5041Z" fill="white"/>
<path d="M93.3442 260.407C91.8823 258.47 90.2741 257.266 90.3367 256.181C90.3994 255.096 92.0841 253.983 93.0518 252.891C94.1866 253.948 95.9549 254.849 96.2473 256.11C96.4631 257.033 94.7644 258.421 93.3442 260.407Z" fill="white"/>
<path d="M153.181 161.487C151.845 159.409 150.341 158.113 150.48 157.021C150.619 155.929 152.325 154.907 153.341 153.837C154.386 154.985 156.064 156.02 156.279 157.302C156.439 158.26 154.706 159.543 153.181 161.487Z" fill="white"/>
<path d="M2.96589 221.164C4.46964 223.123 6.16832 224.405 6.00123 225.356C5.77846 226.631 4.11459 227.652 3.07032 228.78C2.04693 227.73 0.348253 226.765 0.202055 225.602C0.0558569 224.44 1.59441 223.235 2.96589 221.164Z" fill="white"/>
<path d="M127.826 195.193C125.737 196.665 124.435 198.236 123.349 198.116C122.263 197.996 121.261 196.214 120.258 195.164C121.296 194.136 122.263 192.403 123.391 192.29C124.519 192.178 125.737 193.734 127.826 195.193Z" fill="white"/>
<path d="M63.4219 314.189C64.7517 316.253 66.2554 317.556 66.1092 318.62C65.963 319.684 64.2504 320.733 63.2201 321.748C62.1688 320.613 60.5049 319.592 60.2752 318.31C60.1151 317.408 61.8973 316.133 63.4219 314.189Z" fill="white"/>
<path d="M123.343 161.487C121.95 159.479 120.265 158.134 120.46 157.183C120.718 155.915 122.424 154.95 123.51 153.858C124.498 154.943 126.169 155.971 126.294 157.14C126.42 158.31 124.784 159.472 123.343 161.487Z" fill="white"/>
<path d="M157.713 225.496C155.791 226.997 154.489 228.744 153.536 228.561C152.296 228.321 151.343 226.581 150.271 225.482C151.308 224.468 152.275 222.749 153.396 222.665C154.517 222.58 155.742 224.095 157.713 225.496Z" fill="white"/>
<path d="M308.06 318.479C306.103 320.001 304.816 321.733 303.883 321.557C302.643 321.332 301.676 319.599 300.597 318.507C301.627 317.507 302.595 315.802 303.716 315.69C304.836 315.577 306.041 317.105 308.06 318.479Z" fill="white"/>
<path d="M3.04187 161.487C1.6495 159.451 0.090051 158.183 0.20144 157.091C0.312829 155.999 2.01152 154.921 2.98617 153.851C4.05133 154.964 5.7709 155.964 5.97976 157.232C6.20254 158.197 4.50385 159.507 3.04187 161.487Z" fill="white"/>
<path d="M308.067 126.668C306.076 128.076 304.746 129.753 303.786 129.556C302.56 129.302 301.628 127.562 300.569 126.463C301.634 125.477 302.658 123.779 303.779 123.702C304.9 123.624 306.083 125.209 308.067 126.668Z" fill="white"/>
<path d="M308.039 225.785C305.999 227.159 304.593 228.793 303.66 228.553C302.442 228.244 301.571 226.44 300.597 225.278C301.697 224.341 302.783 222.714 303.904 222.686C305.024 222.658 306.138 224.271 308.039 225.785Z" fill="white"/>
<path d="M63.2203 131.077C61.7374 129.013 60.1223 127.738 60.2476 126.668C60.3729 125.597 62.1273 123.766 63.1994 123.738C64.2715 123.709 65.9841 125.513 66.1094 126.668C66.2347 127.823 64.6822 129.02 63.2203 131.077Z" fill="white"/>
<path d="M123.161 122.18C124.707 124.209 126.35 125.428 126.273 126.527C126.197 127.625 124.498 129.478 123.433 129.534C122.368 129.591 120.606 127.858 120.446 126.717C120.286 125.576 121.818 124.301 123.161 122.18Z" fill="white"/>
<path d="M213.47 131.105C212.015 128.992 210.421 127.71 210.56 126.639C210.699 125.568 212.453 123.758 213.532 123.737C214.612 123.716 216.255 125.54 216.38 126.696C216.505 127.851 214.925 129.034 213.47 131.105Z" fill="white"/>
<path d="M273.536 161.508C272.144 159.451 270.654 158.204 270.752 157.119C270.849 156.034 272.485 154.943 273.453 153.858C274.532 154.957 276.238 155.929 276.495 157.197C276.69 158.141 275.019 159.479 273.536 161.508Z" fill="white"/>
<path d="M67.683 194.981C65.5945 196.559 64.411 198.193 63.3388 198.102C62.2667 198.01 61.1389 196.306 60.0459 195.284C61.0554 194.214 61.9604 192.467 63.1021 192.276C64.2439 192.086 65.5109 193.622 67.683 194.981Z" fill="white"/>
<path d="M63.2065 251.609C64.5988 253.589 66.1931 254.814 66.1026 255.899C66.0121 256.984 64.3482 258.083 63.3735 259.161C62.2666 258.09 60.5331 257.153 60.2616 255.892C60.0597 254.955 61.7514 253.61 63.2065 251.609Z" fill="white"/>
<path d="M247.987 195.334C245.836 196.742 244.506 198.292 243.476 198.151C242.445 198.01 240.691 196.179 240.691 195.101C240.691 194.023 242.536 192.417 243.671 192.326C244.805 192.234 245.954 193.805 247.987 195.334Z" fill="white"/>
<path d="M278.075 195.052C275.987 196.587 274.789 198.193 273.703 198.109C272.617 198.024 270.828 196.32 270.779 195.291C270.731 194.263 272.443 192.474 273.564 192.333C274.685 192.192 275.938 193.664 278.075 195.052Z" fill="white"/>
<path d="M37.5661 33.5866C35.5263 35.0659 34.2802 36.6649 33.215 36.5522C32.1499 36.4395 30.2562 34.6855 30.2632 33.6712C30.2702 32.6568 31.9967 30.8042 33.1384 30.6563C34.2802 30.5084 35.4915 32.1285 37.5661 33.5866Z" fill="white"/>
<path d="M63.0603 292.641C61.6679 290.528 60.1085 289.203 60.2755 288.119C60.4426 287.034 62.2527 285.301 63.3178 285.35C64.383 285.399 66.0469 287.196 66.1026 288.33C66.1583 289.464 64.571 290.633 63.0603 292.641Z" fill="white"/>
<path d="M63.3594 29.2401C64.703 31.2476 66.2277 32.5226 66.1441 33.6215C66.0606 34.7203 64.3132 35.7346 63.2967 36.7419C62.2316 35.636 60.512 34.6287 60.2962 33.396C60.1013 32.424 61.8487 31.1561 63.3594 29.2401Z" fill="white"/>
<path d="M37.4755 225.433C35.568 226.969 34.28 228.723 33.368 228.547C32.1149 228.307 31.1472 226.588 30.0542 225.503C31.0845 224.482 32.0314 222.763 33.1661 222.629C34.3009 222.495 35.4844 224.066 37.4755 225.433Z" fill="white"/>
<path d="M247.987 288.006C245.947 289.577 244.75 291.218 243.699 291.127C242.647 291.035 241.54 289.33 240.468 288.309C241.457 287.238 242.334 285.491 243.462 285.294C244.59 285.097 245.836 286.639 247.987 288.006Z" fill="white"/>
<path d="M278.083 288.126C275.994 289.647 274.776 291.239 273.683 291.148C272.59 291.056 270.808 289.337 270.773 288.281C270.738 287.224 272.472 285.463 273.558 285.343C274.644 285.224 275.953 286.717 278.083 288.126Z" fill="white"/>
<path d="M308.172 288.386C305.986 289.795 304.656 291.268 303.563 291.106C302.47 290.943 301.558 289.147 300.569 288.062C301.655 287.083 302.693 285.386 303.821 285.322C304.948 285.259 306.125 286.851 308.172 288.386Z" fill="white"/>
<path d="M217.842 33.4034C215.921 34.953 214.682 36.6858 213.749 36.5308C212.482 36.3125 211.452 34.6501 210.324 33.6147C211.347 32.5651 212.273 30.8323 213.422 30.6633C214.57 30.4942 215.803 32.0368 217.842 33.4034Z" fill="white"/>
<path d="M33.2776 314.098C34.67 316.26 36.1946 317.62 36.0623 318.662C35.93 319.705 34.1548 320.775 33.0966 321.79C32.0871 320.698 30.3954 319.676 30.3119 318.5C30.2283 317.324 31.7599 316.176 33.2776 314.098Z" fill="white"/>
<path d="M247.945 33.4174C245.968 34.9742 244.785 36.6226 243.719 36.5451C242.654 36.4676 240.733 34.7911 240.705 33.7696C240.677 32.7482 242.306 30.8533 243.441 30.6631C244.576 30.4729 245.822 32.0297 247.945 33.4174Z" fill="white"/>
<path d="M278.034 33.8331C275.903 35.1715 274.553 36.6507 273.487 36.5099C272.422 36.369 270.703 34.4812 270.779 33.4598C270.856 32.4384 272.652 30.6985 273.766 30.6421C274.88 30.5858 276.042 32.2764 278.034 33.8331Z" fill="white"/>
<path d="M127.715 318.697C125.71 320.106 124.331 321.79 123.398 321.571C122.173 321.283 121.31 319.458 120.266 318.345C121.352 317.394 122.403 315.739 123.531 315.689C124.659 315.64 125.793 317.225 127.715 318.697Z" fill="white"/>
<path d="M67.537 63.9748C65.6086 65.4471 64.4181 67.0532 63.3599 66.9757C62.3017 66.8982 61.1739 65.2217 60.0879 64.2425C61.1461 63.1083 62.0581 61.3472 63.3042 61.0514C64.2023 60.833 65.5668 62.5377 67.537 63.9748Z" fill="white"/>
<path d="M127.701 225.68C125.71 227.089 124.345 228.786 123.405 228.568C122.18 228.279 121.317 226.497 120.266 225.356C121.352 224.391 122.396 222.714 123.517 222.658C124.638 222.601 125.779 224.208 127.701 225.68Z" fill="white"/>
<path d="M217.842 318.704C215.809 320.113 214.423 321.797 213.518 321.571C212.272 321.247 211.388 319.458 210.351 318.352C211.444 317.401 212.495 315.774 213.644 315.697C214.792 315.619 215.913 317.218 217.842 318.704Z" fill="white"/>
<path d="M127.715 33.7625C125.71 35.1714 124.345 36.7634 123.391 36.5803C122.173 36.2985 121.303 34.5303 120.266 33.4032C121.345 32.4381 122.403 30.7474 123.524 30.7052C124.645 30.6629 125.786 32.2479 127.715 33.7625Z" fill="white"/>
<path d="M243.67 68.5183C242.18 66.4966 240.516 65.1863 240.69 64.2283C240.927 62.9533 242.598 61.946 243.656 60.8259C244.638 61.8967 246.288 62.8969 246.406 64.0593C246.524 65.2216 245.035 66.4332 243.67 68.5183Z" fill="white"/>
<path d="M37.5871 194.981C35.5612 196.552 34.3638 198.193 33.2987 198.116C32.2335 198.038 31.1196 196.32 30.0405 195.298C31.0291 194.22 31.9202 192.481 33.055 192.269C34.1898 192.058 35.4429 193.622 37.5871 194.981Z" fill="white"/>
<path d="M63.1089 152.625C64.564 154.562 66.1512 155.753 66.1025 156.851C66.0538 157.95 64.3969 159.056 63.4501 160.162C62.3153 159.113 60.547 158.211 60.2685 156.971C60.0527 156.027 61.7166 154.64 63.1089 152.625Z" fill="white"/>
<path d="M273.648 59.5438C275.04 61.6078 276.704 62.9744 276.502 63.9465C276.238 65.1933 274.49 66.1161 273.39 67.1798C272.443 66.0809 270.821 65.0242 270.759 63.876C270.696 62.7278 272.221 61.5514 273.648 59.5438Z" fill="white"/>
<path d="M67.5576 96.6948C65.469 97.9345 64.0767 99.3715 63.0254 99.1743C61.9742 98.9771 61.0274 97.216 60.0527 96.1383C61.2223 95.131 62.3223 93.4968 63.6033 93.3207C64.5361 93.215 65.7127 95.0394 67.5576 96.6948Z" fill="white"/>
<path d="M277.957 256.012C275.994 257.463 274.671 259.153 273.732 258.963C272.513 258.709 271.643 256.948 270.564 255.836C271.608 254.849 272.611 253.145 273.711 253.067C274.811 252.99 276.001 254.568 277.957 256.012Z" fill="white"/>
<path d="M247.931 156.865C245.954 158.415 244.764 160.064 243.699 159.979C242.633 159.894 240.726 158.19 240.712 157.161C240.698 156.133 242.334 154.238 243.462 154.048C244.59 153.857 245.829 155.456 247.931 156.865Z" fill="white"/>
<path d="M33.2492 122.173C34.6415 124.287 36.1731 125.583 36.0339 126.675C35.8947 127.766 34.1055 129.584 33.096 129.542C32.0865 129.499 30.3113 127.71 30.2277 126.569C30.1442 125.428 31.7524 124.223 33.2492 122.173Z" fill="white"/>
<path d="M213.665 221.206C215.009 223.27 216.499 224.552 216.373 225.63C216.248 226.708 214.556 227.743 213.589 228.8C212.523 227.68 210.804 226.687 210.609 225.405C210.407 224.433 212.141 223.137 213.665 221.206Z" fill="white"/>
<path d="M187.85 288.013C185.887 289.549 184.627 291.26 183.673 291.105C182.42 290.894 181.418 289.203 180.304 288.154C181.334 287.14 182.281 285.442 183.409 285.301C184.537 285.16 185.776 286.661 187.85 288.013Z" fill="white"/>
<path d="M157.831 195.143C155.743 196.63 154.483 198.222 153.404 198.109C152.325 197.996 151.315 196.221 150.278 195.178C151.308 194.143 152.262 192.361 153.39 192.269C154.518 192.178 155.75 193.734 157.831 195.143Z" fill="white"/>
<path d="M123.482 283.751C124.874 285.865 126.441 287.217 126.267 288.273C126.093 289.33 124.303 291.091 123.231 291.091C122.159 291.091 120.537 289.224 120.447 288.076C120.356 286.928 121.971 285.787 123.482 283.751Z" fill="white"/>
<path d="M153.382 292.676C151.934 290.598 150.368 289.33 150.479 288.239C150.591 287.147 152.338 285.322 153.361 285.329C154.385 285.336 156.146 287.083 156.285 288.21C156.425 289.337 154.83 290.584 153.382 292.676Z" fill="white"/>
<path d="M278.054 126.604C275.966 128.076 274.754 129.647 273.661 129.549C272.568 129.45 270.751 127.703 270.751 126.675C270.751 125.646 272.464 123.857 273.571 123.709C274.678 123.561 275.959 125.153 278.054 126.604Z" fill="white"/>
<path d="M273.718 91.7432C275.11 93.9055 276.656 95.2297 276.502 96.3285C276.349 97.4273 274.574 98.3712 273.509 99.3784C272.52 98.3078 270.828 97.2653 270.724 96.1524C270.62 95.0396 272.235 93.814 273.718 91.7432Z" fill="white"/>
<path d="M33.0826 292.676C31.6902 290.563 30.1099 289.26 30.2422 288.168C30.3744 287.076 32.1636 285.35 33.2148 285.35C34.2661 285.35 35.9439 287.175 36.0413 288.309C36.1388 289.443 34.5515 290.619 33.0826 292.676Z" fill="white"/>
<path d="M247.966 126.463C245.961 128.006 244.77 129.633 243.705 129.555C242.64 129.478 240.718 127.788 240.697 126.773C240.677 125.759 242.327 123.885 243.482 123.695C244.638 123.505 245.835 125.069 247.966 126.463Z" fill="white"/>
<path d="M7.59535 288.196C5.5068 289.676 4.20494 291.261 3.13978 291.127C2.07462 290.993 1.05123 289.239 0 288.189C1.04427 287.161 2.01197 285.442 3.1537 285.308C4.29544 285.174 5.5068 286.717 7.59535 288.196Z" fill="white"/>
<path d="M247.958 96.3778C245.87 97.7866 244.561 99.3433 243.51 99.1954C242.459 99.0475 240.655 97.2301 240.725 96.2017C240.795 95.1733 242.535 93.4334 243.677 93.3207C244.819 93.208 245.926 94.8422 247.958 96.3778Z" fill="white"/>
<path d="M3.3697 190.734C4.70636 192.903 6.21011 194.256 6.02214 195.319C5.83417 196.383 3.99626 198.137 2.97288 198.081C1.94949 198.024 0.292587 196.165 0.18816 195.002C0.0837329 193.84 1.78937 192.741 3.3697 190.734Z" fill="white"/>
<path d="M247.945 256.188C245.857 257.597 244.506 259.147 243.462 258.97C242.418 258.794 240.677 256.956 240.677 255.892C240.677 254.828 242.529 253.166 243.664 253.074C244.799 252.983 245.947 254.631 247.945 256.188Z" fill="white"/>
<path d="M187.844 195.143C185.839 196.637 184.537 198.32 183.59 198.137C182.351 197.891 181.39 196.179 180.311 195.094C181.362 194.108 182.351 192.438 183.486 192.326C184.62 192.213 185.818 193.734 187.844 195.143Z" fill="white"/>
</svg>
