<svg width="80" height="80" viewBox="0 0 80 80" fill="none" xmlns="http://www.w3.org/2000/svg">
<path d="M73.75 17.5H71.25C71.248 16.8376 70.984 16.2028 70.5156 15.7344C70.0472 15.266 69.4124 15.002 68.75 15H67.5V13.4C68.6547 12.5984 69.5987 11.5297 70.2516 10.2848C70.9045 9.0399 71.2471 7.65571 71.25 6.25V3.75C71.25 3.41848 71.1183 3.10054 70.8839 2.86612C70.6495 2.6317 70.3315 2.5 70 2.5H55C52.6802 2.50265 50.4561 3.42537 48.8157 5.06574C47.1754 6.70611 46.2526 8.93017 46.25 11.25C46.253 12.2436 46.649 13.1958 47.3516 13.8984C48.0542 14.601 49.0064 14.997 50 15H48.75C48.0876 15.002 47.4528 15.266 46.9844 15.7344C46.516 16.2028 46.252 16.8376 46.25 17.5H33.75C33.749 16.9202 33.5464 16.3587 33.177 15.9117C32.8076 15.4648 32.2943 15.1602 31.725 15.05L33.3875 13.3875C33.6177 13.1491 33.7475 12.8314 33.75 12.5V11.25C33.7474 8.93017 32.8246 6.70611 31.1843 5.06574C29.5439 3.42537 27.3198 2.50265 25 2.5H17.5C15.1802 2.50265 12.9561 3.42537 11.3157 5.06574C9.67537 6.70611 8.75265 8.93017 8.75 11.25V12.5C8.75247 12.8314 8.88226 13.1491 9.1125 13.3875L10.775 15.05C10.2057 15.1602 9.69242 15.4648 9.32301 15.9117C8.9536 16.3587 8.75103 16.9202 8.75 17.5H6.25C5.25635 17.503 4.30425 17.899 3.60163 18.6016C2.89901 19.3042 2.50297 20.2564 2.5 21.25V61.25C2.50297 62.2436 2.89901 63.1958 3.60163 63.8984C4.30425 64.601 5.25635 64.997 6.25 65H31.025L30.1875 70H28.75C28.5562 70.0013 28.3653 70.0471 28.1919 70.1338C28.0185 70.2205 27.8674 70.3457 27.75 70.5L24 75.5C23.8609 75.6866 23.7767 75.9083 23.7568 76.1402C23.7369 76.3721 23.7822 76.6049 23.8875 76.8125C23.9887 77.0208 24.147 77.196 24.344 77.3177C24.5409 77.4394 24.7685 77.5027 25 77.5H55C55.2315 77.5027 55.4591 77.4394 55.656 77.3177C55.853 77.196 56.0113 77.0208 56.1125 76.8125C56.2178 76.6049 56.2631 76.3721 56.2432 76.1402C56.2233 75.9083 56.1391 75.6866 56 75.5L52.25 70.5C52.1326 70.3457 51.9815 70.2205 51.8081 70.1338C51.6348 70.0471 51.4438 70.0013 51.25 70H49.8125L48.975 65H73.75C74.7437 64.997 75.6958 64.601 76.3984 63.8984C77.101 63.1958 77.497 62.2436 77.5 61.25V21.25C77.497 20.2564 77.101 19.3042 76.3984 18.6016C75.6958 17.899 74.7437 17.503 73.75 17.5ZM68.75 17.5V18.75H67.5V17.5H68.75ZM48.75 11.25C48.75 9.5924 49.4085 8.00269 50.5806 6.83058C51.7527 5.65848 53.3424 5 55 5H68.75V6.25C68.7481 7.20764 68.5263 8.15205 68.1015 9.01031C67.6767 9.86858 67.0603 10.6178 66.3 11.2L62.9 10.0625C62.6898 9.99316 62.4651 9.97974 62.2481 10.0236C62.0312 10.0674 61.8293 10.167 61.6625 10.3125C61.6375 10.3375 61.0125 10.9125 60.3375 11.65C59.7391 12.245 58.9779 12.6495 58.15 12.8125C58.3638 12.4481 58.5397 12.0628 58.675 11.6625C58.8147 11.3043 58.8812 10.9217 58.8704 10.5374C58.8597 10.1531 58.772 9.77483 58.6125 9.425C58.5069 9.22119 58.3473 9.05039 58.151 8.93132C57.9548 8.81226 57.7295 8.74952 57.5 8.75H56.25C56.0543 8.75117 55.8617 8.79827 55.6875 8.8875L50.6875 11.3875C50.4803 11.49 50.306 11.6486 50.1844 11.8453C50.0629 12.042 49.999 12.2688 50 12.5C49.6685 12.5 49.3505 12.3683 49.1161 12.1339C48.8817 11.8995 48.75 11.5815 48.75 11.25ZM55.15 14.3375C55.3286 14.6355 55.5787 14.8842 55.8778 15.061C56.1768 15.2378 56.5153 15.3372 56.8625 15.35C57.8417 15.4277 58.8259 15.2876 59.7445 14.9396C60.663 14.5916 61.4931 14.0445 62.175 13.3375C62.4 13.0875 62.625 12.8625 62.8125 12.675L65 13.4V20C65 21.6576 64.3415 23.2473 63.1694 24.4194C61.9973 25.5915 60.4076 26.25 58.75 26.25C57.0924 26.25 55.5027 25.5915 54.3306 24.4194C53.1585 23.2473 52.5 21.6576 52.5 20V13.275L56.0125 11.5125C55.8625 11.7625 55.7125 11.975 55.575 12.1625C55.2961 12.4418 55.1067 12.7978 55.031 13.1852C54.9553 13.5726 54.9967 13.9738 55.15 14.3375ZM48.75 17.5H50V18.75H48.75V17.5ZM11.25 11.25C11.25 9.5924 11.9085 8.00269 13.0806 6.83058C14.2527 5.65848 15.8424 5 17.5 5H25C26.6576 5 28.2473 5.65848 29.4194 6.83058C30.5915 8.00269 31.25 9.5924 31.25 11.25V11.9875L30 13.2375V12.5C29.9998 12.2208 29.9061 11.9498 29.734 11.73C29.5618 11.5103 29.321 11.3545 29.05 11.2875L19.05 8.7875C18.7599 8.71417 18.4531 8.74975 18.1875 8.8875L13.1875 11.3875C12.9803 11.49 12.8059 11.6486 12.6844 11.8453C12.5629 12.042 12.499 12.2688 12.5 12.5V13.2375L11.25 11.9875V11.25ZM31.25 17.5V18.75H30V17.5H31.25ZM27.5 13.475V20C27.5 21.6576 26.8415 23.2473 25.6694 24.4194C24.4973 25.5915 22.9076 26.25 21.25 26.25C19.5924 26.25 18.0027 25.5915 16.8306 24.4194C15.6585 23.2473 15 21.6576 15 20V13.275L18.9 11.325L27.5 13.475ZM11.25 17.5H12.5V18.75H11.25V17.5ZM5 21.25C5 20.9185 5.1317 20.6005 5.36612 20.3661C5.60054 20.1317 5.91848 20 6.25 20H9.1C9.31814 20.3778 9.63136 20.692 10.0085 20.9113C10.3857 21.1306 10.8137 21.2474 11.25 21.25H12.6C12.8989 23.3311 13.938 25.2346 15.5268 26.6116C17.1156 27.9885 19.1476 28.7465 21.25 28.7465C23.3524 28.7465 25.3844 27.9885 26.9732 26.6116C28.562 25.2346 29.6011 23.3311 29.9 21.25H31.25C31.6863 21.2474 32.1143 21.1306 32.4915 20.9113C32.8686 20.692 33.1819 20.3778 33.4 20H38.75V55H5V21.25ZM50.625 72.5L52.5 75H27.5L29.375 72.5H50.625ZM32.725 70L33.5625 65H46.4375L47.275 70H32.725ZM75 61.25C75 61.5815 74.8683 61.8995 74.6339 62.1339C74.3995 62.3683 74.0815 62.5 73.75 62.5H6.25C5.91848 62.5 5.60054 62.3683 5.36612 62.1339C5.1317 61.8995 5 61.5815 5 61.25V57.5H75V61.25ZM75 55H41.25V20H46.6C46.8181 20.3778 47.1314 20.692 47.5085 20.9113C47.8857 21.1306 48.3137 21.2474 48.75 21.25H50.1C50.3989 23.3311 51.438 25.2346 53.0268 26.6116C54.6156 27.9885 56.6476 28.7465 58.75 28.7465C60.8524 28.7465 62.8844 27.9885 64.4732 26.6116C66.062 25.2346 67.1011 23.3311 67.4 21.25H68.75C69.1863 21.2474 69.6143 21.1306 69.9915 20.9113C70.3686 20.692 70.6819 20.3778 70.9 20H73.75C74.0815 20 74.3995 20.1317 74.6339 20.3661C74.8683 20.6005 75 20.9185 75 21.25V55Z" fill="url(#paint0_linear)"/>
<path d="M17.5 15H20V17.5H17.5V15Z" fill="url(#paint1_linear)"/>
<path d="M22.5 15H25V17.5H22.5V15Z" fill="url(#paint2_linear)"/>
<path d="M60 16.25H62.5V18.75H60V16.25Z" fill="url(#paint3_linear)"/>
<path d="M55 16.25H57.5V18.75H55V16.25Z" fill="url(#paint4_linear)"/>
<path d="M27.5 35H30V52.5H27.5V35Z" fill="url(#paint5_linear)"/>
<path d="M32.5 35H35V52.5H32.5V35Z" fill="url(#paint6_linear)"/>
<path d="M22.5 37.5H25V52.5H22.5V37.5Z" fill="url(#paint7_linear)"/>
<path d="M17.5 40H20V52.5H17.5V40Z" fill="url(#paint8_linear)"/>
<path d="M12.5 42.5H15V52.5H12.5V42.5Z" fill="url(#paint9_linear)"/>
<path d="M36.25 26.25V28.75H34.2625L30.8875 32.1375C30.6491 32.3677 30.3314 32.4975 30 32.5H26.6875L20.775 37.225C20.5562 37.4035 20.2824 37.5007 20 37.5H18.0125L15.8875 39.6375C15.6491 39.8677 15.3314 39.9975 15 40H13.0125L10.8875 42.1375C10.6491 42.3677 10.3314 42.4975 10 42.5H7.5V40H9.4875L11.6125 37.8625C11.8509 37.6323 12.1686 37.5025 12.5 37.5H14.4875L16.6125 35.3625C16.8509 35.1323 17.1686 35.0025 17.5 35H19.5625L25.475 30.275C25.6938 30.0965 25.9676 29.9993 26.25 30H29.4875L32.8625 26.6125C33.1009 26.3823 33.4186 26.2525 33.75 26.25H36.25Z" fill="url(#paint10_linear)"/>
<path d="M7.5 45H10V52.5H7.5V45Z" fill="url(#paint11_linear)"/>
<path d="M68.75 35H64.1625L59.5 31.5C59.3143 31.3607 59.0935 31.2759 58.8623 31.2551C58.6311 31.2342 58.3986 31.2782 58.191 31.382C57.9834 31.4858 57.8087 31.6454 57.6867 31.8428C57.5646 32.0403 57.5 32.2679 57.5 32.5V35H47.5C46.5064 35.003 45.5542 35.399 44.8516 36.1016C44.149 36.8042 43.753 37.7564 43.75 38.75V48.75C43.753 49.7437 44.149 50.6958 44.8516 51.3984C45.5542 52.101 46.5064 52.497 47.5 52.5H68.75C69.7436 52.497 70.6958 52.101 71.3984 51.3984C72.101 50.6958 72.497 49.7437 72.5 48.75V38.75C72.497 37.7564 72.101 36.8042 71.3984 36.1016C70.6958 35.399 69.7436 35.003 68.75 35ZM70 48.75C70 49.0815 69.8683 49.3995 69.6339 49.6339C69.3995 49.8683 69.0815 50 68.75 50H47.5C47.1685 50 46.8505 49.8683 46.6161 49.6339C46.3817 49.3995 46.25 49.0815 46.25 48.75V38.75C46.25 38.4185 46.3817 38.1005 46.6161 37.8661C46.8505 37.6317 47.1685 37.5 47.5 37.5H58.75C59.0815 37.5 59.3995 37.3683 59.6339 37.1339C59.8683 36.8995 60 36.5815 60 36.25V35L63 37.25C63.2157 37.4136 63.4793 37.5015 63.75 37.5H68.75C69.0815 37.5 69.3995 37.6317 69.6339 37.8661C69.8683 38.1005 70 38.4185 70 38.75V48.75Z" fill="url(#paint12_linear)"/>
<path d="M48.75 40H51.25V42.5H48.75V40Z" fill="url(#paint13_linear)"/>
<path d="M53.75 40H67.5V42.5H53.75V40Z" fill="url(#paint14_linear)"/>
<path d="M48.75 45H67.5V47.5H48.75V45Z" fill="url(#paint15_linear)"/>
<defs>
<linearGradient id="paint0_linear" x1="40" y1="2.5" x2="40" y2="77.5001" gradientUnits="userSpaceOnUse">
<stop stop-color="#81CAA8"/>
<stop offset="1" stop-color="#53C1DE"/>
</linearGradient>
<linearGradient id="paint1_linear" x1="18.75" y1="15" x2="18.75" y2="17.5" gradientUnits="userSpaceOnUse">
<stop stop-color="#81CAA8"/>
<stop offset="1" stop-color="#53C1DE"/>
</linearGradient>
<linearGradient id="paint2_linear" x1="23.75" y1="15" x2="23.75" y2="17.5" gradientUnits="userSpaceOnUse">
<stop stop-color="#81CAA8"/>
<stop offset="1" stop-color="#53C1DE"/>
</linearGradient>
<linearGradient id="paint3_linear" x1="61.25" y1="16.25" x2="61.25" y2="18.75" gradientUnits="userSpaceOnUse">
<stop stop-color="#81CAA8"/>
<stop offset="1" stop-color="#53C1DE"/>
</linearGradient>
<linearGradient id="paint4_linear" x1="56.25" y1="16.25" x2="56.25" y2="18.75" gradientUnits="userSpaceOnUse">
<stop stop-color="#81CAA8"/>
<stop offset="1" stop-color="#53C1DE"/>
</linearGradient>
<linearGradient id="paint5_linear" x1="28.75" y1="35" x2="28.75" y2="52.5" gradientUnits="userSpaceOnUse">
<stop stop-color="#81CAA8"/>
<stop offset="1" stop-color="#53C1DE"/>
</linearGradient>
<linearGradient id="paint6_linear" x1="33.75" y1="35" x2="33.75" y2="52.5" gradientUnits="userSpaceOnUse">
<stop stop-color="#81CAA8"/>
<stop offset="1" stop-color="#53C1DE"/>
</linearGradient>
<linearGradient id="paint7_linear" x1="23.75" y1="37.5" x2="23.75" y2="52.5" gradientUnits="userSpaceOnUse">
<stop stop-color="#81CAA8"/>
<stop offset="1" stop-color="#53C1DE"/>
</linearGradient>
<linearGradient id="paint8_linear" x1="18.75" y1="40" x2="18.75" y2="52.5" gradientUnits="userSpaceOnUse">
<stop stop-color="#81CAA8"/>
<stop offset="1" stop-color="#53C1DE"/>
</linearGradient>
<linearGradient id="paint9_linear" x1="13.75" y1="42.5" x2="13.75" y2="52.5" gradientUnits="userSpaceOnUse">
<stop stop-color="#81CAA8"/>
<stop offset="1" stop-color="#53C1DE"/>
</linearGradient>
<linearGradient id="paint10_linear" x1="21.875" y1="26.25" x2="21.875" y2="42.5" gradientUnits="userSpaceOnUse">
<stop stop-color="#81CAA8"/>
<stop offset="1" stop-color="#53C1DE"/>
</linearGradient>
<linearGradient id="paint11_linear" x1="8.75" y1="45" x2="8.75" y2="52.5" gradientUnits="userSpaceOnUse">
<stop stop-color="#81CAA8"/>
<stop offset="1" stop-color="#53C1DE"/>
</linearGradient>
<linearGradient id="paint12_linear" x1="58.125" y1="31.25" x2="58.125" y2="52.5" gradientUnits="userSpaceOnUse">
<stop stop-color="#81CAA8"/>
<stop offset="1" stop-color="#53C1DE"/>
</linearGradient>
<linearGradient id="paint13_linear" x1="50" y1="40" x2="50" y2="42.5" gradientUnits="userSpaceOnUse">
<stop stop-color="#81CAA8"/>
<stop offset="1" stop-color="#53C1DE"/>
</linearGradient>
<linearGradient id="paint14_linear" x1="60.625" y1="40" x2="60.625" y2="42.5" gradientUnits="userSpaceOnUse">
<stop stop-color="#81CAA8"/>
<stop offset="1" stop-color="#53C1DE"/>
</linearGradient>
<linearGradient id="paint15_linear" x1="58.125" y1="45" x2="58.125" y2="47.5" gradientUnits="userSpaceOnUse">
<stop stop-color="#81CAA8"/>
<stop offset="1" stop-color="#53C1DE"/>
</linearGradient>
</defs>
</svg>
