<svg width="262" height="123" viewBox="0 0 262 123" fill="none" xmlns="http://www.w3.org/2000/svg">
<path d="M59.2526 80.5633V63.1481C59.2526 57.2316 59.2255 51.301 59.1713 45.3543C59.1713 45.3541 59.1713 45.354 59.1713 45.3538L60.6713 45.3401C60.6202 39.9325 60.6396 34.7465 60.7249 29.7851L59.2526 80.5633ZM59.2526 80.5633H53.3969V69.5533V68.7038L52.6683 68.2669C49.0639 66.1056 45.5021 63.9443 41.9808 61.783C38.4409 59.6102 34.86 57.494 31.236 55.4364L30.4748 55.0042L29.724 55.4544C26.1114 57.6207 22.582 59.7587 19.1359 61.8665L19.1357 61.8666C15.6956 63.9715 12.1738 66.103 8.57005 68.265L7.84174 68.702V69.5513V80.5612H1.98608V65.002L8.65469 60.8345C12.4675 58.507 16.2688 56.2519 20.0546 54.067C23.5984 52.0218 27.156 49.9888 30.724 47.9681C33.9139 49.8707 37.1145 51.8117 40.3288 53.7893C43.8215 55.9381 47.4354 58.0414 51.1723 60.1032L53.3969 61.3307V58.7899V34.2362M59.2526 80.5633L53.3969 34.2362M53.3969 34.2362C55.2091 33.0589 57.147 31.8664 59.2104 30.66L53.3969 34.2362ZM92.0472 75.6096C92.8249 76.0865 93.5993 76.5595 94.3697 77.0295C95.5545 77.7522 96.7136 78.4836 97.8467 79.2259C102.656 76.3177 107.416 73.4476 112.127 70.6171L112.127 70.617C116.407 68.0462 120.685 65.444 124.963 62.8092C121.2 60.5019 117.348 58.1835 113.408 55.8563L113.408 55.856C108.749 53.1021 104.131 50.3079 99.5522 47.4696C98.9495 47.1814 98.4162 46.8962 97.9619 46.6127C97.9589 46.6108 97.9561 46.6091 97.9532 46.6074C97.5085 46.8328 97.0465 47.1068 96.5652 47.4339C95.9309 47.8649 95.3125 48.2795 94.7061 48.6816L94.6748 48.7024L94.6424 48.7216C90.3265 51.2819 85.9545 53.8866 81.528 56.5338C77.3574 59.0291 73.2815 61.4866 69.3038 63.9047V80.5633H75.1556V68.4481V67.5986L75.8842 67.1617C79.4886 65.0004 83.0504 62.8391 86.5717 60.6778L86.572 60.6776C90.1136 58.505 93.6944 56.3889 97.3162 54.3314L98.0637 53.9068L98.808 54.3371C100.772 55.4729 102.779 56.6248 104.826 57.7908L92.0472 75.6096ZM92.0472 75.6096C94.8139 73.8885 97.6066 72.1857 100.425 70.5023L100.426 70.502C103.961 68.3891 107.455 66.2496 110.909 64.0794L112.872 62.8464L110.943 61.5611C108.947 60.2307 106.907 58.974 104.826 57.791L92.0472 75.6096Z" stroke="white" stroke-width="3"/>
<path d="M225.276 47.7188C220.457 50.5314 215.677 53.3821 210.931 56.2729C206.18 59.1667 201.394 62.0714 196.57 64.9904C196.638 66.4058 196.648 67.8573 196.602 69.3447C196.557 70.8254 196.531 72.3267 196.524 73.8498C200.176 76.1324 203.833 78.3712 207.494 80.5648H219.43C218.79 80.1853 218.149 79.8078 217.508 79.4325C213.758 77.237 210.022 74.971 206.299 72.6324C205.808 72.3479 205.276 72.035 204.71 71.6981C204.075 71.3221 203.482 70.9115 202.93 70.4631L201.202 69.0598L203.151 67.985C206.848 65.9472 210.421 63.8659 213.872 61.743C217.358 59.598 220.912 57.4957 224.536 55.438L225.295 55.0073L226.045 55.4536C229.492 57.5064 232.98 59.5997 236.509 61.7376C239.763 63.7085 243.051 65.6431 246.375 67.5399C247.521 66.7928 248.694 66.0653 249.894 65.3583C250.682 64.8943 251.474 64.438 252.27 63.9899C251.788 63.6762 251.288 63.3818 250.772 63.1066L225.276 47.7188ZM225.276 47.7188C228.736 49.7388 232.207 51.8078 235.69 53.926C239.427 56.1985 243.151 58.5014 246.862 60.8307C248.15 61.646 249.452 62.4046 250.771 63.1062L225.276 47.7188Z" stroke="white" stroke-width="3"/>
<path d="M44.8543 112.064L44.8545 112.064C49.6175 109.218 54.4157 106.334 59.2524 103.41V87.5224H53.3968V98.8792V99.7288L52.6682 100.166C49.0585 102.33 45.4916 104.464 41.9657 106.572L41.9651 106.572C38.4493 108.672 34.974 110.802 31.5391 112.96L30.7801 113.437L30.0005 112.994C26.3766 110.936 22.7957 108.82 19.2557 106.648C15.7347 104.486 12.1708 102.325 8.56797 100.163L7.83966 99.7265V98.8772V87.5204H1.98401V103.433C2.99387 104.067 3.99568 104.682 4.98736 105.279C6.21448 106.015 7.5055 106.782 8.8649 107.574C8.86512 107.574 8.86533 107.574 8.86554 107.574L8.11025 108.87C11.8275 111.034 15.5584 113.255 19.3028 115.532C23.0472 117.808 26.778 120.114 30.4953 122.449L44.8543 112.064ZM44.8543 112.064C40.1105 114.899 35.3284 117.774 30.5098 120.687L44.8543 112.064ZM69.3017 102.283V87.5164H75.1593V97.764V98.6135L75.8879 99.0504C79.4972 101.215 83.0643 103.351 86.591 105.457C90.1073 107.559 93.5826 109.687 97.0169 111.845L97.7966 112.334L98.5863 111.861C102.199 109.695 105.728 107.559 109.175 105.448C112.367 103.495 115.63 101.519 118.964 99.5163L124.951 103.154C120.679 105.782 116.407 108.366 112.134 110.909L112.134 110.909C107.413 113.719 102.642 116.529 97.8211 119.341C93.1039 116.53 88.3867 113.694 83.6677 110.831L83.6676 110.831C78.9293 107.956 74.1401 105.106 69.3017 102.283Z" stroke="white" stroke-width="3"/>
<path d="M254.852 100.412C255.836 101.037 256.862 101.678 257.927 102.334C258.489 102.679 259.04 103.02 259.578 103.357C259.095 103.645 258.612 103.934 258.129 104.222M254.852 100.412C251.518 98.3629 248.252 96.4127 245.054 94.5613C240.748 92.0699 236.531 89.5155 232.293 86.9314V87.5184H230.793H230.374M254.852 100.412L254.067 101.69C254.064 101.688 254.061 101.686 254.057 101.684M254.852 100.412L254.048 101.678C254.051 101.68 254.054 101.682 254.057 101.684M230.374 87.5184C230.253 87.4445 230.132 87.3706 230.011 87.2967L230.791 86.0184H229.293H215.972C216.819 86.5207 217.667 87.0207 218.514 87.5184M230.374 87.5184C234.996 90.3386 239.596 93.1359 244.303 95.8596C247.486 97.7022 250.737 99.6436 254.057 101.684M230.374 87.5184H218.514M218.514 87.5184H215.561C216.891 88.3061 218.223 89.0882 219.554 89.8643M218.514 87.5184C219.112 87.8695 219.711 88.2194 220.309 88.5681L219.554 89.8643M219.554 89.8643C225.759 93.4783 231.95 97.165 238.127 100.924C239.002 101.551 239.861 102.106 240.709 102.59C241.12 102.825 241.534 103.076 241.951 103.344C242.122 103.232 242.292 103.12 242.462 103.007L243.292 104.256L242.418 105.475C242.258 105.36 242.099 105.248 241.941 105.139C240.406 106.125 238.848 107.069 237.265 107.971C235.215 109.136 233.205 110.375 231.238 111.686C227.629 109.522 224.063 107.388 220.537 105.28C217.012 103.175 213.527 101.039 210.082 98.8752M219.554 89.8643L220.309 88.5685C226.523 92.1873 232.722 95.8787 238.906 99.6429L238.955 99.6722L239 99.705C239.838 100.305 240.654 100.831 241.453 101.287C242.35 101.799 243.253 102.383 244.166 103.037L245.932 104.302L244.122 105.505C242.125 106.833 240.088 108.089 238.007 109.274L238.006 109.275C235.987 110.423 234.007 111.643 232.07 112.934L231.28 113.46L230.467 112.972C226.858 110.809 223.293 108.675 219.768 106.568C216.501 104.617 213.269 102.64 210.072 100.639M210.082 98.8752C208.607 99.7868 207.105 100.654 205.573 101.481C204.533 102.041 203.531 102.648 202.567 103.301C203.049 103.582 203.53 103.863 204.01 104.145M210.082 98.8752L210.871 100.151C210.605 100.315 210.339 100.478 210.072 100.639M210.082 98.8752L209.284 100.145C209.547 100.31 209.809 100.475 210.072 100.639M204.01 104.145C203.544 104.446 203.087 104.758 202.638 105.08C207.237 107.771 211.768 110.485 216.231 113.224C221.151 116.241 226.152 119.232 231.236 122.193M204.01 104.145C204.745 103.67 205.503 103.222 206.285 102.801L206.286 102.801C207.567 102.109 208.829 101.389 210.072 100.639M204.01 104.145C208.407 106.723 212.742 109.323 217.016 111.946M231.236 122.193C236.212 119.23 241.172 116.241 246.119 113.224M231.236 122.193L230.469 120.904C230.722 120.753 230.975 120.603 231.228 120.452M231.236 122.193L231.991 120.897C231.736 120.748 231.482 120.6 231.228 120.452M246.119 113.224C250.588 110.497 255.068 107.795 259.558 105.116C259.091 104.821 258.615 104.523 258.129 104.222M246.119 113.224L245.338 111.944M246.119 113.224L245.337 111.944M258.129 104.222C253.856 106.774 249.593 109.348 245.338 111.944M258.129 104.222C257.804 104.02 257.475 103.817 257.142 103.612L257.141 103.611C256.074 102.955 255.045 102.311 254.057 101.684M245.338 111.944L245.337 111.944M245.338 111.944L245.337 111.944M245.337 111.944C240.647 114.805 235.944 117.64 231.228 120.452M217.016 111.946L216.232 113.223L217.016 111.946C217.016 111.946 217.016 111.946 217.016 111.946ZM217.016 111.946C221.679 114.806 226.416 117.642 231.228 120.452" stroke="white" stroke-width="3"/>
<path d="M165.594 113.309H166.666L167.013 112.295C167.053 112.178 167.159 111.788 167.317 111.204C167.408 110.866 167.518 110.464 167.642 110.012C167.998 108.716 168.51 106.883 169.18 104.615C170.458 100.287 172.307 94.3728 174.728 87.5696H181.36L171.008 119.699H150.297L140.07 87.5696H146.731C149.125 94.3702 150.955 100.283 152.22 104.61C152.883 106.878 153.391 108.711 153.743 110.007C153.863 110.449 153.97 110.844 154.059 111.178C154.219 111.774 154.327 112.174 154.367 112.293L154.713 113.309H155.787H165.594Z" stroke="white" stroke-width="3"/>
<path d="M131.475 48.7109L139.273 51.7521L145.377 80.7337H138.672L131.475 48.7109Z" stroke="white" stroke-width="3"/>
<path d="M183.056 80.7337H176.351L182.455 51.7521L190.253 48.7109L183.056 80.7337Z" stroke="white" stroke-width="3"/>
<path d="M0 16.9952H7.84308V15.4867H1.61663V8.77491H6.75694V7.26638H1.61663V1.73643H7.84308V0.227894H0V16.9952H0ZM21.8178 3.79554C21.4073 1.68399 20.2979 0 18.0288 0C15.7365 0 14.2883 2.01071 14.2883 4.27351C14.2883 6.73799 15.5197 7.54267 17.3783 8.67407C19.0433 9.68043 20.418 10.4347 20.418 12.6471C20.418 14.6578 19.4286 15.64 18.0288 15.64C16.0734 15.64 15.6881 14.2323 15.4693 12.3708L13.8527 12.5967C14.0947 15.2608 15.1324 17.2231 17.9804 17.2231C20.6832 17.2231 22.0346 15.1358 22.0346 12.4958C22.0346 9.90631 20.6832 8.87575 18.7045 7.64351C16.1702 6.06036 15.9049 5.63079 15.9049 4.27553C15.9049 2.86783 16.509 1.58517 18.0288 1.58517C19.4035 1.58517 19.9843 2.81741 20.2495 4.04965L21.8178 3.79755V3.79554ZM31.6414 16.9952H33.2581V1.73643H36.6617V0.227894H28.1662V1.73643H31.6414V16.9952ZM49.0914 11.8162L50.346 17.3219L51.9394 16.8702L47.86 0.227894H45.9298L41.8524 16.8702L43.4438 17.3219L44.6984 11.8162H49.0914V11.8162ZM48.7061 10.3076H45.0856L46.8707 2.46448H46.9191L48.7042 10.3076H48.7061ZM59.6624 1.73643H61.6411C63.281 1.73643 64.2955 2.4907 64.2955 4.67686C64.2955 6.93966 63.4262 8.02064 62.0264 8.02064H59.6605V1.73643H59.6624ZM58.0458 16.9952H59.6624V9.52918H61.4727L65.0931 17.3239L66.5413 16.5939L63.2113 9.40414C65.1899 8.70029 65.9876 6.73799 65.9876 4.67686C65.9876 1.65979 63.9838 0.227894 62.3904 0.227894H58.0458V16.9952V16.9952ZM75.0853 16.9952H76.7019V1.73643H80.1056V0.227894H71.61V1.73643H75.0853V16.9952ZM92.5352 11.8162L93.7898 17.3219L95.3832 16.8702L91.3039 0.227894H89.3736L85.2962 16.8702L86.8877 17.3219L88.1422 11.8162H92.5352V11.8162ZM92.1499 10.3076H88.5295L90.3145 2.46448H90.3629L92.148 10.3076H92.1499ZM100.62 16.9952H102.237V6.71378L102.165 2.91825L102.214 2.86783L106.992 16.9972H109.019V0.22991H107.402V10.5376L107.474 14.2847L107.426 14.3351L102.645 0.231927H100.618V16.9992L100.62 16.9952ZM116.237 1.73643V15.4867H114.934V16.9952H119.23C124.128 16.9952 124.322 12.3204 124.322 8.62365C124.322 1.71021 122.415 0.227894 119.182 0.227894H114.934V1.73643H116.237V1.73643ZM117.853 1.73643H119.567C120.992 1.73643 122.632 2.2386 122.632 8.62365C122.632 14.9583 121.135 15.4867 119.18 15.4867H117.853V1.73643V1.73643ZM133.782 0.00201676C129.485 0.00201676 129.317 5.83448 129.317 8.59945C129.317 10.7614 129.197 17.2231 133.782 17.2231C138.32 17.2231 138.246 10.711 138.246 8.59945C138.246 6.38707 138.32 0.00201676 133.782 0.00201676V0.00201676ZM133.782 1.58517C136.63 1.58517 136.556 5.43113 136.556 8.59945C136.556 11.5157 136.581 15.64 133.782 15.64C131.512 15.64 131.005 13.1251 131.005 8.59945C131.005 6.13498 130.934 1.58517 133.782 1.58517Z" fill="white"/>
</svg>
