<svg width="32" height="31" viewBox="0 0 32 31" fill="none" xmlns="http://www.w3.org/2000/svg">
<path d="M30.8026 13.1431L15.9908 29.1827L1.17893 13.1431C0.902608 12.854 0.462195 12.8624 0.195261 13.1616C-0.0650869 13.4535 -0.0650869 13.9163 0.195261 14.2081L15.4996 30.7795C15.7713 31.0736 16.2116 31.0736 16.4833 30.7795L31.7877 14.2081C32.064 13.9191 32.0716 13.4423 31.8047 13.143C31.5378 12.8438 31.0975 12.8355 30.8211 13.1245C30.8153 13.1306 30.8096 13.1367 30.804 13.143L30.8026 13.1431Z" fill="white"/>
<path d="M15.9931 20.4897L15.6315 20.1112L2.67407 6.54545C2.6519 6.52394 2.62878 6.51691 2.6087 6.51691C2.58805 6.51691 2.56416 6.52434 2.54139 6.54733L15.9931 20.4897ZM15.9931 20.4897L16.3547 20.1111M15.9931 20.4897L16.3547 20.1111M16.3547 20.1111L29.3151 6.53987L29.3151 6.53992M16.3547 20.1111L29.3151 6.53992M29.3151 6.53992L29.321 6.53359M29.3151 6.53992L29.321 6.53359M29.321 6.53359C29.344 6.50861 29.3687 6.5004 29.3898 6.50001M29.321 6.53359L29.3898 6.50001M29.4585 6.7442L29.4586 6.74425L29.4616 6.74113L29.4585 6.7442ZM29.4585 6.7442L29.4526 6.75041M29.4585 6.7442L29.4526 6.75041M29.4526 6.75041L16.0613 20.7716L16.0608 20.7722M29.4526 6.75041L16.0608 20.7722M16.0608 20.7722C16.0386 20.7956 16.0132 20.8043 15.9919 20.8043L15.9932 21.3043M16.0608 20.7722L15.9234 20.7725M15.9234 20.7725C15.9457 20.7958 15.9709 20.8044 15.9922 20.8043L15.9932 21.3043M15.9234 20.7725L15.9238 20.7729L15.5622 21.1182M15.9234 20.7725L15.5622 21.1182M15.9234 20.7725L2.53655 6.75594M15.9234 20.7725L2.53655 6.75594M15.9932 21.3043C15.8316 21.3046 15.6766 21.2377 15.5622 21.1182M15.9932 21.3043L15.5622 21.1182M15.5622 21.1182L2.17087 7.097L15.5622 21.1182ZM2.53655 6.75594C2.51352 6.72994 2.49933 6.69339 2.50002 6.65148C2.50074 6.60852 2.51688 6.57216 2.54132 6.5474L2.53655 6.75594ZM29.3898 6.50001C29.4109 6.49963 29.4354 6.5069 29.4587 6.53051M29.3898 6.50001L29.4587 6.53051M29.4587 6.53051C29.4831 6.55525 29.4993 6.59159 29.5 6.63453M29.4587 6.53051L29.5 6.63453M29.5 6.63453C29.5007 6.67745 29.4858 6.71482 29.4617 6.74099L29.5 6.63453Z" fill="white" stroke="white"/>
<path d="M15.9941 13L15.9932 12.5C15.9931 12.5 15.993 12.5 15.9929 12.5C15.9925 12.4999 15.9919 12.4998 15.991 12.4994C15.9903 12.4991 15.9892 12.4986 15.988 12.4977C15.987 12.497 15.9858 12.496 15.9845 12.4947C15.9845 12.4946 15.9845 12.4946 15.9844 12.4946L4.51121 0.589762C4.50497 0.582393 4.49974 0.570769 4.50001 0.554716C4.5003 0.537635 4.50661 0.526107 4.51325 0.519455C4.51672 0.515994 4.51887 0.515073 4.51943 0.514841C4.52028 0.51449 4.52103 0.514363 4.52174 0.514363C4.52245 0.514363 4.52319 0.51449 4.52403 0.514834C4.52451 0.515031 4.52619 0.515748 4.5289 0.518211L15.6341 12.0401L15.9941 12.4136L27.4869 0.505178C27.4935 0.511833 27.4997 0.523311 27.5 0.540312C27.5003 0.557395 27.4943 0.569521 27.4875 0.576851L27.4867 0.577703L27.4866 0.577652L27.4807 0.583794L16.0025 12.4939L16.002 12.4944C16.0009 12.4956 15.9998 12.4965 15.9989 12.4972C15.9974 12.4984 15.9961 12.499 15.9953 12.4994C15.9939 12.5 15.9932 12.5 15.9929 12.5L15.9941 13ZM15.9941 13C15.8557 13.0003 15.7228 12.9434 15.6247 12.8419M15.9941 13C16.1324 12.9996 16.2649 12.9424 16.3625 12.8408L15.6247 12.8419M15.6247 12.8419L4.14646 0.931826C3.94626 0.716785 3.95203 0.37405 4.15928 0.166318C4.36149 -0.0362887 4.68201 -0.0362887 4.88417 0.166318L15.6247 12.8419Z" fill="white" stroke="white"/>
</svg>
