<svg width="65" height="73" viewBox="0 0 65 73" fill="none" xmlns="http://www.w3.org/2000/svg">
<g filter="url(#filter0_d)">
<path d="M17.0667 17.6788L8.53573 26.3223L4.07151 21.7908L12.537 13.2393L4 4.59709L8.49513 0.0441556L16.9788 8.64714C19.8471 5.74023 22.6917 2.85785 25.5128 0C27.0331 1.53931 28.5008 3.02527 29.9927 4.53699L21.4721 13.1473L30 21.773C28.502 23.289 27.035 24.778 25.5473 26.28L17.0667 17.6788Z" fill="white"/>
<path d="M17.0667 56.1366L8.53573 64.78L4.07151 60.2486L12.537 51.6971L4 43.0549L8.49513 38.5019L16.9788 47.1049C19.8471 44.198 22.6917 41.3156 25.5128 38.4578C27.0331 39.9971 28.5008 41.483 29.9927 42.9948L21.4721 51.6051L30 60.2308C28.502 61.7468 27.035 63.2358 25.5473 64.7377L17.0667 56.1366Z" fill="white"/>
<path d="M48.0667 36.9078L39.5357 45.5513L35.0715 41.0198L43.537 32.4683L35 23.8261L39.4951 19.2732L47.9788 27.8761C50.8471 24.9692 53.6917 22.0869 56.5128 19.229C58.0331 20.7683 59.5008 22.2543 60.9927 23.766L52.4721 32.3763L61 41.002C59.502 42.518 58.035 44.0071 56.5473 45.509L48.0667 36.9078Z" fill="white"/>
</g>
<defs>
<filter id="filter0_d" x="0" y="0" width="65" height="72.78" filterUnits="userSpaceOnUse" color-interpolation-filters="sRGB">
<feFlood flood-opacity="0" result="BackgroundImageFix"/>
<feColorMatrix in="SourceAlpha" type="matrix" values="0 0 0 0 0 0 0 0 0 0 0 0 0 0 0 0 0 0 127 0"/>
<feOffset dy="4"/>
<feGaussianBlur stdDeviation="2"/>
<feColorMatrix type="matrix" values="0 0 0 0 0 0 0 0 0 0 0 0 0 0 0 0 0 0 0.25 0"/>
<feBlend mode="normal" in2="BackgroundImageFix" result="effect1_dropShadow"/>
<feBlend mode="normal" in="SourceGraphic" in2="effect1_dropShadow" result="shape"/>
</filter>
</defs>
</svg>
