<svg width="406" height="558" viewBox="0 0 406 558" fill="none" xmlns="http://www.w3.org/2000/svg">
<path d="M451.524 394.569C443.838 401.916 436.682 409.067 429.048 415.656C428.014 416.545 423.881 415.329 422.382 413.826C411.454 402.426 400.849 390.712 390.088 379.116C310.766 293.339 231.431 207.562 152.083 121.785C150.623 120.216 149.357 118.49 147.445 116.15C155.196 108.868 162.598 101.665 170.4 94.9325C171.265 94.1873 175.115 95.6123 176.51 97.0765C189.169 110.411 201.583 123.981 214.074 137.486L447.184 389.653C448.346 390.922 449.47 392.229 451.524 394.569Z" fill="#F7F7F7" fill-opacity="0.14"/>
<path d="M352.551 488.381L327.918 511.782C325.748 509.756 323.926 508.279 322.35 506.553C232.565 409.507 142.762 312.465 52.942 215.428C49.3509 211.506 48.9247 208.996 53.1874 205.427C58.5168 201.013 63.5446 196.239 68.2364 191.138C72.1116 186.85 74.5401 187.124 78.4283 191.373C108.664 224.422 139.042 257.349 169.562 290.154C229.215 354.648 288.877 419.142 348.547 483.636C349.71 484.891 350.756 486.251 352.551 488.381Z" fill="#F7F7F7" fill-opacity="0.14"/>
<path d="M550.99 300.56L526.046 323.87C518.967 316.313 512.327 309.28 505.752 302.168C421.65 211.257 337.562 120.338 253.486 29.4097C246.73 22.1149 246.769 22.0757 253.873 15.3038C258.252 11.1204 262.825 7.13308 266.959 2.71435C270.446 -1.0115 272.901 -0.867697 276.388 2.93659C308.915 38.3126 341.536 73.6101 374.252 108.829C431.304 170.482 488.352 232.144 545.396 293.814C547.269 295.828 548.923 298.05 550.99 300.56Z" fill="#F7F7F7" fill-opacity="0.14"/>
<path d="M302.831 535.536C295.222 542.779 287.976 549.825 280.561 556.689C277.086 559.905 275.174 556.453 273.224 554.349C249.533 528.795 225.851 503.207 202.177 477.583C136.324 406.343 70.4615 335.151 4.5907 264.007C-1.5968 257.327 -1.63555 257.353 5.12032 250.934C9.21087 247.065 13.3143 243.212 17.4307 239.378C23.7474 233.508 23.7991 233.482 29.4699 239.6C56.4072 268.683 83.3446 297.771 110.282 326.863C172.596 394.277 234.902 461.699 297.199 529.131C298.878 531 300.531 532.948 302.831 535.536Z" fill="#F7F7F7" fill-opacity="0.14"/>
<path d="M401.676 442.051L377.042 465.177C375.092 463.36 373.451 462.026 372.03 460.484C282.176 363.42 192.304 266.365 102.415 169.319C98.3075 164.887 98.2688 162.141 102.842 158.337C107.809 154.166 112.5 149.668 116.883 144.872C120.862 140.571 123.613 140.519 127.772 145.068C157.134 177.176 186.754 209.126 216.296 241.012C276.26 305.855 336.227 370.702 396.199 435.553C397.93 437.396 399.506 439.462 401.676 442.051Z" fill="#F7F7F7" fill-opacity="0.14"/>
<path d="M475.655 371.691C472.994 368.436 470.824 365.442 468.331 362.762C379.63 266.753 290.878 170.796 202.074 74.8914C198.031 70.5119 197.669 67.8319 202.41 63.9753C207.635 59.7828 212.512 55.1657 216.994 50.17C220.986 45.686 223.375 46.4442 227.16 50.5753C266.395 93.2809 305.742 135.886 345.201 178.391C395.321 232.532 445.458 286.672 495.612 340.812C501.606 347.283 501.58 347.27 495.031 353.415C488.908 359.141 482.824 364.919 475.655 371.691Z" fill="#F7F7F7" fill-opacity="0.14"/>
</svg>
