<svg width="286" height="282" viewBox="0 0 286 282" fill="none" xmlns="http://www.w3.org/2000/svg">
<g filter="url(#filter0_d)">
<path d="M173.032 8C175.45 13.9451 177.697 19.4248 179.912 24.9177C183.127 32.8712 186.332 40.8313 189.525 48.7981C192.62 56.5653 195.629 64.3658 198.764 72.1198C200.367 76.1098 202.233 79.9602 203.83 83.9369C205.63 88.4191 207.201 92.9877 208.975 97.4764C212.168 105.556 215.454 113.603 218.667 121.676C222.445 131.166 226.158 140.688 229.943 150.178C233.038 157.945 236.211 165.673 239.313 173.453C242.414 181.234 245.522 189.161 248.643 197.014C251.649 204.578 254.669 212.137 257.705 219.691C260.852 227.531 263.98 235.372 267.193 243.186C268.941 247.448 270.945 251.611 272.667 255.887C274.349 260.057 275.794 264.326 277.398 268.522C278.62 271.708 280.026 274.813 281.143 278.039C281.505 279.255 281.505 280.553 281.143 281.769C281.051 282.089 279.172 282.029 278.134 281.876C270.36 280.739 262.587 279.575 254.82 278.338C249.76 277.527 244.721 276.536 239.661 275.678C227.511 273.683 215.349 271.748 203.192 269.693C192.679 267.937 182.166 266.082 171.613 264.286C166.763 263.455 161.914 262.611 157.058 261.866C146.262 260.216 135.44 258.727 124.657 256.985C114.104 255.309 103.591 253.274 93.0115 251.551C82.2484 249.796 71.4393 248.333 60.6761 246.597C50.1101 244.888 39.5704 242.96 29.0044 241.197C22.9723 240.193 16.9139 239.309 10.8621 238.391C9.35078 238.158 7.7869 238.145 6.31502 237.766C4.04806 237.187 3.16756 236.197 4.94827 233.809C18.0507 216.266 31.0895 198.677 44.0649 181.041C59.6905 159.889 75.3073 138.731 90.9154 117.566C108.438 93.8655 126 70.1802 143.601 46.5104C152.439 34.5404 161.218 22.5703 170.069 10.6534C170.745 9.74231 171.784 9.09726 173.032 8ZM171.205 19.1521C170.095 20.3824 169.628 20.8213 169.234 21.3267C158.396 35.8903 147.565 50.4495 136.741 65.0042C113.388 96.5565 90.0524 128.144 66.7345 159.767C49.6107 182.95 32.4826 206.127 15.35 229.3C13.3787 232 13.7204 233.29 16.8613 233.809C26.4548 235.438 36.0615 236.948 45.6682 238.464C56.681 240.193 67.7201 241.756 78.7001 243.671C81.0853 244.09 82.5309 243.399 83.7663 241.736C89.6801 233.809 95.4888 225.836 101.35 217.882C110.922 204.888 120.504 191.896 130.098 178.906C139.376 166.369 148.671 153.851 157.985 141.353C165.305 131.48 172.607 121.587 179.892 111.674C185.74 103.694 191.575 95.7142 197.285 87.6743C197.558 87.1449 197.717 86.5635 197.753 85.9678C197.789 85.3722 197.702 84.7754 197.495 84.2162C194.657 76.8214 191.582 69.5063 188.69 62.1447C184.242 50.8862 179.885 39.5944 175.417 28.3558C174.254 25.4364 172.809 22.6368 171.205 19.1521ZM136.905 253.121C139.915 253.972 141.275 251.897 142.642 250.055C154.062 234.618 165.462 219.164 176.843 203.691C187.357 189.504 197.87 175.318 208.383 161.131C212.234 155.93 216.111 150.743 219.856 145.463C220.481 144.579 221.046 143.049 220.717 142.171C218.049 135.069 215.171 128.053 212.339 121.011C209.225 113.257 206.117 105.503 202.943 97.769C202.568 96.8447 201.74 95.3351 201.274 95.3883C200.159 95.601 199.159 96.2181 198.461 97.124C194.263 102.617 190.182 108.196 186.075 113.749C174.458 129.461 162.849 145.177 151.249 160.898C139.816 176.335 128.365 191.752 116.897 207.149C108.858 217.975 100.824 228.815 92.7947 239.668C89.2004 244.522 89.7786 245.786 95.9684 246.684C96.4021 246.743 96.8358 246.777 97.2826 246.85C104.826 248.08 112.396 249.337 119.913 250.534C125.616 251.445 131.346 252.276 136.905 253.121ZM147.254 254.451C148.21 254.804 149.184 255.104 150.172 255.349C161.914 257.344 173.669 259.159 185.385 261.267C188.362 261.799 190.281 261.147 192.068 258.667C199.835 247.894 207.726 237.221 215.611 226.541C223.497 215.861 231.592 205.061 239.438 194.215C240.174 193.191 240.187 191.249 239.871 189.899C239.378 187.777 238.321 185.796 237.493 183.754C233.616 174.178 229.752 164.569 225.81 155.019C225.402 154.022 224.548 153.217 223.897 152.326C222.991 152.991 221.867 153.503 221.223 154.374C212.076 166.717 203.035 179.139 193.895 191.488C181.949 207.621 169.97 223.732 157.958 239.821C154.45 244.549 150.987 249.324 147.254 254.424V254.451ZM243.722 200.093C236.822 206.743 198.448 259.731 198.034 263.003C207.391 264.599 216.735 266.248 226.112 267.691C226.741 267.715 227.368 267.597 227.948 267.346C228.527 267.096 229.045 266.718 229.463 266.241C237.519 255.548 245.371 244.695 253.447 234.022C255.569 231.222 255.451 228.589 254.268 225.65C252.297 220.755 250.365 215.841 248.354 210.96C246.915 207.428 245.378 203.93 243.722 200.067V200.093ZM258.053 238.019C256.292 240.479 254.991 242.368 253.624 244.203C248.258 251.434 242.876 258.652 237.479 265.856C236.198 267.571 235.666 269.214 238.393 269.726C243.328 270.644 248.295 271.482 253.289 271.967C254.603 272.093 256.41 271.156 257.324 270.105C259.906 267.133 262.206 263.894 264.492 260.669C265.846 258.753 266.681 256.798 265.537 254.225C263.671 250.015 262.252 245.58 260.524 241.31C260.096 240.273 259.15 239.455 258.053 238.019ZM262.935 273.803C266.359 274.115 268.895 274.401 271.444 274.521C272.022 274.395 272.545 274.085 272.936 273.636C271.878 271.116 270.741 268.622 269.486 266.202C268.727 266.25 268.002 266.536 267.41 267.019C265.991 268.915 264.775 270.97 262.935 273.809V273.803Z" fill="black"/>
</g>
<defs>
<filter id="filter0_d" x="0" y="0" width="285.414" height="282" filterUnits="userSpaceOnUse" color-interpolation-filters="sRGB">
<feFlood flood-opacity="0" result="BackgroundImageFix"/>
<feColorMatrix in="SourceAlpha" type="matrix" values="0 0 0 0 0 0 0 0 0 0 0 0 0 0 0 0 0 0 127 0"/>
<feOffset dy="-4"/>
<feGaussianBlur stdDeviation="2"/>
<feColorMatrix type="matrix" values="0 0 0 0 0 0 0 0 0 0 0 0 0 0 0 0 0 0 0.25 0"/>
<feBlend mode="normal" in2="BackgroundImageFix" result="effect1_dropShadow"/>
<feBlend mode="normal" in="SourceGraphic" in2="effect1_dropShadow" result="shape"/>
</filter>
</defs>
</svg>
