<svg width="128" height="103" viewBox="0 0 128 103" fill="none" xmlns="http://www.w3.org/2000/svg">
<g filter="url(#filter0_d)">
<path d="M161.184 0.0065124C162.996 1.50193 164.172 3.22867 163.35 5.76012C162.791 7.4836 161.621 8.63367 159.886 8.69231C156.19 8.7868 153.632 10.7155 151.276 13.3545C148.815 16.114 146.417 19.069 143.483 21.2258C137.114 25.9075 128.113 25.0279 122.38 19.5154C120.41 17.5997 118.765 15.3647 116.837 13.4262C115.413 11.9992 113.925 10.4614 112.167 9.58826C108.549 7.78334 105.258 8.97902 102.559 11.7581C100.348 14.0387 98.4163 16.5897 96.1861 18.8442C89.0841 26.0118 78.4504 26.0118 71.3645 18.8051C69.1407 16.5473 67.2061 13.9963 65.0016 11.7157C62.2926 8.91386 59.0212 7.86805 55.3609 9.59152C53.9534 10.2431 52.6968 11.3867 51.5817 12.5237C49.8496 14.2863 48.3682 16.2997 46.6618 18.0916C38.7628 26.3832 27.9234 26.2855 20.1273 17.857C18.2249 15.8013 16.4702 13.6217 14.571 11.5561C13.0111 9.87754 10.8664 8.88273 8.59378 8.78354C6.30893 8.62715 4.73749 7.56505 4.23939 5.85135C3.59667 3.62614 4.23939 1.86682 6.27358 0.371406C6.39016 0.264557 6.49766 0.14794 6.59494 0.0227984H12.3794C13.2695 0.368145 14.1661 0.693948 15.0434 1.06536C18.8129 2.652 21.5091 5.55162 24.08 8.6239C25.3244 10.179 26.6822 11.6373 28.1419 12.9863C31.378 15.8469 35.7292 15.8501 38.9331 12.9668C40.5977 11.4649 42.0599 9.70881 43.5285 8.00813C45.9676 5.17368 48.5256 2.51517 52.0445 1.04581L54.4932 0.0065124H62.8485C63.0124 0.14009 63.1699 0.348605 63.3402 0.397475C67.8649 1.57361 71.0335 4.63286 73.945 8.11891C75.3152 9.84529 76.8093 11.4668 78.4151 12.9701C80.6228 14.9509 83.2354 15.5406 86.1662 14.687C88.7628 13.9344 90.3021 11.9373 92.0503 10.1258C94.4315 7.65953 96.6778 5.02381 99.2936 2.84422C100.881 1.52147 103.054 0.922011 104.962 0H112.996C113.152 0.145283 113.33 0.264095 113.523 0.351859C118.164 1.55731 121.397 4.69802 124.343 8.29484C125.692 9.97016 127.157 11.5456 128.727 13.0092C130.18 14.3634 132.079 15.1187 134.053 15.1272C136.026 15.1356 137.932 14.3965 139.396 13.0548C141.057 11.5496 142.423 9.71533 144.007 8.11565C145.887 6.21299 147.716 4.20606 149.83 2.60639C151.363 1.44329 153.32 0.853593 155.088 0L161.184 0.0065124Z" fill="black"/>
<path d="M134.424 47.4848C128.444 47.3675 123.913 44.9208 120.227 40.7018C118.598 38.8383 117.058 36.8835 115.342 35.1014C111.409 31.0257 106.418 31.0323 102.488 35.121C100.775 36.9031 99.2391 38.8643 97.613 40.7344C94.017 44.8752 89.5791 47.3676 84.0646 47.449C78.2802 47.5337 73.6687 44.9599 69.9249 40.6334C68.302 38.7633 66.7434 36.8216 65.0242 35.0493C61.1679 31.0648 56.1515 31.0518 52.2695 35.0493C50.2867 37.092 48.5835 39.4149 46.6104 41.4707C38.7564 49.6155 27.8656 49.4754 20.1659 41.1449C18.3759 39.1901 16.6888 37.1702 14.9214 35.2122C13.1539 33.2542 11.1326 32.1758 8.46208 32.1302C5.7916 32.0846 3.98557 29.9799 4.07876 27.3475C4.17196 24.7151 5.9105 23.1513 8.75772 23.1122C14.1019 23.0536 18.3277 25.4221 21.8273 29.3251C23.3731 31.0518 24.9124 32.785 26.3617 34.5932C30.218 39.4149 36.7994 39.4019 40.4179 34.9027C42.1757 32.7231 44.0395 30.6218 45.9548 28.5823C50.5952 23.627 56.4214 22.2814 62.8486 23.5064C65.7637 24.0807 68.4302 25.561 70.4776 27.7417C72.7464 30.1135 74.8609 32.6286 77.0494 35.0786C79.3985 37.7078 82.3293 38.8318 85.726 37.9782C87.2129 37.5925 88.5828 36.8404 89.714 35.7888C91.7643 33.8341 93.5703 31.5731 95.4149 29.4065C102.719 20.887 115.384 20.9359 122.579 29.5401C124.138 31.3971 125.677 33.277 127.335 35.0428C131.442 39.4149 136.709 39.4312 140.832 35.0656C143.05 32.7199 145.045 30.1559 147.314 27.8655C150.435 24.7151 154.281 23.1415 158.719 23.122C161.65 23.122 163.588 24.8194 163.639 27.5072C163.687 30.0321 161.759 32.1009 159.037 32.1465C156.486 32.1921 154.506 33.2867 152.835 35.0786C150.409 37.685 148.153 40.4379 145.63 42.927C142.446 46.0448 138.441 47.2894 134.424 47.4848Z" fill="black"/>
<path d="M134.171 70.5869C128.341 70.8085 123.887 68.1011 120.166 63.8592C118.672 62.1553 117.168 60.4677 115.721 58.7247C112.106 54.3623 105.759 54.3786 102.253 58.6367C100.852 60.3439 99.3226 61.9403 97.9086 63.6409C93.1429 69.375 87.1207 71.6295 79.8644 70.2481C76.7407 69.6313 73.8867 68.0359 71.7051 65.6869C69.626 63.5041 67.6432 61.2235 65.6668 58.943C63.2856 56.1867 60.3548 54.8705 56.8038 55.7339C55.3731 56.1063 54.0509 56.8201 52.9475 57.8157C51.209 59.3991 49.7339 61.2789 48.1818 63.0741C45.7266 65.9215 43.0626 68.4953 39.3991 69.6454C32.6924 71.75 26.5994 70.7205 21.4545 65.6609C19.6164 63.856 17.9421 61.8719 16.2807 59.891C14.1983 57.4117 11.8716 55.5547 8.45561 55.3885C6.4889 55.2908 4.79535 54.3688 4.25226 52.2348C3.7638 50.3256 3.97589 48.3774 5.79477 47.3479C7.03958 46.648 8.45066 46.3098 9.8728 46.3705C14.0861 46.639 18.0373 48.5363 20.9114 51.6712C23.0838 53.9909 25.1212 56.4376 27.3 58.7507C28.8457 60.3993 30.6871 61.4353 33.0619 61.5461C35.9863 61.6829 38.2679 60.5328 40.1736 58.4575C42.2495 56.1997 44.1488 53.766 46.3115 51.6158C53.4103 44.5069 63.7098 44.4483 70.8921 51.4497C72.8203 53.323 74.4753 55.47 76.2845 57.4638C78.0937 59.4577 79.9223 61.2529 82.7952 61.5298C85.9445 61.8328 88.4479 60.6762 90.5238 58.3989C92.5998 56.1216 94.5729 53.626 96.7839 51.4333C103.77 44.5037 114.083 44.5069 121.114 51.4333C123.103 53.3881 124.854 55.597 126.712 57.6952C128.826 60.0767 131.211 61.7839 134.62 61.5689C136.671 61.4759 138.608 60.5857 140.029 59.0831C142.008 57.0338 143.85 54.8477 145.743 52.7072C148.853 49.1821 152.655 47.009 157.328 46.3705C160.541 45.9307 162.958 47.2697 163.527 50.0389C163.745 51.104 163.558 52.2133 163.005 53.1452C162.451 54.0771 161.572 54.763 160.541 55.066C160.245 55.1938 159.932 55.2772 159.612 55.3136C155.435 55.2549 152.925 57.9949 150.489 60.8945C147.918 63.9472 145.489 67.2345 141.713 68.8244C139.338 69.8245 136.761 70.3328 134.273 71.0593C134.238 70.9062 134.206 70.7466 134.171 70.5869Z" fill="black"/>
<path d="M134.036 93.8685C128.618 94.0542 124.343 91.6726 120.773 87.7566C118.925 85.7236 117.206 83.5668 115.31 81.5893C112.707 78.8754 109.526 77.7318 105.991 79.3087C104.384 80.0157 102.954 81.296 101.685 82.5666C99.3226 84.9189 97.3237 87.6621 94.8461 89.8677C88.4189 95.5985 78.3829 95.3476 72.1679 89.3953C70.153 87.4666 68.4948 85.16 66.512 83.2052C65.0466 81.7489 63.4912 80.1851 61.6723 79.3413C58.086 77.6797 54.8596 78.9275 52.2277 81.6968C50.0392 83.9969 48.0243 86.4697 45.8455 88.7796C39.2898 95.7288 27.8495 95.7092 21.2199 88.7796C19.0218 86.499 16.9876 84.0425 14.8795 81.6675C13.1795 79.7551 11.0232 78.8461 8.52949 78.592C5.41232 78.2662 3.92764 76.6665 4.07547 73.8093C4.20723 71.242 6.13538 69.574 8.99224 69.6065C15.1687 69.714 19.6163 73.0176 23.3987 77.6048C24.8368 79.419 26.3947 81.1323 28.0616 82.7328C31.2462 85.665 35.6456 85.779 38.8496 82.8533C41.0991 80.7976 43.0272 78.3704 45.0807 76.0899C48.8695 71.8773 53.4135 69.4241 59.1818 69.574C64.4971 69.7238 68.7101 72.1021 72.2096 75.9791C73.8357 77.7775 75.3397 79.6899 76.9818 81.472C81.2269 86.0722 86.2015 86.1211 90.5013 81.5893C92.1659 79.8332 93.6795 77.9273 95.296 76.1224C98.7345 72.2813 102.845 69.815 108.096 69.5837C113.983 69.3231 118.662 71.7535 122.557 76.054C124.539 78.2531 126.381 80.6151 128.531 82.622C131.976 85.8572 136.565 85.7464 139.923 82.4168C141.983 80.3773 143.779 78.0674 145.743 75.9204C149.39 71.9262 153.777 69.4827 159.278 69.6C160.417 69.6112 161.507 70.0686 162.32 70.8763C163.134 71.6839 163.607 72.7793 163.642 73.9331C163.69 74.5065 163.622 75.0838 163.443 75.6298C163.263 76.1757 162.976 76.6788 162.598 77.1084C162.22 77.538 161.76 77.885 161.246 78.1283C160.731 78.3716 160.173 78.5061 159.606 78.5235C156.071 78.7451 153.5 80.5109 151.318 83.1694C149.747 85.0851 148.137 86.9747 146.408 88.7405C142.866 92.36 139.065 93.8717 134.036 93.8685Z" fill="black"/>
</g>
<defs>
<filter id="filter0_d" x="0" y="0" width="167.657" height="102.017" filterUnits="userSpaceOnUse" color-interpolation-filters="sRGB">
<feFlood flood-opacity="0" result="BackgroundImageFix"/>
<feColorMatrix in="SourceAlpha" type="matrix" values="0 0 0 0 0 0 0 0 0 0 0 0 0 0 0 0 0 0 127 0"/>
<feOffset dy="4"/>
<feGaussianBlur stdDeviation="2"/>
<feColorMatrix type="matrix" values="0 0 0 0 0 0 0 0 0 0 0 0 0 0 0 0 0 0 0.25 0"/>
<feBlend mode="normal" in2="BackgroundImageFix" result="effect1_dropShadow"/>
<feBlend mode="normal" in="SourceGraphic" in2="effect1_dropShadow" result="shape"/>
</filter>
</defs>
</svg>
