<svg width="178" height="178" viewBox="0 0 178 178" fill="none" xmlns="http://www.w3.org/2000/svg">
<g filter="url(#filter0_dd)">
<rect x="13" y="13" width="152" height="152" rx="5" fill="white"/>
</g>
<g clip-path="url(#clip0)">
<path d="M58.25 41H65.75C68.645 41 71 43.355 71 46.25V80.75C71 83.645 68.645 86 65.75 86H58.25C55.355 86 53 83.645 53 80.75V46.25C53 43.355 55.355 41 58.25 41Z" fill="#C24245"/>
<path d="M91.343 107.75C88.343 107.75 86.843 106.25 86.843 98.75C86.843 91.622 79.94 85.886 75.5 82.931V45.767C80.303 43.544 89.918 40.25 104.843 40.25H109.643C115.493 40.25 120.473 44.45 121.463 50.21L124.823 69.71C126.083 77.06 120.443 83.75 113.003 83.75H98.843C98.843 83.75 101.093 88.25 101.093 95.75C101.093 104.75 94.343 107.75 91.343 107.75Z" fill="#E56467"/>
</g>
<path d="M84.2734 135H81.1953L76.2266 126.359H76.1562C76.2552 127.885 76.3047 128.974 76.3047 129.625V135H74.1406V123.578H77.1953L82.1562 132.133H82.2109C82.1328 130.648 82.0938 129.599 82.0938 128.984V123.578H84.2734V135ZM92.5156 135L92.0547 133.812H91.9922C91.5911 134.318 91.1771 134.669 90.75 134.867C90.3281 135.06 89.776 135.156 89.0938 135.156C88.2552 135.156 87.5938 134.917 87.1094 134.438C86.6302 133.958 86.3906 133.276 86.3906 132.391C86.3906 131.464 86.7135 130.781 87.3594 130.344C88.0104 129.901 88.9896 129.656 90.2969 129.609L91.8125 129.562V129.18C91.8125 128.294 91.3594 127.852 90.4531 127.852C89.7552 127.852 88.9349 128.062 87.9922 128.484L87.2031 126.875C88.2083 126.349 89.3229 126.086 90.5469 126.086C91.7188 126.086 92.6172 126.341 93.2422 126.852C93.8672 127.362 94.1797 128.138 94.1797 129.18V135H92.5156ZM91.8125 130.953L90.8906 130.984C90.1979 131.005 89.6823 131.13 89.3438 131.359C89.0052 131.589 88.8359 131.938 88.8359 132.406C88.8359 133.078 89.2214 133.414 89.9922 133.414C90.5443 133.414 90.9844 133.255 91.3125 132.938C91.6458 132.62 91.8125 132.198 91.8125 131.672V130.953ZM89.3672 124.484C89.2057 124.484 89.0495 124.555 88.8984 124.695C88.7526 124.831 88.6458 125.039 88.5781 125.32H87.4141C87.4714 124.565 87.6849 123.974 88.0547 123.547C88.4297 123.12 88.9245 122.906 89.5391 122.906C89.7526 122.906 89.9609 122.951 90.1641 123.039C90.3724 123.122 90.5755 123.216 90.7734 123.32C90.9766 123.419 91.1745 123.51 91.3672 123.594C91.5599 123.677 91.75 123.719 91.9375 123.719C92.099 123.719 92.2526 123.651 92.3984 123.516C92.5495 123.38 92.6589 123.172 92.7266 122.891H93.8906C93.8333 123.646 93.6146 124.237 93.2344 124.664C92.8594 125.091 92.3698 125.305 91.7656 125.305C91.5521 125.305 91.3411 125.263 91.1328 125.18C90.9297 125.091 90.7266 124.997 90.5234 124.898C90.3255 124.794 90.1302 124.701 89.9375 124.617C89.7448 124.529 89.5547 124.484 89.3672 124.484ZM98.5391 130.617C98.5391 131.482 98.6797 132.135 98.9609 132.578C99.2474 133.021 99.7109 133.242 100.352 133.242C100.987 133.242 101.443 133.023 101.719 132.586C102 132.143 102.141 131.487 102.141 130.617C102.141 129.753 102 129.104 101.719 128.672C101.438 128.24 100.977 128.023 100.336 128.023C99.7005 128.023 99.2422 128.24 98.9609 128.672C98.6797 129.099 98.5391 129.747 98.5391 130.617ZM104.578 130.617C104.578 132.039 104.203 133.151 103.453 133.953C102.703 134.755 101.659 135.156 100.32 135.156C99.4818 135.156 98.7422 134.974 98.1016 134.609C97.4609 134.24 96.9688 133.711 96.625 133.023C96.2812 132.336 96.1094 131.534 96.1094 130.617C96.1094 129.19 96.4818 128.081 97.2266 127.289C97.9714 126.497 99.0182 126.102 100.367 126.102C101.206 126.102 101.945 126.284 102.586 126.648C103.227 127.013 103.719 127.536 104.062 128.219C104.406 128.901 104.578 129.701 104.578 130.617Z" fill="#525252"/>
<defs>
<filter id="filter0_dd" x="0" y="0" width="178" height="178" filterUnits="userSpaceOnUse" color-interpolation-filters="sRGB">
<feFlood flood-opacity="0" result="BackgroundImageFix"/>
<feColorMatrix in="SourceAlpha" type="matrix" values="0 0 0 0 0 0 0 0 0 0 0 0 0 0 0 0 0 0 127 0"/>
<feOffset dx="5" dy="5"/>
<feGaussianBlur stdDeviation="4"/>
<feColorMatrix type="matrix" values="0 0 0 0 0 0 0 0 0 0 0 0 0 0 0 0 0 0 0.25 0"/>
<feBlend mode="normal" in2="BackgroundImageFix" result="effect1_dropShadow"/>
<feColorMatrix in="SourceAlpha" type="matrix" values="0 0 0 0 0 0 0 0 0 0 0 0 0 0 0 0 0 0 127 0"/>
<feOffset dx="-5" dy="-5"/>
<feGaussianBlur stdDeviation="4"/>
<feColorMatrix type="matrix" values="0 0 0 0 0.5125 0 0 0 0 0.5125 0 0 0 0 0.5125 0 0 0 0.2 0"/>
<feBlend mode="normal" in2="effect1_dropShadow" result="effect2_dropShadow"/>
<feBlend mode="normal" in="SourceGraphic" in2="effect2_dropShadow" result="shape"/>
</filter>
<clipPath id="clip0">
<rect width="72" height="72" fill="white" transform="matrix(1 0 0 -1 53 110)"/>
</clipPath>
</defs>
</svg>
