<svg width="178" height="178" viewBox="0 0 178 178" fill="none" xmlns="http://www.w3.org/2000/svg">
<g filter="url(#filter0_dd)">
<rect x="13" y="13" width="152" height="152" rx="5" fill="white"/>
</g>
<g clip-path="url(#clip0)">
<path d="M58.25 107H65.75C68.645 107 71 104.645 71 101.75V67.25C71 64.355 68.645 62 65.75 62H58.25C55.355 62 53 64.355 53 67.25V101.75C53 104.645 55.355 107 58.25 107Z" fill="#6DAE90"/>
<path d="M91.343 40.25C88.343 40.25 86.843 41.75 86.843 49.25C86.843 56.378 79.94 62.114 75.5 65.069V102.233C80.303 104.456 89.918 107.75 104.843 107.75H109.643C115.493 107.75 120.473 103.55 121.463 97.79L124.823 78.29C126.083 70.94 120.443 64.25 113.003 64.25H98.843C98.843 64.25 101.093 59.75 101.093 52.25C101.093 43.25 94.343 40.25 91.343 40.25Z" fill="#81CAA8"/>
</g>
<path d="M82.4688 131.828C82.4688 132.859 82.0964 133.672 81.3516 134.266C80.612 134.859 79.5807 135.156 78.2578 135.156C77.0391 135.156 75.9609 134.927 75.0234 134.469V132.219C75.7943 132.562 76.4453 132.805 76.9766 132.945C77.513 133.086 78.0026 133.156 78.4453 133.156C78.9766 133.156 79.3828 133.055 79.6641 132.852C79.9505 132.648 80.0938 132.346 80.0938 131.945C80.0938 131.721 80.0312 131.523 79.9062 131.352C79.7812 131.174 79.5964 131.005 79.3516 130.844C79.112 130.682 78.6198 130.424 77.875 130.07C77.1771 129.742 76.6536 129.427 76.3047 129.125C75.9557 128.823 75.6771 128.471 75.4688 128.07C75.2604 127.669 75.1562 127.201 75.1562 126.664C75.1562 125.654 75.4974 124.859 76.1797 124.281C76.8672 123.703 77.8151 123.414 79.0234 123.414C79.6172 123.414 80.1823 123.484 80.7188 123.625C81.2604 123.766 81.8255 123.964 82.4141 124.219L81.6328 126.102C81.0234 125.852 80.5182 125.677 80.1172 125.578C79.7214 125.479 79.3307 125.43 78.9453 125.43C78.487 125.43 78.1354 125.536 77.8906 125.75C77.6458 125.964 77.5234 126.242 77.5234 126.586C77.5234 126.799 77.5729 126.987 77.6719 127.148C77.7708 127.305 77.9271 127.458 78.1406 127.609C78.3594 127.755 78.8724 128.021 79.6797 128.406C80.7474 128.917 81.4792 129.43 81.875 129.945C82.2708 130.456 82.4688 131.083 82.4688 131.828ZM84.25 124.008C84.25 123.232 84.6823 122.844 85.5469 122.844C86.4115 122.844 86.8438 123.232 86.8438 124.008C86.8438 124.378 86.7344 124.667 86.5156 124.875C86.3021 125.078 85.9792 125.18 85.5469 125.18C84.6823 125.18 84.25 124.789 84.25 124.008ZM86.7344 135H84.3516V126.266H86.7344V135ZM97.0625 135H94.6797V129.898C94.6797 129.268 94.5729 128.797 94.3594 128.484C94.151 128.167 93.8203 128.008 93.3672 128.008C92.7578 128.008 92.3151 128.232 92.0391 128.68C91.763 129.128 91.625 129.865 91.625 130.891V135H89.2422V126.266H91.0625L91.3828 127.383H91.5156C91.75 126.982 92.0885 126.669 92.5312 126.445C92.974 126.216 93.4818 126.102 94.0547 126.102C95.362 126.102 96.2474 126.529 96.7109 127.383H96.9219C97.1562 126.977 97.5 126.661 97.9531 126.438C98.4115 126.214 98.9271 126.102 99.5 126.102C100.49 126.102 101.237 126.357 101.742 126.867C102.253 127.372 102.508 128.185 102.508 129.305V135H100.117V129.898C100.117 129.268 100.01 128.797 99.7969 128.484C99.5885 128.167 99.2578 128.008 98.8047 128.008C98.2214 128.008 97.7839 128.216 97.4922 128.633C97.2057 129.049 97.0625 129.711 97.0625 130.617V135Z" fill="#525252"/>
<defs>
<filter id="filter0_dd" x="0" y="0" width="178" height="178" filterUnits="userSpaceOnUse" color-interpolation-filters="sRGB">
<feFlood flood-opacity="0" result="BackgroundImageFix"/>
<feColorMatrix in="SourceAlpha" type="matrix" values="0 0 0 0 0 0 0 0 0 0 0 0 0 0 0 0 0 0 127 0"/>
<feOffset dx="5" dy="5"/>
<feGaussianBlur stdDeviation="4"/>
<feColorMatrix type="matrix" values="0 0 0 0 0 0 0 0 0 0 0 0 0 0 0 0 0 0 0.25 0"/>
<feBlend mode="normal" in2="BackgroundImageFix" result="effect1_dropShadow"/>
<feColorMatrix in="SourceAlpha" type="matrix" values="0 0 0 0 0 0 0 0 0 0 0 0 0 0 0 0 0 0 127 0"/>
<feOffset dx="-5" dy="-5"/>
<feGaussianBlur stdDeviation="4"/>
<feColorMatrix type="matrix" values="0 0 0 0 0.5125 0 0 0 0 0.5125 0 0 0 0 0.5125 0 0 0 0.2 0"/>
<feBlend mode="normal" in2="effect1_dropShadow" result="effect2_dropShadow"/>
<feBlend mode="normal" in="SourceGraphic" in2="effect2_dropShadow" result="shape"/>
</filter>
<clipPath id="clip0">
<rect width="72" height="72" fill="white" transform="translate(53 38)"/>
</clipPath>
</defs>
</svg>
