<svg width="230" height="152" viewBox="0 0 230 152" fill="none" xmlns="http://www.w3.org/2000/svg">
<path opacity="0.1" d="M71.0369 7.93273C78.8432 0.972843 91.09 -0.446399 102.24 0.10864C137.259 1.84922 168.873 18.773 196.207 37.9145C206.107 44.8428 215.851 52.3115 222.276 61.8542C235.355 81.2806 231.476 108.193 213.278 124.196C207.092 129.639 199.589 133.814 191.878 137.515C178.184 144.088 163.411 149.375 147.862 150.879C136.78 151.951 125.561 151.079 114.545 149.584C83.7628 145.404 53.5471 136.164 28.2145 120.355C17.1058 113.419 6.63664 104.799 2.0599 93.5766C-2.51685 82.3541 0.450013 68.1617 11.7922 61.5085C16.4832 58.7626 22.0911 57.521 27.5822 56.3574C35.6632 54.6533 43.8756 52.9493 51.1711 49.4681C58.7099 45.8701 67.6251 38.9078 66.1343 30.94C64.5317 22.3954 63.255 14.8853 71.0369 7.93273Z" fill="#81CAA8"/>
<path d="M191.114 21.2124L178.889 8.94796C178.289 8.33659 177.574 7.8497 176.785 7.51538C175.996 7.18107 175.149 7.00596 174.292 7.00015C173.434 6.99434 172.585 7.15796 171.791 7.48155C170.998 7.80514 170.276 8.28231 169.669 8.8855L92.8967 84.822L60.4358 52.1873C59.2305 50.9677 57.5889 50.2756 55.8722 50.2634C54.1554 50.2511 52.5041 50.9196 51.2814 52.1218L38.9244 64.3178C37.7032 65.5345 37.0119 67.1821 37.0002 68.9038C36.9884 70.6254 37.6573 72.2823 38.8618 73.5154L88.1585 123.079C89.3777 124.297 91.0292 124.988 92.755 125C94.4809 125.012 96.142 124.345 97.3785 123.144L191.046 30.407C191.659 29.8095 192.147 29.0969 192.482 28.3103C192.818 27.5238 192.993 26.6787 193 25.8239C193.006 24.9692 192.843 24.1216 192.519 23.3301C192.196 22.5386 191.718 21.8189 191.114 21.2124Z" fill="#81CAA8"/>
<path d="M73.7553 54.346C68.7649 54.346 63.8865 52.9515 59.7371 50.3389C55.5877 47.7264 52.3537 44.013 50.4439 39.6685C48.5341 35.3239 48.0344 30.5433 49.008 25.9311C49.9816 21.3189 52.3847 17.0824 55.9135 13.7572C59.4422 10.432 63.9381 8.16752 68.8327 7.25009C73.7272 6.33266 78.8005 6.8035 83.4111 8.60307C88.0217 10.4026 91.9624 13.4501 94.7349 17.3601C97.5075 21.2701 98.9873 25.867 98.9873 30.5695C98.9798 36.8732 96.319 42.9167 91.5887 47.3741C86.8584 51.8315 80.4449 54.3388 73.7553 54.346ZM73.7553 7.24406C68.8595 7.24405 64.0736 8.61206 60.0029 11.1751C55.9322 13.7381 52.7595 17.3811 50.8859 21.6433C49.0124 25.9055 48.5221 30.5954 49.4773 35.1202C50.4324 39.6449 52.7899 43.8011 56.2518 47.0632C59.7137 50.3254 64.1243 52.5469 68.9261 53.4469C73.7278 54.347 78.705 53.885 83.2281 52.1196C87.7512 50.3541 91.6172 47.3644 94.3372 43.5285C97.0571 39.6927 98.5089 35.1829 98.5089 30.5695C98.5015 24.3854 95.8911 18.4565 91.2505 14.0837C86.6099 9.71081 80.3181 7.25106 73.7553 7.24406Z" fill="white"/>
<path d="M199.916 131.983C196.269 131.983 192.704 130.959 189.672 129.039C186.639 127.12 184.276 124.392 182.88 121.2C181.485 118.008 181.12 114.495 181.831 111.107C182.543 107.718 184.299 104.606 186.877 102.163C189.456 99.7198 192.742 98.0561 196.318 97.3821C199.895 96.708 203.603 97.0539 206.972 98.3761C210.341 99.6982 213.221 101.937 215.247 104.81C217.273 107.682 218.354 111.06 218.354 114.515C218.349 119.146 216.404 123.586 212.948 126.861C209.491 130.136 204.804 131.978 199.916 131.983ZM199.916 97.3776C196.338 97.3776 192.841 98.3827 189.866 100.266C186.891 102.149 184.573 104.825 183.203 107.957C181.834 111.088 181.476 114.534 182.174 117.858C182.872 121.182 184.595 124.236 187.125 126.633C189.654 129.029 192.878 130.661 196.387 131.323C199.896 131.984 203.533 131.644 206.838 130.347C210.143 129.05 212.969 126.854 214.956 124.036C216.944 121.217 218.005 117.904 218.005 114.515C217.999 109.971 216.092 105.615 212.701 102.403C209.309 99.1899 204.712 97.3828 199.916 97.3776Z" fill="white"/>
<path d="M191.667 146.54C189.267 146.54 186.922 145.914 184.927 144.741C182.932 143.568 181.377 141.901 180.459 139.95C179.541 138 179.301 135.853 179.769 133.782C180.237 131.712 181.392 129.81 183.089 128.317C184.785 126.824 186.947 125.807 189.3 125.395C191.653 124.983 194.092 125.195 196.309 126.002C198.526 126.81 200.42 128.179 201.753 129.934C203.086 131.69 203.797 133.754 203.797 135.865C203.794 138.695 202.515 141.409 200.24 143.41C197.966 145.411 194.883 146.537 191.667 146.54ZM191.667 125.392C189.313 125.392 187.012 126.007 185.055 127.157C183.098 128.308 181.573 129.944 180.672 131.857C179.771 133.771 179.535 135.877 179.995 137.908C180.454 139.94 181.587 141.806 183.252 143.27C184.916 144.735 187.036 145.732 189.345 146.136C191.653 146.541 194.046 146.333 196.221 145.54C198.396 144.748 200.254 143.406 201.562 141.683C202.87 139.961 203.567 137.936 203.567 135.865C203.564 133.088 202.309 130.426 200.078 128.463C197.847 126.5 194.822 125.395 191.667 125.392Z" fill="white"/>
</svg>
