<svg width="230" height="161" viewBox="0 0 230 161" fill="none" xmlns="http://www.w3.org/2000/svg">
<path opacity="0.1" d="M71.0369 17.5975C78.8432 10.6419 91.09 9.22356 102.24 9.77825C137.259 11.5178 168.873 28.4311 196.207 47.5608C206.107 54.4847 215.851 61.9488 222.276 71.4856C235.355 90.9 231.476 117.795 213.278 133.789C207.092 139.229 199.589 143.401 191.878 147.099C178.184 153.668 163.411 158.952 147.862 160.456C136.78 161.526 125.561 160.655 114.545 159.162C83.7628 154.984 53.5471 145.749 28.2145 129.95C17.1058 123.019 6.63664 114.404 2.0599 103.188C-2.51685 91.9729 0.450013 77.7892 11.7922 71.1402C16.4832 68.3959 22.0911 67.1551 27.5822 65.9922C35.6632 64.2892 43.8756 62.5862 51.1711 59.1072C58.7099 55.5114 67.6251 48.5534 66.1343 40.5906C64.5317 32.0512 63.255 24.5458 71.0369 17.5975Z" fill="#81CAA8"/>
<g clip-path="url(#clip0)">
<path d="M78.4399 82.5838L80.4492 88.7573L83.176 86.4601L81.7409 81.5789L78.4399 82.5838Z" fill="#FFB9B9"/>
<path d="M52.6073 56.3109L53.3249 65.9299L70.6902 66.3606L78.2965 83.7324L82.4584 82.0096C82.4584 82.0096 77.7224 65.6428 75.5697 60.4743C73.417 55.3059 65.2366 59.0387 65.2366 59.0387L64.5191 57.603L52.6073 56.3109Z" fill="#2F2E41"/>
<path d="M79.5881 87.6087C79.5881 87.6087 79.8752 92.2029 80.3057 92.49C80.7363 92.7772 84.0371 92.2029 84.0371 92.2029C84.0371 92.2029 85.0289 92.4233 89.0601 91.3415C93.5922 90.1252 88.4861 88.3265 88.4861 88.3265C88.4861 88.3265 85.1852 86.173 83.7501 85.168C82.3149 84.1631 81.3103 86.3166 81.3103 86.3166C81.5974 87.178 79.5881 87.6087 79.5881 87.6087Z" fill="#2F2E41"/>
<path d="M194.411 106.211L194.868 122.207L199.741 140.945C199.741 140.945 198.675 144.145 199.437 144.906C200.198 145.668 203.701 147.039 203.701 147.039L200.807 107.125L194.411 106.211Z" fill="#BCBCBC"/>
<path d="M204.991 144.828C204.991 144.828 206.729 148.653 204.296 149.001C201.863 149.348 190.625 150.275 191.32 148.305C192.015 146.335 200.473 144.48 200.473 144.48L204.991 144.828Z" fill="#525252"/>
<path d="M211.467 92.0427C211.467 92.0427 209.64 101.945 208.422 103.621C207.203 105.297 209.031 117.484 209.031 117.484C209.031 117.484 211.772 135.004 210.554 137.746C209.335 140.488 209.64 139.574 209.792 141.098C209.945 142.621 210.249 143.84 209.792 145.211C209.335 146.582 209.335 146.43 209.183 147.191C209.031 147.953 209.183 152.066 209.183 152.066C209.183 152.066 202.635 154.352 201.569 151C201.569 151 203.092 148.867 202.635 147.191C202.158 145.505 201.902 143.764 201.873 142.012V138.812L194.868 112.609L193.193 103.164C193.193 103.164 193.65 93.5661 195.325 92.6521C197 91.738 211.467 92.0427 211.467 92.0427Z" fill="#BCBCBC"/>
<path d="M208.726 151.305C208.726 151.305 211.011 156.332 207.813 156.789C204.615 157.246 189.843 158.465 190.756 155.875C191.67 153.285 202.787 150.848 202.787 150.848L208.726 151.305Z" fill="#525252"/>
<path d="M205.831 48.1739C209.196 48.1739 211.923 45.4456 211.923 42.0801C211.923 38.7146 209.196 35.9863 205.831 35.9863C202.467 35.9863 199.74 38.7146 199.74 42.0801C199.74 45.4456 202.467 48.1739 205.831 48.1739Z" fill="#FFB9B9"/>
<path d="M210.112 44.7729L209.998 52.555L202.53 52.5803C202.53 52.5803 204.425 46.4883 203.576 45.2144C202.727 43.9405 210.112 44.7729 210.112 44.7729Z" fill="#FFB9B9"/>
<path d="M198.98 56.8512C198.98 56.8512 204.31 49.9957 208.422 52.8902C212.533 55.7848 214.056 62.6403 214.056 62.6403L213.143 81.8357C213.143 81.8357 210.858 84.5779 212.229 86.406C213.599 88.2342 214.361 87.7772 213.295 89.1482C212.229 90.5193 211.011 91.5858 211.467 92.0428C211.924 92.4998 211.011 92.8045 211.011 92.8045L194.868 93.2615C194.868 93.2615 195.325 92.6522 193.954 90.824C192.584 88.9959 194.259 86.5584 193.954 85.6443C193.65 84.7302 193.345 85.7967 193.193 83.6638C193.041 81.531 198.98 56.8512 198.98 56.8512Z" fill="#81CAA8"/>
<path d="M200.503 96.156C200.503 96.156 200.198 99.9646 197.914 100.574C197.057 100.803 196.415 100.367 195.946 99.7331C195.509 99.1257 195.264 98.4011 195.242 97.6528C195.221 96.9045 195.425 96.167 195.827 95.5357L196.391 94.6326L200.503 96.156Z" fill="#FFB9B9"/>
<path d="M214.589 49.1577C214.589 49.1577 214.742 52.2046 214.589 52.6616C214.437 53.1187 214.285 53.5757 214.589 54.0327C214.894 54.4898 214.742 56.0132 214.437 56.1656C214.133 56.3179 215.046 57.689 214.742 58.6031C214.437 59.5172 214.133 59.8218 213.98 60.1265C213.828 60.4312 213.583 60.9771 213.583 60.9771C213.583 60.9771 209.107 51.4429 205.452 53.728C201.797 56.0132 198.904 56.7749 198.904 56.7749C198.904 56.7749 200.884 46.1108 214.589 49.1577Z" fill="#81CAA8"/>
<path d="M207.965 56.2418C207.965 56.2418 212.838 56.6988 212.533 63.0973C212.229 69.4958 212.99 79.5505 212.99 79.5505C212.99 79.5505 204.614 92.3474 203.244 93.2615C201.873 94.1756 201.721 94.0232 201.873 94.7849C202.026 95.5467 202.178 96.156 201.569 96.7654C201.209 97.1276 200.799 97.4355 200.35 97.6795C200.35 97.6795 195.477 96.0037 195.934 94.4802C196.391 92.9568 198.523 90.5193 198.523 90.5193C198.523 90.5193 202.178 84.5778 202.33 83.6638C202.482 82.7497 202.482 82.9021 202.939 82.445C203.396 81.988 204.614 80.1599 204.614 79.2458V76.3513L203.338 60.8828C203.28 60.2527 203.356 59.6176 203.561 59.0191C203.766 58.4205 204.095 57.8721 204.527 57.4099C205.251 56.6513 206.347 56.0476 207.965 56.2418Z" fill="#81CAA8"/>
<path d="M201.903 37.3806C201.506 37.4906 201.088 37.5001 200.686 37.4081C200.285 37.3161 199.912 37.1256 199.603 36.8538C199.008 36.2879 198.807 35.3075 199.231 34.6038C199.597 33.9961 200.308 33.6988 200.985 33.4876C202.478 33.022 204.033 32.7847 205.597 32.7838C206.343 32.7836 207.121 32.8472 207.76 33.2331C208.075 33.4241 208.343 33.6864 208.655 33.8831C209.229 34.2449 209.918 34.3652 210.548 34.6165C211.192 34.8785 211.773 35.2759 212.251 35.7818C212.728 36.2877 213.091 36.8902 213.316 37.5488C213.461 37.9954 213.551 38.4578 213.585 38.926C213.688 40.2086 213.461 41.4963 212.927 42.6666C212.077 44.5201 210.46 46.0786 210.231 48.1049C209.361 47.3738 209.105 46.1475 208.431 45.2321C207.929 44.5552 207.213 44.0686 206.398 43.8518C206.171 43.8217 205.957 43.7261 205.783 43.5766C205.666 43.4145 205.599 43.2215 205.59 43.0217L205.172 40.0112C205.087 39.3985 204.972 38.7289 204.502 38.327C204.208 38.1075 203.866 37.9592 203.504 37.8938C202.649 37.681 201.778 37.5389 200.899 37.4689" fill="#2F2E41"/>
<path opacity="0.1" d="M212.25 81.7267L203.701 92.8249C203.701 92.8249 211.573 86.2421 212.25 81.7267Z" fill="black"/>
<path opacity="0.1" d="M204.044 69.439L204.125 79.9204L199.16 87.3709L203.222 79.0173L204.044 69.439Z" fill="black"/>
<path d="M151.977 64.4652H100.197V63.3976H76.7181V64.4652H24.7246C23.7957 64.4652 22.9048 64.8344 22.2479 65.4915C21.5911 66.1485 21.222 67.0398 21.222 67.969V138.898C21.222 139.827 21.5911 140.719 22.2479 141.376C22.9048 142.033 23.7957 142.402 24.7246 142.402H151.977C152.437 142.402 152.893 142.311 153.318 142.135C153.743 141.959 154.129 141.701 154.454 141.376C154.779 141.05 155.037 140.664 155.213 140.239C155.389 139.814 155.48 139.358 155.48 138.898V67.969C155.48 67.5089 155.389 67.0533 155.213 66.6282C155.037 66.2031 154.779 65.8168 154.454 65.4915C154.129 65.1661 153.743 64.908 153.318 64.7319C152.893 64.5558 152.437 64.4652 151.977 64.4652V64.4652Z" fill="#3F3D56"/>
<path opacity="0.1" d="M150.784 70.6575H25.9178V141.121H150.784V70.6575Z" fill="black"/>
<path d="M88.2442 68.7357C88.9515 68.7357 89.5249 68.1621 89.5249 67.4546C89.5249 66.747 88.9515 66.1734 88.2442 66.1734C87.5369 66.1734 86.9635 66.747 86.9635 67.4546C86.9635 68.1621 87.5369 68.7357 88.2442 68.7357Z" fill="#81CAA8"/>
<path d="M150.205 70.6223H26.1274V141.06H150.205V70.6223Z" fill="#E6E6E6"/>
<path d="M146.657 75.4353H29.6754V136.62H146.657V75.4353Z" fill="white"/>
<path d="M70.3636 81.7837H40.3048V130.272H70.3636V81.7837Z" fill="#E6E6E6"/>
<path d="M100.601 81.7837H75.5524V95.1306H100.601V81.7837Z" fill="#81CAA8"/>
<path d="M100.601 98.8475H75.5524V113.208H100.601V98.8475Z" fill="#E6E6E6"/>
<path d="M100.601 116.925H75.5524V130.272H100.601V116.925Z" fill="#E6E6E6"/>
<path d="M136.028 81.7837H105.969V102.915H136.028V81.7837Z" fill="#E6E6E6"/>
<path d="M136.028 109.141H105.969V130.272H136.028V109.141Z" fill="#81CAA8"/>
<path d="M158.986 139.84H146.8V138.961C146.8 138.939 146.795 138.916 146.786 138.895C146.778 138.874 146.765 138.854 146.749 138.838C146.732 138.822 146.713 138.809 146.692 138.8C146.671 138.792 146.648 138.787 146.626 138.787H142.447C142.425 138.787 142.402 138.792 142.381 138.8C142.36 138.809 142.341 138.822 142.324 138.838C142.308 138.854 142.295 138.874 142.287 138.895C142.278 138.916 142.273 138.939 142.273 138.961V139.84H139.662V138.961C139.662 138.939 139.658 138.916 139.649 138.895C139.64 138.874 139.627 138.854 139.611 138.838C139.595 138.822 139.576 138.809 139.555 138.8C139.533 138.792 139.511 138.787 139.488 138.787H135.31C135.287 138.787 135.264 138.792 135.243 138.8C135.222 138.809 135.203 138.822 135.187 138.838C135.171 138.854 135.158 138.874 135.149 138.895C135.14 138.916 135.136 138.939 135.136 138.961V138.961V139.84H132.524V138.961C132.524 138.939 132.52 138.916 132.511 138.895C132.502 138.874 132.49 138.854 132.473 138.838C132.457 138.822 132.438 138.809 132.417 138.8C132.396 138.792 132.373 138.787 132.35 138.787H128.172C128.149 138.787 128.127 138.792 128.106 138.8C128.085 138.809 128.065 138.822 128.049 138.838C128.033 138.854 128.02 138.874 128.011 138.895C128.003 138.916 127.998 138.939 127.998 138.961V139.84H125.387V138.961C125.387 138.939 125.382 138.916 125.374 138.895C125.365 138.874 125.352 138.854 125.336 138.838C125.32 138.822 125.301 138.809 125.279 138.8C125.258 138.792 125.236 138.787 125.213 138.787H121.035C121.012 138.787 120.989 138.792 120.968 138.8C120.947 138.809 120.928 138.822 120.912 138.838C120.895 138.854 120.883 138.874 120.874 138.895C120.865 138.916 120.861 138.939 120.861 138.961V138.961V139.84H118.249V138.961C118.249 138.939 118.245 138.916 118.236 138.895C118.227 138.874 118.214 138.854 118.198 138.838C118.182 138.822 118.163 138.809 118.142 138.8C118.121 138.792 118.098 138.787 118.075 138.787H113.897C113.874 138.787 113.852 138.792 113.83 138.8C113.809 138.809 113.79 138.822 113.774 138.838C113.758 138.854 113.745 138.874 113.736 138.895C113.728 138.916 113.723 138.939 113.723 138.961V139.84H111.112V138.961C111.112 138.939 111.107 138.916 111.098 138.895C111.09 138.874 111.077 138.854 111.061 138.838C111.045 138.822 111.025 138.809 111.004 138.8C110.983 138.792 110.96 138.787 110.938 138.787H106.76C106.737 138.787 106.714 138.792 106.693 138.8C106.672 138.809 106.653 138.822 106.636 138.838C106.62 138.854 106.607 138.874 106.599 138.895C106.59 138.916 106.585 138.939 106.585 138.961V139.84H103.974V138.961C103.974 138.939 103.97 138.916 103.961 138.895C103.952 138.874 103.939 138.854 103.923 138.838C103.907 138.822 103.888 138.809 103.867 138.8C103.846 138.792 103.823 138.787 103.8 138.787H71.0716C71.0254 138.787 70.9811 138.806 70.9485 138.838C70.9158 138.871 70.8975 138.915 70.8975 138.961V138.961V139.84H68.2862V138.961C68.2862 138.939 68.2817 138.916 68.2729 138.895C68.2642 138.874 68.2514 138.854 68.2352 138.838C68.219 138.822 68.1998 138.809 68.1787 138.801C68.1576 138.792 68.135 138.787 68.1121 138.787H63.934C63.8878 138.787 63.8436 138.806 63.8109 138.838C63.7783 138.871 63.7599 138.915 63.7599 138.961V139.84H61.1486V138.961C61.1486 138.939 61.1441 138.916 61.1353 138.895C61.1266 138.874 61.1138 138.854 61.0976 138.838C61.0815 138.822 61.0623 138.809 61.0411 138.801C61.02 138.792 60.9974 138.787 60.9745 138.787H56.7964C56.7503 138.787 56.706 138.806 56.6733 138.838C56.6407 138.871 56.6223 138.915 56.6223 138.961V138.961V139.84H54.011V138.961C54.011 138.939 54.0065 138.916 53.9978 138.895C53.989 138.874 53.9762 138.854 53.96 138.838C53.9439 138.822 53.9247 138.809 53.9036 138.801C53.8824 138.792 53.8598 138.787 53.8369 138.787H49.6588C49.6127 138.787 49.5684 138.806 49.5357 138.838C49.5031 138.871 49.4847 138.915 49.4847 138.961V138.961V139.84H46.8734V138.961C46.8734 138.939 46.8689 138.916 46.8602 138.895C46.8514 138.874 46.8386 138.854 46.8224 138.838C46.8063 138.822 46.7871 138.809 46.766 138.801C46.7449 138.792 46.7222 138.787 46.6993 138.787H42.5213C42.4751 138.787 42.4308 138.806 42.3982 138.838C42.3655 138.871 42.3472 138.915 42.3472 138.961V138.961V139.84H39.7358V138.961C39.7358 138.939 39.7313 138.916 39.7226 138.895C39.7138 138.874 39.701 138.854 39.6849 138.838C39.6687 138.822 39.6495 138.809 39.6284 138.801C39.6073 138.792 39.5846 138.787 39.5618 138.787H35.3837C35.3375 138.787 35.2932 138.806 35.2606 138.838C35.2279 138.871 35.2096 138.915 35.2096 138.961V138.961V139.84H32.5983V138.961C32.5983 138.939 32.5938 138.916 32.585 138.895C32.5763 138.874 32.5634 138.854 32.5473 138.838C32.5311 138.822 32.5119 138.809 32.4908 138.8C32.4697 138.792 32.447 138.787 32.4242 138.787H28.2461C28.1999 138.787 28.1556 138.806 28.123 138.838C28.0903 138.871 28.072 138.915 28.072 138.961V138.961V139.84H20.064C18.9559 139.84 17.8931 140.28 17.1096 141.064C16.3261 141.848 15.8859 142.911 15.8859 144.019V145.909C15.8859 147.018 16.3261 148.081 17.1096 148.865C17.8932 149.649 18.9559 150.089 20.064 150.089H158.986C160.094 150.089 161.157 149.649 161.94 148.865C162.724 148.081 163.164 147.018 163.164 145.909V144.019C163.164 142.911 162.724 141.848 161.94 141.064C161.157 140.28 160.094 139.84 158.986 139.84V139.84Z" fill="#2F2E41"/>
<path d="M47.1081 17.7352C46.3476 18.7517 45.8872 19.9612 45.7791 21.2262C45.6242 22.7661 45.1735 25.2291 43.862 26.5237C41.8638 28.4962 41.1978 29.9755 41.1978 29.9755L41.8638 30.7151C41.8638 29.2358 42.7519 28.9893 42.7519 28.9893L42.5299 30.7151C48.5244 36.3859 61.8457 31.2082 61.8457 31.2082L61.4017 26.7703C62.5118 27.2634 62.9558 30.7151 62.9558 30.7151L64.732 30.222C64.732 30.222 61.6237 24.7979 59.6255 19.8668C57.6273 14.9357 54.519 16.1685 54.519 16.1685C50.8557 14.2098 48.4361 16.0262 47.1081 17.7352Z" fill="#2F2E41"/>
<path d="M67.9634 20.2752L70.1161 6.20553C70.1161 6.20553 67.8199 0.60637 71.6948 0.0320971C75.5697 -0.542175 72.9864 6.77981 72.9864 6.77981L71.6948 20.2752H67.9634Z" fill="#FFB9B9"/>
<path d="M66.2412 86.4602C66.9588 87.6087 67.1023 93.4951 67.1023 93.4951L72.1253 90.3365L70.6902 85.1681L66.2412 86.4602Z" fill="#FFB9B9"/>
<path d="M59.209 55.593C59.209 55.593 52.8943 55.593 49.45 57.603C48.3428 58.249 48.0216 59.4142 48.0954 60.6981C48.2881 64.0521 51.0264 66.7009 54.3783 66.9083L64.0885 67.5092C62.6534 71.5291 65.9542 87.178 65.9542 87.178L71.1208 86.4602C71.1208 86.4602 70.4032 81.1482 70.5467 80.861C70.6902 80.5739 71.9818 69.3756 71.1208 63.4893C70.2597 57.603 58.4914 60.0436 58.4914 60.0436L59.209 55.593Z" fill="#2F2E41"/>
<path d="M66.8152 92.2029C66.8152 92.2029 66.3847 96.3664 66.5282 96.9406C66.6717 97.5149 72.5558 97.802 77.8659 96.2228C83.1759 94.6435 77.1483 92.9207 77.1483 92.9207C77.1483 92.9207 73.5604 90.4801 72.5558 89.6187C71.5512 88.7573 70.1161 90.7672 70.1161 90.7672C69.829 92.0593 66.8152 92.2029 66.8152 92.2029Z" fill="#2F2E41"/>
<path d="M57.9941 25.9842C58.4511 23.1666 56.5384 20.5118 53.7218 20.0546C50.9052 19.5974 48.2514 21.5108 47.7944 24.3284C47.3373 27.146 49.2501 29.8008 52.0666 30.2581C54.8832 30.7153 57.537 28.8018 57.9941 25.9842Z" fill="#FFB9B9"/>
<path d="M50.7415 29.0329C52.6072 31.7607 50.311 33.3399 50.311 33.3399L49.3064 40.8055C49.3064 40.8055 60.07 41.8104 61.9357 40.3747C63.8014 38.9391 59.783 34.2013 58.3478 33.7706C56.9127 33.3399 56.6257 27.4536 56.6257 27.4536L50.7415 29.0329Z" fill="#FFB9B9"/>
<path d="M51.0224 32.575L45.3597 31.6889L44.7139 37.7905C44.7139 37.7905 45.001 51.4295 44.7139 53.8702C44.4269 56.3108 49.5934 59.0386 49.5934 59.0386C49.5934 59.0386 57.0562 58.4644 58.4914 57.7465C59.9265 57.0287 64.519 58.4644 64.519 58.4644C65.0306 58.4928 65.5427 58.4196 66.0259 58.249C66.887 57.9619 63.8014 37.5034 63.8014 37.5034L61.0746 31.1864L57.7738 32.4785L56.7692 37.2163L51.0224 32.575Z" fill="#81CAA8"/>
<path d="M63.2275 37.3597L68.9681 30.0377L72.9865 20.1316L67.3894 17.9781L65.0931 26.1615L61.0747 31.0429L60.9312 31.9042L63.2275 37.3597Z" fill="#81CAA8"/>
<path d="M45.1383 48.5055L59.3565 49.0409C59.3565 49.0409 64.6553 46.1204 65.6674 49.906C66.6795 53.6916 59.1134 51.959 59.1134 51.959L45.5637 52.2139L45.1383 48.5055Z" fill="#FFB9B9"/>
<path d="M46.3643 47.4814L52.966 47.9121L53.8271 52.3627C53.8271 52.3627 45.7903 52.2191 42.6329 52.0756C39.4756 51.932 42.6329 38.5801 43.0635 34.5602C43.494 30.5403 45.6468 31.6889 45.6468 31.6889L46.9384 32.6938L46.3643 47.4814Z" fill="#81CAA8"/>
<path opacity="0.15" d="M47.5127 46.0456L53.2533 48.3428L46.9385 47.0505L46.5079 38.8672L47.5127 46.0456Z" fill="black"/>
<path d="M58.3501 23.436L48.8712 23.6617L47.7428 18.9205H58.3501V23.436Z" fill="#2F2E41"/>
</g>
<defs>
<clipPath id="clip0">
<rect width="198.919" height="157.477" fill="white" transform="translate(15.8859)"/>
</clipPath>
</defs>
</svg>
