<svg width="276" height="307" viewBox="0 0 276 307" fill="none" xmlns="http://www.w3.org/2000/svg">
<g clip-path="url(#clip0)">
<path d="M187.74 190.192C338.229 291.26 289.32 328.92 93.8699 294.62C42.8017 285.658 0 247.866 0 190.192C0 132.518 42.027 85.7646 93.8699 85.7646C145.713 85.7646 139.984 158.12 187.74 190.192Z" fill="#272727"/>
<path opacity="0.1" d="M201.194 288.652C234.028 288.652 260.645 286.262 260.645 283.313C260.645 280.365 234.028 277.974 201.194 277.974C168.36 277.974 141.743 280.365 141.743 283.313C141.743 286.262 168.36 288.652 201.194 288.652Z" fill="black"/>
<path opacity="0.1" d="M83.944 112.665C101.347 112.665 115.455 110.275 115.455 107.326C115.455 104.377 101.347 101.987 83.944 101.987C66.5412 101.987 52.4335 104.377 52.4335 107.326C52.4335 110.275 66.5412 112.665 83.944 112.665Z" fill="black"/>
<path opacity="0.1" d="M82.2925 120.47C68.7723 120.467 55.5271 124.304 44.087 131.536C32.6469 138.768 23.4786 149.102 17.6412 161.343C24.3514 153.902 32.5421 147.957 41.6842 143.892C50.8262 139.827 60.7163 137.732 70.7152 137.743C110.288 137.743 142.369 169.945 142.369 209.665C142.385 220.411 139.992 231.023 135.367 240.714C147.346 227.495 153.972 210.261 153.946 192.391C153.947 152.671 121.865 120.47 82.2925 120.47Z" fill="black"/>
<path opacity="0.3" d="M142.369 209.351C142.385 220.097 139.992 230.708 135.367 240.4C128.657 247.84 120.466 253.785 111.324 257.85C102.182 261.915 92.2916 264.01 82.2926 263.999C42.7202 263.999 10.6386 231.797 10.6386 192.077C10.6225 181.331 13.0158 170.719 17.6413 161.028C24.3515 153.588 32.5422 147.643 41.6843 143.578C50.8263 139.513 60.7164 137.418 70.7153 137.429C110.288 137.429 142.369 169.631 142.369 209.351Z" fill="#00BFA6"/>
<path d="M82.2926 264.352C42.5882 264.352 10.2864 231.93 10.2864 192.077C10.2575 181.277 12.6634 170.61 17.3237 160.876C23.1899 148.575 32.4032 138.191 43.8995 130.923C55.3958 123.655 68.706 119.8 82.2926 119.802C121.997 119.802 154.299 152.225 154.299 192.077C154.299 201.569 152.437 210.967 148.819 219.736C145.2 228.506 139.896 236.473 133.21 243.185C126.523 249.896 118.585 255.22 109.849 258.852C101.112 262.484 91.7487 264.353 82.2926 264.352ZM82.2926 120.509C55.0107 120.509 29.758 136.474 17.9588 161.181C13.344 170.821 10.9618 181.383 10.9905 192.077C10.9905 231.54 42.9764 263.645 82.2926 263.645C91.6563 263.646 100.928 261.795 109.579 258.199C118.23 254.602 126.091 249.331 132.712 242.685C139.333 236.039 144.585 228.149 148.168 219.466C151.751 210.783 153.595 201.476 153.594 192.077C153.594 152.614 121.609 120.509 82.2926 120.509V120.509Z" fill="white"/>
<path d="M246.224 265.265C241.02 272.097 241.615 281.329 241.615 281.329C241.615 281.329 250.648 279.486 255.852 272.654C261.057 265.823 260.461 256.59 260.461 256.59C260.461 256.59 251.429 258.434 246.224 265.265Z" fill="white"/>
<path d="M249.635 266.799C248.625 275.339 241.789 281.545 241.789 281.545C241.789 281.545 236.59 273.905 237.6 265.365C238.609 256.826 245.446 250.62 245.446 250.62C245.446 250.62 250.645 258.26 249.635 266.799Z" fill="#00BFA6"/>
<path d="M60.8481 66.7514C77.1774 66.7514 90.4149 53.4645 90.4149 37.0742C90.4149 20.6839 77.1774 7.39697 60.8481 7.39697C44.5188 7.39697 31.2812 20.6839 31.2812 37.0742C31.2812 53.4645 44.5188 66.7514 60.8481 66.7514Z" fill="#6C63FF"/>
<path d="M124.951 67.332C124.966 96.9757 107.413 107.333 85.7573 107.344C85.2543 107.344 84.7537 107.339 84.2555 107.328C83.2518 107.306 82.2586 107.261 81.2758 107.191C61.7298 105.812 46.5379 94.9388 46.5245 67.3702C46.5107 38.8402 82.821 2.81817 85.5442 0.154678C85.5466 0.154678 85.5466 0.154678 85.549 0.152257C85.6524 0.0507462 85.7054 0 85.7054 0C85.7054 0 124.937 37.6907 124.951 67.332Z" fill="#00BFA6"/>
<path d="M84.3278 102.81L98.66 82.6896L84.2928 105.018L84.2554 107.328C83.2517 107.306 82.2585 107.261 81.2758 107.191L82.8066 77.5348L82.7944 77.3054L82.8208 77.2619L82.9663 74.4595L68.5414 52.0894L83.0086 72.3602L83.045 72.9545L84.2015 50.5478L71.8508 27.4303L84.3512 46.6101L85.5441 0.1546L85.5488 0L85.5489 0.152179L85.3645 36.7871L97.6392 22.2577L85.3131 39.9421L84.9979 60.0051L96.4616 40.746L84.9536 62.9547L84.7785 74.1108L101.415 47.3023L84.7154 78.0026L84.3278 102.81Z" fill="#009581"/>
<path d="M201.722 84.3162C197.964 77.9422 190.529 77.6451 190.529 77.6451C190.529 77.6451 183.283 76.7151 178.636 86.4228C174.303 95.4712 168.324 104.208 177.673 106.326L179.362 101.05L180.407 106.718C181.738 106.815 183.074 106.837 184.407 106.787C194.419 106.463 203.953 106.882 203.646 103.276C203.238 98.4823 205.339 90.4492 201.722 84.3162Z" fill="#2F2E41"/>
<path d="M185.142 144.127L186.109 153.83L208.505 151.404L208.988 144.127H185.142Z" fill="#A0616A"/>
<path d="M182.725 149.464L182.081 155.124C182.081 155.124 174.669 165.474 175.314 183.264C175.958 201.054 165.163 280.138 172.897 280.784C180.631 281.431 194.487 282.402 195.132 279.976C195.776 277.55 197.065 185.528 197.065 185.528C197.065 185.528 200.449 280.091 206.249 280.414C212.05 280.738 231.546 281.384 231.546 278.959C231.546 276.533 214.467 168.224 214.467 168.224L211.727 159.167L208.988 148.008C208.988 148.008 191.909 150.919 187.237 149.787C182.564 148.655 182.725 149.464 182.725 149.464Z" fill="#2F2E41"/>
<path d="M190.459 104.666C196.154 104.666 200.771 100.032 200.771 94.3152C200.771 88.5989 196.154 83.9648 190.459 83.9648C184.764 83.9648 180.147 88.5989 180.147 94.3152C180.147 100.032 184.764 104.666 190.459 104.666Z" fill="#A0616A"/>
<path d="M208.505 111.458L206.547 114.318L205.294 116.147L203.188 119.221L192.715 120.03C192.715 120.03 190.171 119.205 187.235 118C186.151 117.554 185.011 117.056 183.929 116.527C179.728 114.479 176.358 111.981 180.147 110.326C180.82 110.036 181.467 109.688 182.079 109.285C182.636 108.919 183.155 108.497 183.627 108.026C184.598 107.05 185.317 105.851 185.721 104.532C186.126 103.214 186.203 101.816 185.948 100.461L196.098 99.0054C195.804 101.59 198.364 104.409 201.233 106.71C202.176 107.468 203.154 108.169 204.074 108.787C206.486 110.407 208.505 111.458 208.505 111.458Z" fill="#A0616A"/>
<path d="M194.648 114.531C194.648 114.531 184.739 112.833 182.484 109.275C182.484 109.275 172.736 110.488 173.541 115.663C174.347 120.838 182.403 149.14 182.403 149.14C182.403 149.14 202.543 145.259 209.955 148.17L214.467 112.105C214.467 112.105 212.855 108.547 209.794 109.517C206.733 110.488 205.524 109.598 205.524 109.598C205.524 109.598 202.06 114.531 194.648 114.531Z" fill="#00BFA6"/>
<path d="M203.671 171.296C203.671 171.296 210.6 179.059 206.733 180.353C202.866 181.647 198.193 175.178 198.193 175.178L203.671 171.296Z" fill="#A0616A"/>
<path d="M205.927 171.943C205.927 171.943 200.288 175.825 202.382 178.412C204.477 181 211.727 176.148 211.727 175.178C211.727 174.208 205.927 171.943 205.927 171.943Z" fill="#A0616A"/>
<path d="M192.07 150.919L187.398 151.728L184.336 128.924C184.513 124.787 184.377 120.643 183.929 116.527C183.587 113.777 183.017 111.135 182.079 109.285C182.636 108.919 183.155 108.497 183.628 108.026C184.749 109.81 186.795 113.588 187.235 118C187.35 119.105 187.351 120.219 187.237 121.323C186.431 128.924 186.592 130.38 186.592 130.38L192.07 150.919Z" fill="#6C63FF"/>
<path d="M181.275 110.65C181.275 110.65 173.702 108.547 173.058 113.075C172.413 117.604 173.219 129.248 174.991 133.615C176.764 137.981 182.886 152.213 182.886 152.213C182.886 152.213 194.004 166.445 194.487 169.841C194.971 173.237 197.387 176.795 197.387 176.795L205.121 171.782L189.976 146.067L183.37 128.278C183.37 128.278 186.109 112.105 181.275 110.65Z" fill="#00BFA6"/>
<path d="M210.922 111.296L214.467 112.105C214.467 112.105 217.689 126.013 216.4 133.453C215.111 140.892 214.95 143.48 214.95 143.48L213.822 164.666C213.822 164.666 214.144 178.251 211.889 176.148C209.633 174.046 205.121 173.075 205.121 173.075C205.121 173.075 205.605 167.092 207.377 165.636C207.377 165.636 209.472 154.477 208.183 149.625C206.894 144.774 210.922 111.296 210.922 111.296Z" fill="#00BFA6"/>
<path d="M212.211 126.984L208.102 150.838L205.605 149.787L209.955 126.984L205.294 116.147L201.234 106.71C202.176 107.468 203.154 108.169 204.074 108.787L206.547 114.318L212.211 126.984Z" fill="#6C63FF"/>
<path d="M200.061 83.7018L192.715 79.8396L182.571 81.4196L180.472 90.7239L185.696 90.5222L187.156 87.1038V90.466L189.567 90.3727L190.966 84.9305L191.84 90.7239L200.411 90.5483L200.061 83.7018Z" fill="#2F2E41"/>
<path d="M185.549 283.313C188.314 283.313 190.556 282.47 190.556 281.429C190.556 280.388 188.314 279.544 185.549 279.544C182.784 279.544 180.543 280.388 180.543 281.429C180.543 282.47 182.784 283.313 185.549 283.313Z" fill="#2F2E41"/>
<path d="M219.343 283.313C222.108 283.313 224.349 282.47 224.349 281.429C224.349 280.388 222.108 279.544 219.343 279.544C216.578 279.544 214.336 280.388 214.336 281.429C214.336 282.47 216.578 283.313 219.343 283.313Z" fill="#2F2E41"/>
<path d="M92.7875 229.276C87.6664 232.621 81.7649 234.568 75.6653 234.925C69.5658 235.281 63.479 234.035 58.0056 231.31L58.7806 229.723C65.378 232.976 72.8557 233.97 80.0691 232.551C87.2825 231.133 93.8342 227.381 98.7212 221.87C103.608 216.359 106.561 209.392 107.128 202.036C107.696 194.68 105.846 187.34 101.862 181.14C97.8775 174.94 91.979 170.221 85.0689 167.706C78.1587 165.19 70.6178 165.017 63.6003 167.213C56.5827 169.408 50.4754 173.851 46.213 179.862C41.9506 185.873 39.768 193.12 39.9994 200.495L38.2397 200.549C38.0448 194.344 39.4735 188.196 42.3835 182.719C45.2934 177.241 49.5829 172.624 54.8244 169.329C60.0659 166.034 66.0763 164.175 72.2565 163.938C78.4368 163.701 84.5709 165.094 90.0476 167.979C95.5243 170.863 100.152 175.138 103.47 180.377C106.788 185.616 108.679 191.636 108.957 197.838C109.234 204.039 107.887 210.205 105.05 215.722C102.213 221.238 97.9848 225.911 92.7875 229.276Z" fill="white"/>
<path d="M76.8639 197.323C71.6584 198.479 64.7304 199.184 59.6824 198.448L66.0194 203.292L48.2789 214.777L49.2331 216.262L66.9736 204.777L68.757 212.571C70.1711 207.651 73.6682 201.607 76.8639 197.323Z" fill="white"/>
</g>
<defs>
<clipPath id="clip0">
<rect width="276" height="307" fill="white"/>
</clipPath>
</defs>
</svg>
