<svg width="80" height="80" viewBox="0 0 80 80" fill="none" xmlns="http://www.w3.org/2000/svg">
<path d="M23.7525 42.975C20.8875 43.5475 18.3025 45.1213 16.4762 47.4025C14.7187 49.6013 13.75 52.3612 13.75 55.1775V71.25C13.75 75.3863 17.1137 78.75 21.25 78.75H56.25C57.6288 78.75 58.75 77.6288 58.75 76.25V53.75H61.4813C66.46 53.75 71.1975 51.6 74.4763 47.8525C77.2325 44.705 78.75 40.6662 78.75 36.4812V15.9875C78.75 12.685 76.065 10 72.7625 10C69.8237 10 67.34 12.105 66.8563 15.0038L66.41 17.68C64.8762 18.15 63.75 19.5638 63.75 21.25V24.1788C63.75 25.8488 64.4 27.4187 65.58 28.5987L66.25 29.2675V35.9538C66.25 37.9725 65.1288 39.7875 63.3238 40.69C62.5913 41.0575 61.7725 41.25 60.955 41.25H46.025L45.2012 37.135C48.08 35.5975 50.3425 33.065 51.545 30H52.5C55.2575 30 57.5 27.7575 57.5 25C57.5 22.2425 55.2575 20 52.5 20V16.8725C55.4325 15.645 57.5 12.7475 57.5 9.375C57.5 4.895 53.855 1.25 49.375 1.25H34.6062C26.5525 1.25 20 7.80125 20 15.8563C20 17.05 20.1463 18.2425 20.4363 19.4L21.0725 21.9438C20.4112 22.7913 20 23.8437 20 25C20 27.7575 22.2425 30 25 30H25.955C27.1575 33.065 29.4188 35.5975 32.2988 37.135L31.4375 41.4375L23.7525 42.975ZM35.945 46.025L33.0075 47.2L31.0588 44.0625L32.27 43.82L35.945 46.025ZM28.75 76.25V73.75H56.25V76.25H28.75ZM56.25 71.25H28.75V53.75H56.25V71.25ZM66.25 21.25C66.25 20.56 66.8113 20 67.5 20H70C70.6887 20 71.25 20.56 71.25 21.25C71.25 21.94 70.6887 22.5 70 22.5H68.75V25H70C72.0675 25 73.75 23.3175 73.75 21.25C73.75 19.1825 72.0675 17.5 70 17.5H68.975L69.3225 15.4138C69.605 13.725 71.0512 12.5 72.7625 12.5C74.685 12.5 76.25 14.065 76.25 15.9875V27.5H68.0175L67.3488 26.8313C66.64 26.1225 66.25 25.1813 66.25 24.1788V21.25ZM64.4413 42.9275C67.0988 41.5987 68.75 38.9275 68.75 35.955V30H76.25V36.4812C76.25 40.06 74.9525 43.515 72.5962 46.2075C69.7912 49.4112 65.74 51.25 61.4813 51.25H28.75C27.3712 51.25 26.25 52.3712 26.25 53.75V68.75H21.25V71.25H26.25V76.25H21.25C18.4925 76.25 16.25 74.0075 16.25 71.25V55.1775C16.25 52.9275 17.0238 50.7213 18.4288 48.965C19.8875 47.1413 21.9525 45.8837 24.2438 45.4262L28.4413 44.5862L31.9913 50.3L38.6387 47.6412L38.75 47.7075L38.8613 47.6412L45.525 50.3062L49.4575 43.75H60.955C62.1587 43.75 63.3638 43.465 64.4413 42.9275V42.9275ZM46.5425 43.75L44.4763 47.1938L41.555 46.025L45.3463 43.75H46.5425ZM55 25C55 26.3788 53.8788 27.5 52.5 27.5H52.2612C52.4112 26.6875 52.5 25.855 52.5 25V22.5C53.8788 22.5 55 23.6212 55 25ZM25 27.5C23.6212 27.5 22.5 26.3788 22.5 25C22.5 23.6212 23.6212 22.5 25 22.5V25C25 25.855 25.0887 26.6875 25.2387 27.5H25ZM25 17.5388V20C24.3812 20 23.795 20.1275 23.2475 20.3338L22.8612 18.7925C22.6212 17.8338 22.5 16.8463 22.5 15.8563C22.5 9.18125 27.93 3.75 34.6062 3.75H49.375C52.4762 3.75 55 6.27375 55 9.375C55 12.4762 52.4762 15 49.375 15H48.1087C46.395 15 45 13.605 45 11.8912C45 10.5512 45.855 9.36625 47.125 8.94375L47.895 8.6875L47.105 6.315L46.335 6.5725C44.0413 7.335 42.5 9.4725 42.5 11.8912C42.5 12.0525 42.5337 12.205 42.5475 12.3625C40.2425 12.1325 37.9863 11.5987 35.8238 10.7337L35.3387 10.5387C34.4437 10.1812 33.5013 10 32.5388 10C28.3825 10 25 13.3825 25 17.5388ZM27.5 25V17.5388C27.5 14.7613 29.7613 12.5 32.5388 12.5C33.1825 12.5 33.8125 12.6212 34.4088 12.8587L34.8938 13.0537C37.6225 14.1437 40.485 14.76 43.4088 14.9312C44.4088 16.4725 46.1375 17.5 48.1087 17.5H49.375C49.5862 17.5 49.7925 17.4838 50 17.4688V25C50 31.2037 44.9525 36.25 38.75 36.25C32.5475 36.25 27.5 31.2037 27.5 25V25ZM38.75 38.75C40.1775 38.75 41.555 38.53 42.85 38.125L43.6013 41.8813L38.75 44.7925L33.8987 41.8813L34.65 38.125C35.945 38.53 37.3225 38.75 38.75 38.75V38.75ZM32.5 23.75H30C30 21.6825 31.6825 20 33.75 20C35.8175 20 37.5 21.6825 37.5 23.75H35C35 23.06 34.4387 22.5 33.75 22.5C33.0613 22.5 32.5 23.06 32.5 23.75ZM42.5 23.75H40C40 21.6825 41.6825 20 43.75 20C45.8175 20 47.5 21.6825 47.5 23.75H45C45 23.06 44.4387 22.5 43.75 22.5C43.0613 22.5 42.5 23.06 42.5 23.75ZM45 27.5V26.25H32.5V27.5C32.5 30.9462 35.3038 33.75 38.75 33.75C42.1962 33.75 45 30.9462 45 27.5ZM35.2137 28.75H42.285C41.7687 30.205 40.3788 31.25 38.7488 31.25C37.1188 31.25 35.73 30.205 35.2137 28.75V28.75ZM42.5 66.25C44.5675 66.25 46.25 64.5675 46.25 62.5C46.25 60.4325 44.5675 58.75 42.5 58.75C40.4325 58.75 38.75 60.4325 38.75 62.5C38.75 64.5675 40.4325 66.25 42.5 66.25ZM42.5 61.25C43.1887 61.25 43.75 61.81 43.75 62.5C43.75 63.19 43.1887 63.75 42.5 63.75C41.8113 63.75 41.25 63.19 41.25 62.5C41.25 61.81 41.8113 61.25 42.5 61.25ZM5.185 39.7988L6.07375 44.2413C6.30625 45.405 7.3375 46.25 8.525 46.25H11.475C12.6625 46.25 13.6937 45.405 13.9262 44.2413L14.815 39.7988C17.1825 38.2313 18.75 35.5463 18.75 32.5C18.75 27.6763 14.825 23.75 10 23.75C5.175 23.75 1.25 27.6763 1.25 32.5C1.25 35.5463 2.8175 38.2313 5.185 39.7988ZM11.475 43.75H8.525L7.975 41.0038C8.62625 41.1588 9.3025 41.25 10 41.25C10.6975 41.25 11.3737 41.1588 12.025 41.0038L11.475 43.75ZM8.75 32.5C8.75 31.81 9.31125 31.25 10 31.25C10.6887 31.25 11.25 31.81 11.25 32.5C11.25 33.19 10.6887 33.75 10 33.75C9.31125 33.75 8.75 33.19 8.75 32.5ZM10 26.25C13.4462 26.25 16.25 29.0538 16.25 32.5C16.25 35.5175 14.0988 38.0425 11.25 38.6238V36.02C12.7013 35.5025 13.75 34.1275 13.75 32.5C13.75 30.4325 12.0675 28.75 10 28.75C7.9325 28.75 6.25 30.4325 6.25 32.5C6.25 34.1275 7.29875 35.5025 8.75 36.02V38.6238C5.90125 38.0425 3.75 35.5175 3.75 32.5C3.75 29.0538 6.55375 26.25 10 26.25ZM11.25 21.25H8.75V16.25H11.25V21.25ZM4.54 22.585L2.62625 17.965L4.93625 17.0075L6.85 21.6275L4.54 22.585ZM17.3738 17.965L15.46 22.585L13.15 21.6275L15.0637 17.0075L17.3738 17.965Z" fill="url(#paint0_linear)"/>
<defs>
<linearGradient id="paint0_linear" x1="40" y1="78.75" x2="40" y2="1.25" gradientUnits="userSpaceOnUse">
<stop stop-color="#81CAAB"/>
<stop offset="1" stop-color="#0BB1D3"/>
</linearGradient>
</defs>
</svg>
