<svg width="20" height="20" viewBox="0 0 20 20" fill="none" xmlns="http://www.w3.org/2000/svg">
<path d="M19.888 14.4111C19.7408 14.0578 19.46 13.7771 19.1068 13.6299V8.56338C19.1743 8.46233 19.2199 8.34829 19.2407 8.22858C19.2392 8.00116 19.1097 7.79401 18.9059 7.69292L9.84426 3.63078C9.70323 3.56269 9.53889 3.56269 9.39787 3.63078L0.336185 7.69292C0.119966 7.77967 -0.0153453 7.99624 0.00139427 8.22858C0.00344312 8.45884 0.158546 8.65954 0.380824 8.71961L3.48322 9.79095V13.8084C3.48322 13.9841 3.56592 14.1495 3.70642 14.2548C3.85468 14.3639 4.04849 14.3891 4.21976 14.3218C7.69658 13.027 11.5232 13.027 15 14.3218L15.2009 14.3664C15.3143 14.3632 15.4237 14.3242 15.5134 14.2548C15.6685 14.16 15.7619 13.9902 15.7589 13.8084V9.76863L17.9908 9.03208V13.6299C17.2513 13.938 16.9015 14.7874 17.2097 15.527C17.5178 16.2666 18.3672 16.6164 19.1068 16.3082C19.8464 16 20.1961 15.1507 19.888 14.4111Z" fill="#A5A5A5"/>
</svg>
