<svg width="20" height="20" viewBox="0 0 20 20" fill="none" xmlns="http://www.w3.org/2000/svg">
<path d="M18.583 1.5636H1.42127C0.639792 1.5636 0.0039709 2.19926 0.0039709 2.98073L0 14.6733C0 15.4546 0.635503 16.0928 1.41698 16.0928H7.03183V17.4988H5.93539C5.84914 17.4988 5.78195 17.5722 5.78195 17.6585V18.2752C5.78195 18.3615 5.84898 18.4364 5.93539 18.4364H14.036C14.122 18.4364 14.2181 18.3615 14.2181 18.2752V17.6585C14.2181 17.5722 14.122 17.4988 14.036 17.4988H12.9682V16.0928H18.5792C19.3601 16.0928 19.9963 15.4546 19.9963 14.6733L20 2.982C20.0002 2.20037 19.3645 1.5636 18.583 1.5636ZM9.98046 14.9911C9.7214 14.9911 9.51174 14.7813 9.51174 14.5224C9.51174 14.2637 9.7214 14.0538 9.98046 14.0538C10.2394 14.0538 10.4492 14.2637 10.4492 14.5224C10.4492 14.7813 10.2395 14.9911 9.98046 14.9911ZM18.7487 12.9682H1.25131V2.81332H18.7487V12.9682Z" fill="#A5A5A5"/>
</svg>
