<svg width="20" height="20" viewBox="0 0 20 20" fill="none" xmlns="http://www.w3.org/2000/svg">
<g clip-path="url(#clip0)">
<path d="M15.8709 3.52222H14.6967C14.3722 3.52222 14.1096 3.78479 14.1096 4.10933C14.1096 4.43382 14.3722 4.69643 14.6967 4.69643H15.8709C16.1954 4.69643 16.458 4.43386 16.458 4.10933C16.458 3.78479 16.1954 3.52222 15.8709 3.52222Z" fill="#A5A5A5"/>
<path d="M9.93812 1.4984L9.35105 0.324219C9.20487 0.0341027 8.85339 -0.0822643 8.56327 0.0616417C8.27315 0.206681 8.15561 0.559297 8.30069 0.849414L8.8878 2.02359C9.03265 2.31254 9.38351 2.43125 9.67558 2.28617C9.96562 2.14113 10.0832 1.78851 9.93812 1.4984Z" fill="#A5A5A5"/>
<path d="M13.7851 0.0616347C13.4961 -0.0822713 13.1424 0.0341348 12.9974 0.324212L12.4102 1.49839C12.2652 1.78851 12.3827 2.14108 12.6728 2.28616C12.9658 2.43163 13.3162 2.31155 13.4606 2.02358L14.0477 0.849407C14.1927 0.55929 14.0752 0.206674 13.7851 0.0616347Z" fill="#A5A5A5"/>
<path d="M7.65163 3.52222H6.47745C6.15296 3.52222 5.89034 3.78479 5.89034 4.10933C5.89034 4.43382 6.15292 4.69643 6.47745 4.69643H7.65163C7.97612 4.69643 8.23874 4.43386 8.23874 4.10933C8.23874 3.78479 7.97612 3.52222 7.65163 3.52222Z" fill="#A5A5A5"/>
<path d="M4.12909 9.43237H1.7807C1.45648 9.43237 1.19359 9.69522 1.19359 10.0195V19.4129C1.19359 19.7371 1.45644 20 1.7807 20H4.12905C4.45327 20 4.71616 19.7371 4.71616 19.4129V10.0194C4.71616 9.69522 4.45335 9.43237 4.12909 9.43237Z" fill="#A5A5A5"/>
<path d="M18.7947 10.9886C18.6911 10.0778 17.8404 9.43233 16.9238 9.43233H12.3467C12.7356 8.73581 12.9444 6.76577 12.9352 5.96101C12.9198 4.6289 11.8167 3.5614 10.4845 3.5614H10.0001C9.67557 3.5614 9.41295 3.82398 9.41295 4.14851C9.41295 5.50612 8.88432 7.95659 7.88733 8.95362C7.21628 9.62467 6.64261 9.86783 5.89038 10.2438V19.0531C7.04206 19.4369 8.50432 20 10.7331 20H14.5736C15.839 20 16.8245 18.828 16.3342 17.5897C17.0813 17.3862 17.6322 16.7011 17.6322 15.8904C17.6322 15.6616 17.5881 15.4426 17.5084 15.2413C18.7673 14.8983 19.2307 13.3438 18.3569 12.3678C18.6779 12.0092 18.855 11.5186 18.7947 10.9886Z" fill="#A5A5A5"/>
</g>
<defs>
<clipPath id="clip0">
<rect width="20" height="20" fill="white"/>
</clipPath>
</defs>
</svg>
