<svg width="80" height="80" viewBox="0 0 80 80" fill="none" xmlns="http://www.w3.org/2000/svg">
<path d="M77.0312 46.2894V48.8675C77.0312 49.1576 76.916 49.4358 76.7109 49.6409C76.5058 49.846 76.2276 49.9613 75.9375 49.9613C75.6474 49.9613 75.3692 49.846 75.1641 49.6409C74.959 49.4358 74.8438 49.1576 74.8438 48.8675V46.2894C74.8438 45.9993 74.959 45.7211 75.1641 45.516C75.3692 45.3109 75.6474 45.1956 75.9375 45.1956C76.2276 45.1956 76.5058 45.3109 76.7109 45.516C76.916 45.7211 77.0312 45.9993 77.0312 46.2894ZM77.0312 4.0625V42.0706C77.0312 42.3607 76.916 42.6389 76.7109 42.844C76.5058 43.0491 76.2276 43.1644 75.9375 43.1644C75.6474 43.1644 75.3692 43.0491 75.1641 42.844C74.959 42.6389 74.8438 42.3607 74.8438 42.0706V5.15625H58.5419V6.71875H72.1875C72.4776 6.71875 72.7558 6.83398 72.9609 7.0391C73.166 7.24422 73.2812 7.52242 73.2812 7.8125V49.3937C73.2812 49.6838 73.166 49.962 72.9609 50.1671C72.7558 50.3723 72.4776 50.4875 72.1875 50.4875H7.8125C7.52242 50.4875 7.24422 50.3723 7.0391 50.1671C6.83398 49.962 6.71875 49.6838 6.71875 49.3937V7.8125C6.71875 7.52242 6.83398 7.24422 7.0391 7.0391C7.24422 6.83398 7.52242 6.71875 7.8125 6.71875H21.4581V5.15625H5.15625V55.7994H74.8438V52.6956C74.8438 52.4055 74.959 52.1273 75.1641 51.9222C75.3692 51.7171 75.6474 51.6019 75.9375 51.6019C76.2276 51.6019 76.5058 51.7171 76.7109 51.9222C76.916 52.1273 77.0312 52.4055 77.0312 52.6956V56.8931C77.0313 57.0368 77.0031 57.179 76.9482 57.3118C76.8932 57.4445 76.8127 57.5651 76.7111 57.6667C76.6095 57.7683 76.4889 57.8489 76.3562 57.9038C76.2234 57.9587 76.0812 57.987 75.9375 57.9869H44.7025L46.3156 67.4644C48.3279 67.792 50.1583 68.8238 51.4804 70.3757C52.8024 71.9276 53.5302 73.8988 53.5337 75.9375C53.5337 76.2276 53.4185 76.5058 53.2134 76.7109C53.0083 76.916 52.7301 77.0312 52.44 77.0312H27.5625C27.2724 77.0312 26.9942 76.916 26.7891 76.7109C26.584 76.5058 26.4688 76.2276 26.4688 75.9375C26.4724 73.8987 27.2002 71.9275 28.5224 70.3755C29.8446 68.8236 31.6752 67.7918 33.6875 67.4644L34.6638 61.73C34.7123 61.444 34.8725 61.189 35.1091 61.0211C35.3457 60.8532 35.6393 60.7861 35.9253 60.8347C36.2113 60.8833 36.4663 61.0435 36.6342 61.28C36.8022 61.5166 36.8692 61.8102 36.8206 62.0962L35.9275 67.3463H44.0756L42.4825 57.9869H4.0625C3.91884 57.987 3.77658 57.9587 3.64384 57.9038C3.51111 57.8489 3.3905 57.7683 3.28892 57.6667C3.18734 57.5651 3.10678 57.4445 3.05184 57.3118C2.9969 57.179 2.96867 57.0368 2.96875 56.8931V4.0625C2.96875 3.77242 3.08398 3.49422 3.2891 3.2891C3.49422 3.08398 3.77242 2.96875 4.0625 2.96875H75.9375C76.2276 2.96875 76.5058 3.08398 76.7109 3.2891C76.916 3.49422 77.0312 3.77242 77.0312 4.0625ZM44.9375 69.5312H35.0625C33.5536 69.5333 32.0937 70.067 30.9393 71.0385C29.7848 72.0101 29.0097 73.3574 28.75 74.8438H51.2563C50.9964 73.3563 50.2203 72.0082 49.0646 71.0365C47.9088 70.0648 46.4474 69.5318 44.9375 69.5312ZM23.6456 24.7656V43.1838H56.3544V5.15625H23.6456V18.9062C23.6456 19.1963 23.5304 19.4745 23.3253 19.6796C23.1202 19.8848 22.842 20 22.5519 20C22.2618 20 21.9836 19.8848 21.7785 19.6796C21.5734 19.4745 21.4581 19.1963 21.4581 18.9062V8.90625H8.90625V48.3H71.0938V8.90625H58.5419V44.2775C58.542 44.4212 58.5137 44.5634 58.4588 44.6962C58.4039 44.8289 58.3233 44.9495 58.2217 45.0511C58.1201 45.1527 57.9995 45.2332 57.8668 45.2882C57.734 45.3431 57.5918 45.3713 57.4481 45.3713H22.5519C22.4082 45.3713 22.266 45.3431 22.1332 45.2882C22.0005 45.2332 21.8799 45.1527 21.7783 45.0511C21.6767 44.9495 21.5962 44.8289 21.5412 44.6962C21.4863 44.5634 21.458 44.4212 21.4581 44.2775V24.7656C21.4581 24.4755 21.5734 24.1973 21.7785 23.9922C21.9836 23.7871 22.2618 23.6719 22.5519 23.6719C22.842 23.6719 23.1202 23.7871 23.3253 23.9922C23.5304 24.1973 23.6456 24.4755 23.6456 24.7656ZM68.4375 21.6144C68.7276 21.6144 69.0058 21.4991 69.2109 21.294C69.416 21.0889 69.5312 20.8107 69.5312 20.5206V15.12C69.5312 14.8299 69.416 14.5517 69.2109 14.3466C69.0058 14.1415 68.7276 14.0262 68.4375 14.0262C68.1474 14.0262 67.8692 14.1415 67.6641 14.3466C67.459 14.5517 67.3438 14.8299 67.3438 15.12V20.5206C67.3438 20.8107 67.459 21.0889 67.6641 21.294C67.8692 21.4991 68.1474 21.6144 68.4375 21.6144ZM51.2125 37.9375C51.2125 39.1575 50.3525 40 48.8719 40.1081V40.7388H47.9019V40.08C47.0029 39.9741 46.1596 39.5892 45.4906 38.9794L46.3413 37.9688C46.7863 38.3672 47.3231 38.6491 47.9038 38.7894V37.1287C46.6538 36.8088 45.7931 36.3587 45.7931 35.1481C45.7931 34.0075 46.6331 33.1875 47.9038 33.0269V32.4069H48.8737V33.0369C49.6697 33.1102 50.4224 33.4323 51.025 33.9575L50.2544 35.02C49.852 34.6889 49.3801 34.4528 48.8737 34.3294V35.93C50.2825 36.25 51.2125 36.6987 51.2125 37.9375ZM47.9 34.3056C47.7327 34.3324 47.5797 34.4161 47.467 34.5426C47.3542 34.6691 47.2886 34.8307 47.2812 35C47.2812 35.33 47.4613 35.52 47.9019 35.67L47.9 34.3056ZM49.7206 38.0975C49.7206 37.7175 49.4806 37.535 48.87 37.3675V38.8475C49.4325 38.7794 49.7225 38.4694 49.7225 38.0994L49.7206 38.0975ZM46.1981 20.5212H50.5206C50.8107 20.5212 51.0889 20.406 51.294 20.2009C51.4991 19.9958 51.6144 19.7176 51.6144 19.4275C51.6144 19.1374 51.4991 18.8592 51.294 18.6541C51.0889 18.449 50.8107 18.3337 50.5206 18.3337H46.1981C45.908 18.3337 45.6298 18.449 45.4247 18.6541C45.2196 18.8592 45.1044 19.1374 45.1044 19.4275C45.1044 19.7176 45.2196 19.9958 45.4247 20.2009C45.6298 20.406 45.908 20.5212 46.1981 20.5212ZM46.1981 25.2638H50.5206C50.8107 25.2638 51.0889 25.1485 51.294 24.9434C51.4991 24.7383 51.6144 24.4601 51.6144 24.17C51.6144 23.8799 51.4991 23.6017 51.294 23.3966C51.0889 23.1915 50.8107 23.0763 50.5206 23.0763H46.1981C45.908 23.0763 45.6298 23.1915 45.4247 23.3966C45.2196 23.6017 45.1044 23.8799 45.1044 24.17C45.1044 24.4601 45.2196 24.7383 45.4247 24.9434C45.6298 25.1485 45.908 25.2638 46.1981 25.2638ZM46.1981 15.7788H50.5206C50.8107 15.7788 51.0889 15.6635 51.294 15.4584C51.4991 15.2533 51.6144 14.9751 51.6144 14.685C51.6144 14.3949 51.4991 14.1167 51.294 13.9116C51.0889 13.7065 50.8107 13.5913 50.5206 13.5913H46.1981C45.908 13.5913 45.6298 13.7065 45.4247 13.9116C45.2196 14.1167 45.1044 14.3949 45.1044 14.685C45.1044 14.9751 45.2196 15.2533 45.4247 15.4584C45.6298 15.6635 45.908 15.7788 46.1981 15.7788ZM46.1981 11.0356H50.5206C50.8107 11.0356 51.0889 10.9204 51.294 10.7153C51.4991 10.5102 51.6144 10.232 51.6144 9.94187C51.6144 9.65179 51.4991 9.37359 51.294 9.16848C51.0889 8.96336 50.8107 8.84812 50.5206 8.84812H46.1981C45.908 8.84812 45.6298 8.96336 45.4247 9.16848C45.2196 9.37359 45.1044 9.65179 45.1044 9.94187C45.1044 10.232 45.2196 10.5102 45.4247 10.7153C45.6298 10.9204 45.908 11.0356 46.1981 11.0356ZM29.4794 30.0062H50.5206C50.8107 30.0062 51.0889 29.891 51.294 29.6859C51.4991 29.4808 51.6144 29.2026 51.6144 28.9125C51.6144 28.6224 51.4991 28.3442 51.294 28.1391C51.0889 27.934 50.8107 27.8187 50.5206 27.8187H29.4794C29.1893 27.8187 28.9111 27.934 28.706 28.1391C28.5009 28.3442 28.3856 28.6224 28.3856 28.9125C28.3856 29.2026 28.5009 29.4808 28.706 29.6859C28.9111 29.891 29.1893 30.0062 29.4794 30.0062ZM29.4794 34.7494H41.4844C41.7745 34.7494 42.0527 34.6341 42.2578 34.429C42.4629 34.2239 42.5781 33.9457 42.5781 33.6556C42.5781 33.3655 42.4629 33.0873 42.2578 32.8822C42.0527 32.6771 41.7745 32.5619 41.4844 32.5619H29.4794C29.1893 32.5619 28.9111 32.6771 28.706 32.8822C28.5009 33.0873 28.3856 33.3655 28.3856 33.6556C28.3856 33.9457 28.5009 34.2239 28.706 34.429C28.9111 34.6341 29.1893 34.7494 29.4794 34.7494ZM29.4794 39.4919H41.4844C41.7745 39.4919 42.0527 39.3766 42.2578 39.1715C42.4629 38.9664 42.5781 38.6882 42.5781 38.3981C42.5781 38.108 42.4629 37.8298 42.2578 37.6247C42.0527 37.4196 41.7745 37.3044 41.4844 37.3044H29.4794C29.1893 37.3044 28.9111 37.4196 28.706 37.6247C28.5009 37.8298 28.3856 38.108 28.3856 38.3981C28.3856 38.6882 28.5009 38.9664 28.706 39.1715C28.9111 39.3766 29.1893 39.4919 29.4794 39.4919ZM28.3856 16.1919C28.3856 14.7394 28.8163 13.3196 29.6233 12.1119C30.4302 10.9042 31.5772 9.96297 32.919 9.40713C34.2609 8.8513 35.7375 8.70587 37.1621 8.98923C38.5866 9.27259 39.8951 9.97202 40.9222 10.9991C41.9492 12.0261 42.6487 13.3346 42.932 14.7592C43.2154 16.1837 43.0699 17.6603 42.5141 19.0022C41.9583 20.3441 41.017 21.491 39.8093 22.298C38.6017 23.1049 37.1818 23.5356 35.7294 23.5356C33.7824 23.5335 31.9157 22.7591 30.5389 21.3823C29.1622 20.0056 28.3878 18.1389 28.3856 16.1919ZM30.5731 16.1919C30.5731 17.2117 30.8755 18.2086 31.4421 19.0565C32.0087 19.9045 32.814 20.5654 33.7562 20.9556C34.6983 21.3459 35.7351 21.448 36.7353 21.249C37.7355 21.0501 38.6543 20.559 39.3754 19.8379C40.0965 19.1168 40.5876 18.198 40.7865 17.1978C40.9855 16.1976 40.8834 15.1608 40.4931 14.2187C40.1029 13.2765 39.442 12.4712 38.594 11.9046C37.7461 11.338 36.7492 11.0356 35.7294 11.0356C34.3623 11.0371 33.0517 11.5808 32.085 12.5475C31.1183 13.5142 30.5746 14.8248 30.5731 16.1919ZM33.6169 18.9419C33.8222 19.1467 34.1003 19.2617 34.3903 19.2617C34.6803 19.2617 34.9585 19.1467 35.1637 18.9419L39.12 14.985C39.2244 14.8841 39.3077 14.7634 39.365 14.6299C39.4223 14.4965 39.4525 14.3529 39.4537 14.2077C39.4549 14.0625 39.4272 13.9185 39.3722 13.7841C39.3172 13.6497 39.236 13.5276 39.1332 13.4249C39.0305 13.3222 38.9084 13.241 38.774 13.186C38.6395 13.1311 38.4955 13.1034 38.3503 13.1047C38.205 13.106 38.0615 13.1362 37.9281 13.1936C37.7947 13.2509 37.674 13.3343 37.5731 13.4388L34.39 16.625L33.8856 16.12C33.6804 15.9149 33.4021 15.7997 33.112 15.7997C32.8218 15.7998 32.5436 15.9151 32.3384 16.1203C32.1333 16.3255 32.0181 16.6038 32.0182 16.894C32.0182 17.1841 32.1335 17.4624 32.3388 17.6675L33.6169 18.9419Z" fill="url(#paint0_linear)"/>
<defs>
<linearGradient id="paint0_linear" x1="71.95" y1="62.4275" x2="8.05" y2="-1.47187" gradientUnits="userSpaceOnUse">
<stop stop-color="#81CAA8"/>
<stop offset="1" stop-color="#53C1DE"/>
</linearGradient>
</defs>
</svg>
