<svg width="80" height="80" viewBox="0 0 80 80" fill="none" xmlns="http://www.w3.org/2000/svg">
<g clip-path="url(#clip0)">
<path d="M28.3937 57.3147C28.2808 57.2825 28.1652 57.2644 28.0487 57.2581C29.7603 55.4592 30.8144 53.0291 30.8144 50.356V42.1355C30.8144 42.0603 30.8072 41.987 30.797 41.9149C30.8073 41.7664 30.8144 41.617 30.8144 41.4661V36.2652C30.8144 35.4022 30.1148 34.7027 29.2519 34.7027H18.7717C14.3584 34.7027 10.7681 38.2931 10.7681 42.7063V50.356C10.7681 53.0291 11.822 55.4592 13.5337 57.2581C13.4175 57.2644 13.3019 57.2825 13.1891 57.3147C5.80516 57.9833 0 64.2069 0 71.7619V78.4375C0 79.3005 0.699531 80 1.5625 80H40.0198C40.8828 80 41.5823 79.3005 41.5823 78.4375V71.7619C41.5823 64.2071 35.7775 57.9835 28.3937 57.3147ZM13.8931 44.6877V42.7061C13.8931 40.0161 16.0817 37.8275 18.7717 37.8275H27.6894V41.4659C27.6894 43.2977 26.1992 44.7878 24.3675 44.7878H13.8931V44.6877ZM13.8931 47.9128H24.3675C25.5819 47.9128 26.7186 47.575 27.6894 46.9888V50.3558C27.6894 54.1594 24.5948 57.2539 20.7912 57.2539C16.9877 57.2539 13.8931 54.1594 13.8931 50.3558V47.9128ZM24.192 60.3791L20.7912 63.78L17.3905 60.3791H24.192ZM38.4575 76.875H3.125V73.75H9.60938C10.4723 73.75 11.1719 73.0505 11.1719 72.1875C11.1719 71.3246 10.4723 70.625 9.60938 70.625H3.18203C3.70687 65.3569 7.83922 61.138 13.0656 60.4736L19.6864 67.0944C19.9794 67.3874 20.3769 67.5521 20.7912 67.5521C21.2056 67.5521 21.6031 67.3874 21.8961 67.0944L28.5169 60.4736C34.1144 61.185 38.4575 65.9742 38.4575 71.7619V76.875Z" fill="url(#paint0_linear)"/>
<path d="M66.8117 22.6122C66.6987 22.58 66.583 22.5619 66.4664 22.5556C68.178 20.7567 69.2319 18.3266 69.2319 15.6534V7.43281C69.2319 7.35766 69.2247 7.28438 69.2145 7.21219C69.2248 7.06375 69.2319 6.91437 69.2319 6.76344V1.5625C69.2319 0.699531 68.5323 0 67.6694 0H57.1892C52.7759 0 49.1856 3.59047 49.1856 8.00359V15.6533C49.1856 18.3264 50.2395 20.7566 51.9511 22.5555C51.8347 22.5617 51.7187 22.5798 51.6058 22.612C44.2222 23.2809 38.4175 29.5045 38.4175 37.0592V43.7347C38.4175 44.5977 39.117 45.2972 39.98 45.2972H52.5519C53.4148 45.2972 54.1144 44.5977 54.1144 43.7347C54.1144 42.8717 53.4148 42.1722 52.5519 42.1722H41.5425V37.0594C41.5425 31.2717 45.8854 26.4825 51.483 25.7711L58.1037 32.3919C58.4089 32.697 58.8087 32.8495 59.2086 32.8495C59.6084 32.8495 60.0084 32.697 60.3134 32.3919L66.9342 25.7711C72.532 26.4827 76.875 31.2717 76.875 37.0594V42.1723H65.3645C64.5015 42.1723 63.802 42.8719 63.802 43.7348C63.802 44.5978 64.5015 45.2973 65.3645 45.2973H78.4375C79.3004 45.2973 80 44.5978 80 43.7348V37.0594C80 29.5047 74.1951 23.2811 66.8117 22.6122ZM59.2089 29.0773L55.8081 25.6766H62.6097L59.2089 29.0773ZM66.107 15.6533C66.107 19.4569 63.0125 22.5514 59.2089 22.5514C55.4053 22.5514 52.3108 19.457 52.3108 15.6534V13.2103H62.7851C63.9995 13.2103 65.1362 12.8723 66.107 12.2863V15.6533ZM66.107 6.76344C66.107 8.59516 64.6169 10.0853 62.7851 10.0853H52.3108V9.98516V8.00359C52.3108 5.31359 54.4994 3.125 57.1894 3.125H66.107V6.76344Z" fill="url(#paint1_linear)"/>
<path d="M60.3142 42.6297C60.0235 42.3391 59.6204 42.1719 59.2095 42.1719C58.797 42.1719 58.3954 42.3391 58.1048 42.6297C57.8126 42.9203 57.647 43.3234 57.647 43.7344C57.647 44.1469 57.8126 44.5484 58.1048 44.8391C58.3954 45.1313 58.797 45.2969 59.2095 45.2969C59.6204 45.2969 60.0235 45.1313 60.3142 44.8391C60.6048 44.5484 60.772 44.1469 60.772 43.7344C60.772 43.3234 60.6048 42.9203 60.3142 42.6297Z" fill="url(#paint2_linear)"/>
<path d="M41.782 21.8639L35.2475 15.3294V7.8125C35.2475 3.50469 31.7428 0 27.435 0H7.8125C3.50469 0 0 3.50469 0 7.8125V21.5625C0 25.8703 3.50469 29.375 7.8125 29.375H27.4348C30.6652 29.375 33.482 27.4364 34.6639 24.5312H40.677C41.3089 24.5312 41.8787 24.1505 42.1206 23.5667C42.3625 22.983 42.2287 22.3108 41.782 21.8639ZM33.5241 21.4062C32.7961 21.4062 32.1645 21.9089 32.0013 22.6184C31.5094 24.7566 29.6317 26.25 27.4348 26.25H7.8125C5.22781 26.25 3.125 24.1472 3.125 21.5625V7.8125C3.125 5.22781 5.22781 3.125 7.8125 3.125H27.4348C30.0195 3.125 32.1223 5.22781 32.1223 7.8125V15.9766C32.1223 16.3909 32.287 16.7884 32.58 17.0814L36.9048 21.4062H33.5241Z" fill="url(#paint3_linear)"/>
<path d="M72.1875 50.625H52.5651C49.3348 50.625 46.518 52.5636 45.3361 55.4688H39.323C38.6911 55.4688 38.1212 55.8495 37.8794 56.4333C37.6375 57.017 37.7712 57.6892 38.218 58.1361L44.7525 64.6706V72.1875C44.7525 76.4953 48.2572 80 52.565 80H72.1875C76.4953 80 80 76.4953 80 72.1875V58.4375C80 54.1297 76.4953 50.625 72.1875 50.625ZM76.875 72.1875C76.875 74.7722 74.7722 76.875 72.1875 76.875H52.5651C49.9805 76.875 47.8776 74.7722 47.8776 72.1875V64.0234C47.8776 63.6091 47.713 63.2116 47.42 62.9186L43.0951 58.5938H46.4759C47.2039 58.5938 47.8355 58.0911 47.9987 57.3816C48.4906 55.2434 50.3683 53.75 52.5651 53.75H72.1875C74.7722 53.75 76.875 55.8528 76.875 58.4375V72.1875Z" fill="url(#paint4_linear)"/>
<path d="M69.3994 61.155C68.7894 60.5448 67.8 60.5448 67.1898 61.155L63.0362 65.3086L61.1048 63.3772C60.4947 62.767 59.5053 62.767 58.895 63.3772C58.2848 63.9874 58.2848 64.9767 58.895 65.587L61.9312 68.6233C62.2364 68.9284 62.6362 69.081 63.0361 69.081C63.4359 69.081 63.8359 68.9284 64.1409 68.6233L69.3994 63.3649C70.0095 62.7547 70.0095 61.7653 69.3994 61.155Z" fill="url(#paint5_linear)"/>
<path d="M24.727 10.3544C24.5423 7.67516 22.3826 5.51547 19.7034 5.33078C18.1842 5.22625 16.7361 5.73875 15.6267 6.77438C14.5328 7.79547 13.9053 9.23922 13.9053 10.7352C13.9054 11.5983 14.605 12.2978 15.4679 12.2978C16.3309 12.2978 17.0304 11.5983 17.0304 10.7353C17.0304 10.093 17.2892 9.49766 17.7592 9.05891C18.2284 8.62078 18.8432 8.40328 19.4887 8.4486C20.6198 8.52656 21.5315 9.43828 21.6095 10.5694C21.6884 11.713 20.9387 12.7236 19.827 12.9723C18.6101 13.2445 17.7603 14.3025 17.7603 15.545V16.3786C17.7603 17.2416 18.4598 17.9411 19.3228 17.9411C20.1857 17.9411 20.8853 17.2416 20.8853 16.3786V15.9239C23.3062 15.2017 24.9039 12.9194 24.727 10.3544Z" fill="url(#paint6_linear)"/>
<path d="M20.4281 21.2531C20.1374 20.9625 19.7343 20.7953 19.3234 20.7953C18.9109 20.7953 18.5093 20.9625 18.2187 21.2531C17.9265 21.5438 17.7609 21.9469 17.7609 22.3578C17.7609 22.7688 17.9265 23.1719 18.2187 23.4625C18.5093 23.7531 18.9109 23.9203 19.3234 23.9203C19.7343 23.9203 20.1374 23.7531 20.4281 23.4625C20.7187 23.1719 20.8859 22.7688 20.8859 22.3578C20.8859 21.9469 20.7187 21.5438 20.4281 21.2531Z" fill="url(#paint7_linear)"/>
<path d="M16.9641 71.0828C16.6734 70.7922 16.2703 70.625 15.8594 70.625C15.4484 70.625 15.0453 70.7922 14.7547 71.0828C14.4641 71.3734 14.2969 71.7766 14.2969 72.1875C14.2969 72.5984 14.4641 73.0016 14.7547 73.2922C15.0453 73.5828 15.4484 73.75 15.8594 73.75C16.2703 73.75 16.6734 73.5828 16.9641 73.2922C17.2547 73.0016 17.4219 72.5984 17.4219 72.1875C17.4219 71.7766 17.2547 71.3734 16.9641 71.0828Z" fill="url(#paint8_linear)"/>
</g>
<defs>
<linearGradient id="paint0_linear" x1="20.7912" y1="34.7027" x2="20.7912" y2="80" gradientUnits="userSpaceOnUse">
<stop stop-color="#81CAA8"/>
<stop offset="1" stop-color="#53C1DE"/>
</linearGradient>
<linearGradient id="paint1_linear" x1="59.2087" y1="0" x2="59.2087" y2="45.2973" gradientUnits="userSpaceOnUse">
<stop stop-color="#81CAA8"/>
<stop offset="1" stop-color="#53C1DE"/>
</linearGradient>
<linearGradient id="paint2_linear" x1="59.2095" y1="42.1719" x2="59.2095" y2="45.2969" gradientUnits="userSpaceOnUse">
<stop stop-color="#81CAA8"/>
<stop offset="1" stop-color="#53C1DE"/>
</linearGradient>
<linearGradient id="paint3_linear" x1="21.1198" y1="0" x2="21.1198" y2="29.375" gradientUnits="userSpaceOnUse">
<stop stop-color="#81CAA8"/>
<stop offset="1" stop-color="#53C1DE"/>
</linearGradient>
<linearGradient id="paint4_linear" x1="58.8802" y1="50.625" x2="58.8802" y2="80" gradientUnits="userSpaceOnUse">
<stop stop-color="#81CAA8"/>
<stop offset="1" stop-color="#53C1DE"/>
</linearGradient>
<linearGradient id="paint5_linear" x1="64.1472" y1="60.6974" x2="64.1472" y2="69.081" gradientUnits="userSpaceOnUse">
<stop stop-color="#81CAA8"/>
<stop offset="1" stop-color="#53C1DE"/>
</linearGradient>
<linearGradient id="paint6_linear" x1="19.3228" y1="5.31744" x2="19.3228" y2="17.9411" gradientUnits="userSpaceOnUse">
<stop stop-color="#81CAA8"/>
<stop offset="1" stop-color="#53C1DE"/>
</linearGradient>
<linearGradient id="paint7_linear" x1="19.3234" y1="20.7953" x2="19.3234" y2="23.9203" gradientUnits="userSpaceOnUse">
<stop stop-color="#81CAA8"/>
<stop offset="1" stop-color="#53C1DE"/>
</linearGradient>
<linearGradient id="paint8_linear" x1="15.8594" y1="70.625" x2="15.8594" y2="73.75" gradientUnits="userSpaceOnUse">
<stop stop-color="#81CAA8"/>
<stop offset="1" stop-color="#53C1DE"/>
</linearGradient>
<clipPath id="clip0">
<rect width="80" height="80" fill="white"/>
</clipPath>
</defs>
</svg>
