<svg width="63" height="63" viewBox="0 0 63 63" fill="none" xmlns="http://www.w3.org/2000/svg">
<g filter="url(#filter0_dd)">
<path d="M40.3623 13H22.1304C17.1159 13 13 17.1655 13 22.2697V40.7211C13 45.7959 17.1159 49.9614 22.1304 49.9614H40.3623C45.4058 49.9614 49.5217 45.7959 49.5217 40.6917V22.2697C49.5217 17.1655 45.4058 13 40.3623 13ZM36.1594 31.4807H32.7101V42.9212H28.3623V31.4807H26.0435V26.7872H28.0725V24.7925C28.0725 22.915 29 19.9523 32.913 19.9523H36.4783V23.8538H33.9565C33.5507 23.8538 33 24.1178 33 25.0271V26.7872H36.5652L36.1594 31.4807Z" fill="#7B7A7A"/>
</g>
<defs>
<filter id="filter0_dd" x="0" y="0" width="62.5217" height="62.9614" filterUnits="userSpaceOnUse" color-interpolation-filters="sRGB">
<feFlood flood-opacity="0" result="BackgroundImageFix"/>
<feColorMatrix in="SourceAlpha" type="matrix" values="0 0 0 0 0 0 0 0 0 0 0 0 0 0 0 0 0 0 127 0"/>
<feOffset dx="5" dy="5"/>
<feGaussianBlur stdDeviation="4"/>
<feColorMatrix type="matrix" values="0 0 0 0 0 0 0 0 0 0 0 0 0 0 0 0 0 0 0.25 0"/>
<feBlend mode="normal" in2="BackgroundImageFix" result="effect1_dropShadow"/>
<feColorMatrix in="SourceAlpha" type="matrix" values="0 0 0 0 0 0 0 0 0 0 0 0 0 0 0 0 0 0 127 0"/>
<feOffset dx="-5" dy="-5"/>
<feGaussianBlur stdDeviation="4"/>
<feColorMatrix type="matrix" values="0 0 0 0 0.5125 0 0 0 0 0.5125 0 0 0 0 0.5125 0 0 0 0.08 0"/>
<feBlend mode="normal" in2="effect1_dropShadow" result="effect2_dropShadow"/>
<feBlend mode="normal" in="SourceGraphic" in2="effect2_dropShadow" result="shape"/>
</filter>
</defs>
</svg>
