<svg width="82" height="82" viewBox="0 0 82 82" fill="none" xmlns="http://www.w3.org/2000/svg">
<g filter="url(#filter0_dd)">
<path d="M45.9517 37.4C44.8414 35.8444 43.0207 34.8222 40.9778 34.8222C38.935 34.8222 37.1142 35.8444 36.004 37.4C35.2935 38.4222 34.8494 39.6666 34.8494 41C34.8494 44.3778 37.6027 47.1333 40.9778 47.1333C44.3529 47.1333 47.1063 44.3778 47.1063 41C47.1063 39.6666 46.6622 38.4222 45.9517 37.4Z" fill="#7B7A7A"/>
<path d="M49.8152 37.4445C50.2593 38.3333 50.5258 39.7556 50.5258 41C50.5258 46.2445 46.2625 50.5556 40.9778 50.5556C35.6931 50.5556 31.4298 46.2889 31.4298 41C31.4298 39.7111 31.6963 38.3333 32.1404 37.4445H26.7668V51.7111C26.7668 53.5778 28.41 55.2222 30.2752 55.2222H51.6804C53.5456 55.2222 55.1887 53.5778 55.1887 51.7111V37.4445H49.8152Z" fill="#7B7A7A"/>
<path d="M53.5899 27.5778H48.4385V33.4889H54.3005V28.3333V27.5333L53.5899 27.5778Z" fill="#7B7A7A"/>
<path d="M54.9223 13H27.0333C19.3061 13 13 19.3111 13 27.0444V55C13 62.6889 19.3061 69 27.0333 69H54.9667C62.6939 69 69 62.6889 69 54.9556V27.0444C68.9556 19.3111 62.6495 13 54.9223 13ZM58.2974 37.4V51.7111C58.2974 55.4444 55.4108 58.3333 51.6804 58.3333H30.2752C26.5448 58.3333 23.6582 55.4444 23.6582 51.7111V37.4V30.2889C23.6582 26.5556 26.5448 23.6667 30.2752 23.6667H51.6804C55.4108 23.6667 58.2974 26.5556 58.2974 30.2889V37.4Z" fill="#7B7A7A"/>
</g>
<defs>
<filter id="filter0_dd" x="0" y="0" width="82" height="82" filterUnits="userSpaceOnUse" color-interpolation-filters="sRGB">
<feFlood flood-opacity="0" result="BackgroundImageFix"/>
<feColorMatrix in="SourceAlpha" type="matrix" values="0 0 0 0 0 0 0 0 0 0 0 0 0 0 0 0 0 0 127 0"/>
<feOffset dx="5" dy="5"/>
<feGaussianBlur stdDeviation="4"/>
<feColorMatrix type="matrix" values="0 0 0 0 0 0 0 0 0 0 0 0 0 0 0 0 0 0 0.25 0"/>
<feBlend mode="normal" in2="BackgroundImageFix" result="effect1_dropShadow"/>
<feColorMatrix in="SourceAlpha" type="matrix" values="0 0 0 0 0 0 0 0 0 0 0 0 0 0 0 0 0 0 127 0"/>
<feOffset dx="-5" dy="-5"/>
<feGaussianBlur stdDeviation="4"/>
<feColorMatrix type="matrix" values="0 0 0 0 0.5125 0 0 0 0 0.5125 0 0 0 0 0.5125 0 0 0 0.2 0"/>
<feBlend mode="normal" in2="effect1_dropShadow" result="effect2_dropShadow"/>
<feBlend mode="normal" in="SourceGraphic" in2="effect2_dropShadow" result="shape"/>
</filter>
</defs>
</svg>
